<svg width="200" height="60" viewBox="0 0 200 60" fill="none" xmlns="http://www.w3.org/2000/svg">
<path fill-rule="evenodd" clip-rule="evenodd" d="M121.78 45.7564H110.543L101.69 24.7741L98.6223 32.0629L104.407 45.776H93.1895L84.9817 26.2868L84.884 26.5619C84.1388 28.5702 82.8663 31.4968 82.4126 32.5401C82.307 32.7828 82.2458 32.9236 82.2458 32.9273C77.5752 45.0884 73.2173 47.3084 73.2173 47.3084L73.2368 47.2692C71.478 48.6051 69.3674 49.4106 67.0615 49.4106C65.244 49.4106 63.5243 48.8998 62 48.0157L66.612 38.0747C67.0615 38.1336 67.5109 38.1532 67.9799 38.1532C69.5042 38.1532 70.9504 37.8389 72.2988 37.2888C72.8655 37.0727 78.65 33.9489 83.3793 22.5344L83.4184 22.4558L75.7578 4.38114L85.2944 0L97.0589 28.2908L100.107 21.002L93.5413 5.32417L102.98 0.726916L121.78 45.7564ZM119.2 58.7623C119.532 58.7623 119.826 58.7034 120.099 58.5659C120.373 58.4283 120.588 58.2515 120.783 58.0158C120.979 57.78 121.115 57.5246 121.213 57.2103C121.311 56.9156 121.369 56.6012 121.369 56.2672C121.369 55.9333 121.311 55.6189 121.213 55.3046C121.115 55.0099 120.979 54.7348 120.783 54.5187C120.588 54.283 120.373 54.1061 120.099 53.9883C119.826 53.8507 119.532 53.7918 119.2 53.7918C118.868 53.7918 118.575 53.8507 118.301 53.9883C118.047 54.1258 117.813 54.3026 117.637 54.5187C117.441 54.7348 117.305 55.0099 117.207 55.3046C117.109 55.5993 117.051 55.9136 117.051 56.2672C117.051 56.6012 117.109 56.9156 117.207 57.2103C117.305 57.505 117.441 57.78 117.637 58.0158C117.832 58.2515 118.047 58.4283 118.301 58.5659C118.575 58.6838 118.868 58.7623 119.2 58.7623ZM119.2 60.0001C118.712 60.0001 118.262 59.9018 117.832 59.7054C117.422 59.5089 117.051 59.2535 116.738 58.9195C116.425 58.5855 116.171 58.1926 115.995 57.7407C115.819 57.2889 115.722 56.8173 115.722 56.2869C115.722 55.7761 115.819 55.2849 115.995 54.8331C116.171 54.3812 116.425 53.9883 116.738 53.6543C117.051 53.3203 117.402 53.0649 117.832 52.8684C118.262 52.672 118.712 52.5737 119.2 52.5737C119.689 52.5737 120.138 52.672 120.568 52.8684C120.979 53.0649 121.35 53.3203 121.663 53.6543C121.975 53.9883 122.229 54.3812 122.405 54.8331C122.581 55.2849 122.679 55.7564 122.679 56.2869C122.679 56.7977 122.581 57.2889 122.405 57.7407C122.229 58.1926 121.975 58.5855 121.663 58.9195C121.35 59.2535 120.979 59.5285 120.568 59.7054C120.138 59.9018 119.689 60.0001 119.2 60.0001ZM76.8127 52.7896H77.9852L79.9785 56.1098L81.9523 52.7896H83.1248L83.4375 59.8229H82.2259L81.9914 54.9506L80.2521 57.819H79.6463L77.8875 55.0096L77.6725 59.8229H76.5L76.8127 52.7896ZM90.0043 56.9349L89.1248 54.2041L88.2259 56.9349H90.0043ZM88.4995 52.7896H89.7893L92.3102 59.8229H90.9032L90.3169 58.0351H87.8351L87.2488 59.8229H85.9395L88.4995 52.7896ZM98.2509 55.6579C98.075 55.8544 97.821 55.9526 97.5083 55.9526H96.1989V53.9094H97.5278C97.821 53.9094 98.0555 53.988 98.2509 54.1844C98.4268 54.3809 98.5245 54.6363 98.5245 54.931C98.5245 55.2257 98.4268 55.4615 98.2509 55.6579ZM97.4887 52.7896H94.9678H94.9482V59.8426H96.1599V57.0725H97.4301L98.7785 59.8426H100.205L98.6613 56.8956C99.0326 56.6795 99.3257 56.4045 99.5016 56.0705C99.6775 55.7365 99.7752 55.3239 99.7752 54.8917C99.7752 54.6756 99.7361 54.4398 99.6579 54.1844C99.5798 53.929 99.443 53.7129 99.2671 53.4968C99.0912 53.2807 98.8567 53.1235 98.5636 52.986C98.2704 52.8485 97.8991 52.7896 97.4887 52.7896ZM105.58 55.9526C105.892 55.9526 106.146 55.8544 106.322 55.6579C106.498 55.4615 106.596 55.2257 106.596 54.931C106.596 54.6363 106.498 54.3809 106.322 54.1844C106.127 53.988 105.892 53.9094 105.599 53.9094H104.27V55.9526H105.58ZM103.059 52.7896H105.58C105.99 52.7896 106.361 52.8485 106.654 52.986C106.948 53.1235 107.182 53.2807 107.358 53.4968C107.534 53.7129 107.671 53.929 107.749 54.1844C107.827 54.4398 107.866 54.6756 107.866 54.8917C107.866 55.3239 107.768 55.7365 107.592 56.0705C107.417 56.4045 107.123 56.6795 106.752 56.8956L108.296 59.8426H106.869L105.521 57.0725H104.27V59.8426H103.059V52.7896ZM111.442 52.7896H112.693V59.8229H111.442V52.7896ZM124.32 53.9487H126.568V59.8229H127.838V53.9487H130.085V52.7896H124.32V53.9487ZM134.483 53.9487H132.216V52.7896H138V53.9487H135.733V59.8229H134.483V53.9487Z" fill="white" fill-opacity="0.4"/>
</svg>
