<svg width="200" height="60" viewBox="0 0 200 60" fill="none" xmlns="http://www.w3.org/2000/svg">
<path fill-rule="evenodd" clip-rule="evenodd" d="M92.3762 14.5971L92.2382 14.6106C91.2359 15.0785 90.6189 15.7695 90.3944 16.7809C89.7541 19.6667 89.7966 22.5659 90.3531 25.4487C90.66 27.0382 91.7862 27.9872 93.3508 28.0325C96.6162 28.1271 99.8908 28.1362 103.153 27.9926C104.804 27.9199 106.02 26.8051 106.172 25.1553C106.402 22.6553 106.541 20.1091 106.326 17.6165C106.114 15.1711 104.751 14.2072 102.284 14.1083C101.989 14.0965 101.693 14.079 101.397 14.0616L101.397 14.0616C100.66 14.018 99.9226 13.9744 99.1904 14.0181C96.9388 14.1525 94.6922 14.3714 92.3762 14.5971ZM93.7905 20.7803C93.7925 20.4632 93.7945 20.1461 93.7926 19.8292C93.9367 17.9704 94.3434 17.5501 95.9667 17.524C97.64 17.4972 99.3151 17.4884 100.988 17.5352C102.252 17.5705 102.73 18.0327 102.789 19.3026C102.846 20.5098 102.843 21.7266 102.758 22.9315C102.671 24.1531 102.153 24.6903 100.942 24.7424C99.1649 24.8187 97.3808 24.8189 95.6033 24.7561C94.3933 24.7134 93.8893 24.1552 93.8212 22.9263C93.7817 22.2126 93.7861 21.4965 93.7905 20.7803ZM74.2902 25.7505C72.978 23.0762 71.7052 20.4722 70.4324 17.8682L70.2847 17.9166V28.1077H66.8223V14.1786C67.2526 14.1786 67.6818 14.1771 68.1102 14.1757C69.5291 14.1711 70.9391 14.1664 72.3473 14.2132C72.5658 14.2205 72.8274 14.675 72.9694 14.9701C73.9945 17.1006 75.0067 19.2373 76.0572 21.4551L76.0574 21.4555L76.0584 21.4577C76.3659 22.1069 76.6767 22.763 76.9921 23.4279C77.3596 22.6513 77.7305 21.8921 78.0968 21.1422L78.0968 21.1421C78.9562 19.3829 79.7902 17.6753 80.4965 15.9164C81.07 14.4879 81.8265 13.9611 83.3337 14.1395C84.1763 14.2392 85.0335 14.2154 85.9109 14.191C86.3059 14.18 86.7049 14.1689 87.1085 14.1689V28.1099H83.661V17.6179C83.4013 18.1375 83.1493 18.6411 82.9031 19.1332L82.899 19.1413L82.8857 19.168L82.8785 19.1822L82.8681 19.2031L82.8629 19.2135L82.8484 19.2423C82.2672 20.4038 81.7168 21.5036 81.1699 22.6052C80.9864 22.9747 80.8018 23.3438 80.6171 23.7128L80.617 23.7131C80.0213 24.9038 79.4255 26.0946 78.8685 27.3032C78.5579 27.9769 78.1113 28.1005 77.4098 28.2347C75.4739 28.6051 74.9573 27.3587 74.3947 26.0013C74.3601 25.918 74.3254 25.8343 74.2902 25.7505ZM94.8989 31.334L105.949 31.3341V34.5117H94.1812V37.2278H105.321V39.9521H94.1765V42.7334H106.125V45.8464H89.9183V31.334L94.8989 31.334ZM185.989 31.3354L183.726 31.3354L181.647 31.3353V36.7343H171.3V31.4151H167.041V45.8566H171.339V40.3041H181.724V45.8371H185.989V31.3354ZM85.9047 34.4387V45.8405H81.6101V40.2997H71.2297V45.8482H66.9196V31.3941H71.164V36.7124H81.5497V31.4228H85.9047V34.4387ZM125.914 28.1802L125.914 22.2385V14.2266H122.509V24.7386C122.37 24.5446 122.25 24.3782 122.142 24.2295L122.139 24.2256L122.139 24.2255L122.139 24.2249C121.937 23.9469 121.78 23.7305 121.629 23.5103C121.073 22.6996 120.517 21.8885 119.961 21.0773L119.959 21.0745C118.562 19.0359 117.165 16.9973 115.758 14.9659C115.547 14.6624 115.231 14.2227 114.95 14.2123C113.569 14.1611 112.186 14.1672 110.798 14.1733C110.343 14.1753 109.887 14.1774 109.431 14.1774V28.1315H112.9V17.789C113.4 18.5199 113.892 19.2396 114.377 19.9505L114.388 19.9653L114.404 19.9902C116.137 22.5255 117.792 24.9488 119.457 27.3652L119.488 27.4098C119.698 27.715 119.986 28.1344 120.248 28.1441C121.659 28.1961 123.073 28.1902 124.508 28.1841C124.974 28.1821 125.442 28.1802 125.914 28.1802ZM110.026 43.5536C110.595 42.5457 111.162 41.543 111.728 40.5437C113.337 37.6999 114.93 34.8839 116.499 32.0544C116.805 31.5029 117.139 31.3065 117.749 31.3228C118.443 31.3413 119.138 31.3388 119.832 31.3364H119.833C120.599 31.3337 121.365 31.331 122.131 31.3564C122.458 31.3673 122.934 31.556 123.076 31.8107C125.193 35.6182 127.282 39.441 129.427 43.3642L129.427 43.365L129.428 43.367C129.889 44.2094 130.352 45.0565 130.818 45.909C130.388 45.909 129.968 45.914 129.557 45.9189C128.454 45.932 127.408 45.9444 126.37 45.8584C126.041 45.8311 125.653 45.2119 125.487 44.7887C125.005 43.5597 124.214 43.1576 122.881 43.2335C120.798 43.352 118.704 43.308 116.614 43.2641L116.043 43.2522C115.305 43.2372 114.811 43.4101 114.57 44.1394C114.098 45.5723 113.18 46.2012 111.615 45.9436C111.03 45.8473 110.425 45.8695 109.757 45.894L109.756 45.894C109.435 45.9058 109.1 45.9181 108.744 45.9181L110.026 43.5536ZM122.686 40.372C122.708 40.3241 122.74 40.2708 122.773 40.2174C122.842 40.1028 122.912 39.9882 122.88 39.9276C122.069 38.396 121.24 36.8736 120.364 35.2634L120.364 35.2632L120.363 35.2624L120.362 35.2602C120.186 34.936 120.007 34.6083 119.827 34.2762L116.661 40.2094C116.727 40.2451 116.776 40.2754 116.815 40.2993C116.877 40.3374 116.912 40.359 116.947 40.3591C118.797 40.3686 120.647 40.3725 122.686 40.372ZM168.059 20.3174C168.042 20.7675 168.032 21.2089 168.023 21.6437C168.001 22.6505 167.98 23.6213 167.867 24.5814C167.622 26.6696 166.515 27.9146 164.437 28.0354C161.386 28.2127 158.311 28.2355 155.259 28.0828C152.981 27.9689 151.924 26.9506 151.728 24.5542C151.53 22.1267 151.684 19.6565 151.856 17.2172C151.976 15.5084 153.158 14.4769 154.802 14.3253C156.656 14.1544 158.523 14.1152 160.389 14.076C160.908 14.0651 161.426 14.0542 161.944 14.0405C162.725 14.0198 163.512 14.0698 164.292 14.138C166.4 14.3223 167.531 15.3451 167.865 17.445C167.965 18.0797 167.991 18.7264 168.017 19.4089V19.4094C168.029 19.7047 168.041 20.0067 168.059 20.3174ZM160.489 24.8242C160.724 24.8127 160.964 24.8149 161.203 24.8171C161.76 24.8221 162.317 24.8272 162.817 24.6606C163.36 24.4794 164.085 23.8984 164.153 23.4141C164.326 22.1888 164.31 20.9335 164.294 19.6843V19.684V19.6825V19.6809V19.6794V19.6778V19.6763V19.6748V19.6732V19.6717C164.291 19.4695 164.289 19.2675 164.287 19.0658C164.278 18.0054 163.605 17.5429 162.615 17.5323C160.8 17.5127 158.983 17.4953 157.169 17.5451C156.001 17.5772 155.444 18.059 155.354 19.2293C155.257 20.5004 155.297 21.7884 155.367 23.0642C155.426 24.1506 156.092 24.7324 157.181 24.7711C157.931 24.7977 158.681 24.8052 159.513 24.8135L159.514 24.8135C159.826 24.8166 160.15 24.8198 160.489 24.8242ZM178.196 14.1742C177.547 14.165 176.892 14.1558 176.228 14.1404C174.392 14.1434 172.662 14.1434 170.952 14.1434H170.951V28.1058H174.555C174.555 27.8278 174.558 27.5576 174.562 27.2929V27.2927V27.2925V27.2923V27.292V27.2918V27.2916V27.2914V27.2912C174.57 26.6987 174.577 26.1339 174.543 25.5717C174.499 24.8543 174.787 24.6562 175.472 24.6664C176.472 24.6814 177.472 24.6687 178.472 24.6559L178.472 24.6559C179.183 24.6469 179.894 24.6378 180.605 24.6387C181.657 24.6401 182.155 25.1311 182.214 26.2123C182.237 26.644 182.231 27.0773 182.225 27.5157V27.5159V27.5161V27.5163V27.5165V27.5167V27.5169V27.5171C182.222 27.7156 182.22 27.9152 182.22 28.1161H185.916C185.866 27.6185 185.89 27.108 185.913 26.6016V26.6015V26.6014V26.6013V26.6011V26.601V26.6009V26.6008V26.6006C185.981 25.1455 186.046 23.7246 184.376 22.7425C185.489 22.3461 185.898 21.3925 186 20.3497C186.104 19.2942 186.139 18.1982 185.973 17.1568C185.649 15.1287 184.938 14.4741 182.848 14.3265C181.314 14.2181 179.774 14.1964 178.196 14.1742ZM180.143 21.2011C180.009 21.204 179.876 21.2068 179.743 21.2089L174.644 21.209V17.7009C175.283 17.7009 175.922 17.6958 176.561 17.6907C178.118 17.6783 179.673 17.666 181.225 17.7274C182.247 17.7679 182.46 18.3301 182.405 19.8171C182.371 20.7409 181.948 21.1944 181.024 21.19C180.73 21.1887 180.436 21.1949 180.143 21.2011ZM147.039 34.7491L147.038 34.7487C146.785 34.6011 146.537 34.4568 146.527 34.2981C146.485 33.5988 146.491 32.8966 146.497 32.1731C146.499 31.9152 146.501 31.6546 146.501 31.3904H163.943V34.8066H157.437V45.8554H153.116V34.8354C151.103 34.8354 149.194 34.8354 147.184 34.8351C147.137 34.8064 147.088 34.7778 147.039 34.7494L147.039 34.7491ZM133.062 31.3978L133.062 42.5692L133.062 45.8315H147.466V42.3562H137.398V31.3978H133.062ZM140.35 24.8058L140.35 17.7222H135.053V14.2471H149.384V17.6277H144.162V28.1096H140.35L140.35 24.8058ZM128.993 14.2539L128.993 16.4677L128.993 28.1056H132.616V14.2539H128.993ZM45.5677 44.3893L33.1546 31.6553H46.3167C49.6554 32.1689 50.2761 34.3662 50.1691 35.4006V45.7804C48.2857 45.9517 46.6378 45.4594 45.5677 44.3893ZM31.0255 31.6553L18.6125 44.3893C17.5424 45.4594 15.8945 45.9517 14.0111 45.7804V35.4006C13.9041 34.3662 14.5248 32.1689 17.8634 31.6553H31.0255ZM45.5677 15.7443L33.1546 28.4783H46.3167C49.6554 27.9647 50.2761 25.7674 50.1691 24.733V14.3531C48.2857 14.1819 46.6378 14.6742 45.5677 15.7443ZM31.0255 28.4783L18.6125 15.7443C17.5424 14.6742 15.8945 14.1819 14.0111 14.3531V24.733C13.9041 25.7674 14.5248 27.9647 17.8634 28.4783H31.0255Z" fill="white" fill-opacity="0.8"/>
</svg>
