<svg width="200" height="60" viewBox="0 0 200 60" fill="none" xmlns="http://www.w3.org/2000/svg">
<path fill-rule="evenodd" clip-rule="evenodd" d="M42.9856 8V8.0079H43.2696L43.5536 8.01579L43.8376 8.02369L44.1137 8.03948L44.3977 8.04737L44.6738 8.07106L44.9499 8.09474H44.9578L45.2339 8.11843L45.51 8.15001L45.7861 8.18159L46.0543 8.22107H46.0622L46.3304 8.26054L46.6065 8.30002L46.8747 8.34739L47.1429 8.40266L47.4111 8.45003L47.6793 8.51319L47.9476 8.56846L48.2158 8.63162L48.4761 8.70267L48.7443 8.76584L49.0046 8.84479L49.265 8.91584L49.5253 8.9948L49.7777 9.07375L50.038 9.1606L50.2905 9.24744L50.5429 9.34219L50.7954 9.43693L51.0478 9.53167L51.2923 9.63431L51.5448 9.73695L51.7893 9.83958L52.0339 9.95012L52.2784 10.0606L52.5151 10.1712L52.7517 10.2896L52.9963 10.4159L53.2251 10.5344L53.4617 10.6607L53.6984 10.787L53.9271 10.9212L54.1559 11.0554L54.3847 11.1897L54.6056 11.3318L54.8343 11.4739L55.0552 11.616L55.2761 11.766L55.4891 11.916L55.71 12.066L55.923 12.216L56.136 12.3739L56.349 12.5318L56.5541 12.6976L56.7592 12.8634L56.9643 13.0292L57.1694 13.195L57.3666 13.3687L57.5638 13.5424L57.761 13.7161L57.9582 13.8977L58.1476 14.0793L58.3369 14.2609L58.5262 14.4425L58.5814 14.5057C59.7016 15.6347 60.6956 16.8821 61.5555 18.2322L61.7527 18.5401C62.2339 18.4848 62.723 18.4533 63.2278 18.4533C66.2019 18.4533 68.7262 19.4875 70.8009 21.564C72.8756 23.6325 73.9169 26.2142 73.9169 29.3092C73.9169 32.4515 72.8914 35.0332 70.8325 37.0702C68.7735 39.0992 66.2413 40.1177 63.2278 40.1177C62.9912 40.1177 62.7466 40.1098 62.5179 40.094L62.4626 40.1888L62.4153 40.2835L62.368 40.3783L62.3128 40.473L62.2654 40.5677L62.2102 40.6625L62.1629 40.7493L62.1077 40.8441L62.0524 40.9388L62.0051 41.0336L61.9499 41.1204L61.8947 41.2151L61.8394 41.302L61.7842 41.3967L61.729 41.4836L61.6738 41.5783L61.6186 41.6652L61.5633 41.7599L61.5081 41.8468L61.445 41.9336L61.3898 42.0284L61.3346 42.1152H61.3267L61.2715 42.202L61.2162 42.2889L61.1531 42.3836L61.09 42.4705L61.0348 42.5573L60.9717 42.6442L60.9086 42.731L60.8534 42.8179L60.7903 42.8968L60.7271 42.9837L60.664 43.0705L60.6009 43.1574L60.5378 43.2442L60.4747 43.3232L60.4037 43.41L60.3406 43.4969L60.2775 43.5758L60.2144 43.6627L60.1434 43.7416L60.0803 43.8285L60.0093 43.9074L59.9462 43.9943L59.8752 44.0732L59.8121 44.1522L59.7411 44.239L59.6701 44.318L59.607 44.3969L59.536 44.4759L59.465 44.5548L59.394 44.6338L59.323 44.7127L59.252 44.7917L59.181 44.8706L59.11 44.9496L59.039 45.0206L58.968 45.0996L58.897 45.1785L58.8181 45.2575L58.7471 45.3285L58.6761 45.4075L58.5972 45.4865L58.5262 45.5575L58.3369 45.7391L58.1476 45.9286L57.9582 46.1102L57.761 46.2839L57.5638 46.4576L57.3666 46.6313V46.6392L57.1694 46.805L56.9643 46.9786L56.7592 47.1444L56.5541 47.3102L56.3411 47.4682L56.136 47.6261L55.923 47.784L55.71 47.9419L55.4891 48.0919L55.2761 48.2419L55.0552 48.3919L54.8343 48.534L54.6056 48.6761L54.3847 48.8103L54.1559 48.9524L53.9271 49.0788L53.6905 49.213L53.4617 49.3393L53.2251 49.4656L52.9884 49.592L52.7517 49.7104C52.594 49.7893 52.4362 49.8683 52.2784 49.9394L52.0339 50.0499L51.7893 50.1604L51.5448 50.271L51.2923 50.3736L51.0478 50.4683L50.7954 50.571L50.5429 50.6657L50.2905 50.7526L50.038 50.8394L49.7777 50.9263L49.5253 51.0052L49.265 51.0842L49.0046 51.1631L48.7443 51.2342L48.4761 51.3052L48.2158 51.3684L47.9476 51.4315L47.6872 51.4947L47.419 51.55L47.1508 51.6052L46.8747 51.6526L46.6065 51.7L46.3304 51.7395L46.0622 51.7789L45.7861 51.8184L45.51 51.85L45.2339 51.8816L44.9578 51.9053L44.6817 51.9289H44.6738L44.3977 51.9526L44.1216 51.9684L43.8376 51.9763L43.5536 51.9921H43.2696H42.9856V52H42.9777V51.9921C36.9114 51.9921 31.413 49.5367 27.4371 45.5575L27.2557 45.368L27.0742 45.1785L26.8928 44.9891L26.7114 44.7917L26.5378 44.5943L26.3643 44.3969L26.1907 44.1995L26.0172 43.9943L25.8515 43.789L25.6937 43.5837L25.5281 43.3784L25.3703 43.1653L25.2125 42.9521L25.0548 42.7389L24.9049 42.5179L24.755 42.3047L24.613 42.0836L24.471 41.8626L24.329 41.6336L24.187 41.4125L24.0529 41.1836L23.9188 40.9546L23.7847 40.7256L23.6585 40.4888L23.5323 40.2519L23.4139 40.023L23.2877 39.7782L23.1694 39.5414L23.0589 39.3045L22.9485 39.0598L22.8381 38.815L22.7355 38.5703L22.6329 38.3176L22.5304 38.0729L22.4357 37.8202L22.3411 37.5676L22.2464 37.3149L22.1596 37.0623L22.0729 36.8017L21.994 36.5491L21.9151 36.2885L21.8362 36.028L21.7652 35.7674L21.7021 35.499H21.6942L21.6311 35.2385L21.568 34.97L21.5128 34.7095L21.4497 34.4411L21.4023 34.1726L21.3471 33.8963L21.2998 33.6278L21.2603 33.3594L21.2209 33.0831L21.1814 32.8067L21.1499 32.5304L21.1183 32.2541L21.0947 31.9778L21.071 31.7014L21.0473 31.4172L21.0316 31.1409L21.0237 30.8566L21.0158 30.5724L21.0079 30.2882V30.0039H21V29.9961H21.0079V29.7118L21.0158 29.4276L21.0237 29.1513L21.0316 28.867L21.0473 28.5828L21.071 28.3065L21.0947 28.0301L21.1183 27.7459L21.1499 27.4696L21.1814 27.1933L21.2209 26.9248L21.2603 26.6485L21.2998 26.3722L21.3471 26.1037L21.4023 25.8353L21.4497 25.5668L21.5128 25.2984L21.568 25.03L21.6311 24.7615L21.6942 24.501L21.7652 24.2325L21.8362 23.972L21.9151 23.7115L21.994 23.4588L22.0729 23.1983L22.1596 22.9377L22.2464 22.6851L22.3411 22.4324L22.4357 22.1798L22.5304 21.9271L22.6329 21.6824L22.7355 21.4298L22.8381 21.1929L22.9485 20.9481L23.0589 20.7034L23.1694 20.4586L23.2877 20.2218L23.4139 19.9849L23.5323 19.7481L23.6585 19.5112L23.7847 19.2823L23.9188 19.0454L24.0529 18.8164L24.187 18.5875L24.329 18.3664L24.471 18.1374L24.613 17.9164L24.7629 17.6953L24.9049 17.4821L25.0548 17.2611L25.2125 17.0479L25.3703 16.8347L25.5281 16.6295L25.6937 16.4163L25.8594 16.211L26.0251 16.0057L26.1907 15.8005L26.3643 15.6031L26.5378 15.4057L26.7114 15.2083L26.8928 15.0109L27.0742 14.8215L27.2557 14.632L27.4371 14.4425L27.6264 14.2609L27.8158 14.0793L28.0051 13.8977L28.2023 13.7161L28.3995 13.5424L28.5968 13.3687L28.794 13.195L28.9991 13.0214L29.2042 12.8634L29.4093 12.6976L29.6223 12.5318L29.8274 12.3739L30.0404 12.216L30.2534 12.0581L30.4742 11.9081L30.6872 11.7581L30.9081 11.616L31.1369 11.4739L31.3578 11.3318L31.5787 11.1897L31.8074 11.0554L32.0362 10.9212L32.2729 10.787L32.5016 10.6607L32.7383 10.5344L32.9749 10.4159L33.2116 10.2896L33.4483 10.1712L33.6928 10.0606L33.9374 9.95012L34.174 9.83958H34.1819L34.4186 9.73695L34.671 9.63431L34.9155 9.53167L35.168 9.43693L35.4204 9.34219L35.6729 9.24744L35.9253 9.1606L36.1856 9.07375L36.4459 8.9948L36.6984 8.91584L36.9587 8.84479L37.219 8.76584L37.4872 8.70267L37.7476 8.63162L38.0158 8.56846L38.284 8.51319L38.5443 8.45003L38.8125 8.40266L39.0886 8.34739L39.3568 8.30002L39.6329 8.26054L39.9012 8.22107L40.1773 8.18159L40.4534 8.15001L40.7295 8.11843L41.0056 8.09474L41.2817 8.07106H41.2896L41.5657 8.04737L41.8497 8.03948L42.1258 8.02369L42.4097 8.01579L42.6937 8.0079H42.9777V8H42.9856ZM24.1318 27.3117H28.51V19.5823H39.3963V27.3117H41.5735V19.5823H52.4599V29.1907H23.9661L23.9582 29.2618L23.9503 29.5065L23.9425 29.7513V29.9961H23.9503V30.0039H23.9425V30.2487L23.9503 30.4935L23.9582 30.7382L23.9661 30.8093H52.4599V40.4177H41.5735V32.6883H39.3963V40.4177H28.51V32.6883H24.1318L24.1633 32.9015L24.2028 33.1383L24.2422 33.3752L24.2896 33.6042L24.329 33.841L24.3842 34.07L24.4316 34.2989L24.4868 34.5279L24.542 34.7648L24.6051 34.9858L24.6682 35.2148L24.7313 35.4437L24.8023 35.6648L24.8733 35.8859L24.9443 36.1069L25.0232 36.328L25.1021 36.5491L25.181 36.7701L25.2677 36.9833L25.3545 37.1965L25.4413 37.4097V37.4175L25.536 37.6228L25.6306 37.836L25.7253 38.0492L25.8278 38.2544L25.9225 38.4676L26.0329 38.6729L26.1355 38.8782L26.2459 39.0755L26.3564 39.2808L26.4668 39.4782L26.5852 39.6756L26.7035 39.873L26.8218 40.0703L26.948 40.2677L27.0742 40.4572L27.2005 40.6467L27.3267 40.8362L27.4608 41.0257L27.5949 41.2073L27.729 41.3967L27.871 41.5783L28.0051 41.7599L28.1471 41.9336L28.297 42.1152L28.439 42.2889L28.5889 42.4626L28.7387 42.6363L28.8965 42.81L29.0464 42.9758L29.2042 43.1416L29.3619 43.3074L29.5276 43.4653L29.6854 43.6311L29.851 43.789L30.0167 43.9469L30.1824 44.0969L30.3559 44.2548L30.5295 44.4048L30.703 44.5548L30.8766 44.6969L31.058 44.8469L31.2316 44.9891L31.413 45.1233L31.5944 45.2654L31.7838 45.3996L31.9652 45.5338L32.1545 45.668L32.3439 45.7944L32.5332 45.9286L32.7304 46.047L32.9197 46.1733L33.1169 46.2918L33.3142 46.4102L33.5114 46.5286L33.7086 46.6392L33.9137 46.7497L34.1188 46.8602L34.3239 46.9708L34.529 47.0734L34.7341 47.176L34.9392 47.2708L35.1522 47.3734L35.3652 47.4603L35.5782 47.555L35.7912 47.6418L36.0042 47.7287L36.2251 47.8155L36.4381 47.8945L36.6589 47.9734L36.8798 48.0524L37.1007 48.1235L37.3216 48.1945L37.5503 48.2656L37.7712 48.3287L38 48.3919L38.2288 48.4551L38.4575 48.5103L38.6863 48.5656L38.9151 48.6209L39.1517 48.6682L39.3805 48.7156L39.6172 48.7551L39.8459 48.7945L40.0826 48.834L40.3193 48.8656L40.5559 48.8972L40.7926 48.9288L41.0371 48.9524L41.2738 48.9761L41.5183 48.9998L41.7629 49.0156L41.9995 49.0314L42.2441 49.0393L42.4886 49.0472L42.7332 49.0551H42.9777V49.0472H42.9856V49.0551H43.2302L43.4747 49.0472L43.7193 49.0393L43.9638 49.0314L44.2084 49.0156L44.4529 48.9998L44.6896 48.9761L44.9341 48.9524L45.1708 48.9288L45.4074 48.8972L45.6441 48.8656L45.8807 48.834L46.1174 48.7945L46.3541 48.7551L46.5828 48.7156L46.8195 48.6682L47.0483 48.6209L47.277 48.5656L47.5058 48.5103L47.7346 48.4551L47.9633 48.3919L48.1921 48.3287L48.4209 48.2656L48.6418 48.1945L48.8626 48.1235L49.0835 48.0524L49.3044 47.9734L49.5253 47.8945L49.7383 47.8155L49.9592 47.7287L50.1722 47.6418L50.3851 47.555L50.5981 47.4603L50.8111 47.3655L51.0241 47.2708L51.2292 47.176L51.4343 47.0734L51.6473 46.9708L51.8524 46.8602L52.0497 46.7497L52.2548 46.6392L52.452 46.5286L52.6492 46.4102L52.8464 46.2918L53.0436 46.1733L53.2408 46.047L53.4302 45.9286L53.6195 45.7944L53.8088 45.668L53.9981 45.5338L54.1796 45.3996L54.3689 45.2654L54.5503 45.1233L54.7318 44.9891L54.9053 44.8469L55.0868 44.6969L55.2603 44.5548L55.4339 44.4048L55.6074 44.2548L55.7731 44.0969H55.781L55.9466 43.9469L56.1123 43.789L56.278 43.6311L56.4357 43.4653L56.491 43.4179C57.5954 42.2968 58.6524 40.8914 59.465 39.5256L59.4807 39.5098C58.0371 39.0045 56.7513 38.1834 55.6153 37.0544C53.5722 35.0095 52.5466 32.4278 52.5466 29.3092C52.5466 26.1985 53.5722 23.6088 55.6311 21.5482C56.5777 20.6008 57.619 19.8665 58.7629 19.3533C58.6051 19.1086 58.4316 18.8717 58.2501 18.6348C57.69 17.9085 57.0589 17.1663 56.5225 16.6137L56.4831 16.5742L56.4357 16.5347L56.278 16.3689L56.1123 16.211L55.9466 16.061L55.781 15.9031L55.6074 15.7531L55.4339 15.5952L55.2603 15.4531L55.0868 15.3031L54.9132 15.161L54.7318 15.0188L54.5503 14.8767L54.3689 14.7346L54.1796 14.6004L53.9981 14.4662L53.8088 14.332L53.6195 14.2056L53.4302 14.0793L53.2408 13.953L53.0436 13.8267L52.8464 13.7082L52.6492 13.5898L52.452 13.4714L52.2548 13.3608L52.0497 13.2503L51.8524 13.1398L51.6473 13.0371L51.4422 12.9266H51.4343L51.2292 12.8319L51.0241 12.7292L50.8111 12.6345L50.5981 12.5397L50.3851 12.445L50.1722 12.3582L49.9592 12.2713L49.7383 12.1845L49.5253 12.1055L49.3044 12.0266L49.0835 11.9476L48.8626 11.8765L48.6418 11.8055L48.413 11.7344L48.1921 11.6713L47.9633 11.6081L47.7346 11.5449L47.5058 11.4897L47.277 11.4344L47.0483 11.387L46.8195 11.3318L46.5828 11.2923L46.3462 11.2449L46.1174 11.2055L45.8807 11.166L45.6441 11.1344L45.4074 11.1028L45.1708 11.0712L44.9262 11.0476L44.6896 11.0239L44.445 11.0002L44.2084 10.9844L43.9638 10.9765L43.7193 10.9607L43.4747 10.9528H43.2302L42.9856 10.9449V10.9528H42.9777V10.9449L42.7332 10.9528H42.4886L42.2441 10.9607L41.9995 10.9765L41.755 10.9844L41.5183 11.0002L41.2738 11.0239L41.0371 11.0476L40.7926 11.0712L40.5559 11.1028L40.3193 11.1344L40.0826 11.166L39.8459 11.2055L39.6093 11.2449L39.3805 11.2923L39.1439 11.3318L38.9151 11.387L38.6863 11.4344L38.4575 11.4897L38.2288 11.5528L38 11.6081L37.7712 11.6713L37.5503 11.7344L37.3216 11.8055L37.1007 11.8765L36.8798 11.9476L36.6589 12.0266L36.4381 12.1055L36.2251 12.1845L36.0042 12.2713L35.7912 12.3582L35.5782 12.445L35.3652 12.5397L35.1522 12.6345L34.9392 12.7292L34.7341 12.8319L34.529 12.9266L34.3239 13.0371L34.1188 13.1398L33.9137 13.2503L33.7086 13.3608L33.5114 13.4714L33.3142 13.5898L33.1169 13.7082L32.9197 13.8267L32.7304 13.953L32.5332 14.0793L32.3439 14.2056L32.1545 14.332L31.9652 14.4662L31.7838 14.6004L31.5944 14.7346L31.413 14.8767L31.2316 15.0109L31.058 15.1531V15.161L30.8766 15.3031L30.703 15.4452L30.5295 15.5952L30.3559 15.7452L30.1903 15.9031L30.0167 16.0531L29.851 16.211L29.6933 16.3689L29.5276 16.5347L29.3619 16.6926L29.2042 16.8584L29.0543 17.0242L28.8965 17.19L28.7387 17.3637L28.5889 17.5374L28.439 17.7111L28.297 17.8848L28.155 18.0664L28.0051 18.2401L27.871 18.4217L27.729 18.6033L27.5949 18.7928L27.4608 18.9743L27.3267 19.1638L27.2005 19.3533L27.0742 19.5428L26.948 19.7402L26.8218 19.9297L26.7035 20.127L26.5852 20.3244L26.4668 20.5218L26.3564 20.7192L26.2459 20.9245L26.1355 21.1297L26.0329 21.335L25.9225 21.5403L25.8278 21.7456L25.7253 21.9587L25.6306 22.164L25.536 22.3772L25.4413 22.5903L25.3545 22.8035L25.2677 23.0167L25.181 23.2378L25.1021 23.4509L25.0232 23.672L24.9443 23.8931L24.8733 24.1141L24.8023 24.3352L24.7313 24.5641L24.6682 24.7852L24.6051 25.0142L24.542 25.2431L24.4868 25.4721L24.4316 25.7011L24.3842 25.93L24.329 26.1669L24.2896 26.3958L24.2422 26.6327L24.2028 26.8617L24.1633 27.0985L24.1318 27.3117ZM68.7025 29.3092C68.7025 27.7222 68.1661 26.3722 67.1012 25.251C66.0283 24.1378 64.7346 23.5851 63.2278 23.5851C61.729 23.5851 60.4432 24.1457 59.3782 25.2668C58.3211 26.3958 57.7847 27.7459 57.7847 29.3092C57.7847 30.8645 58.3211 32.1988 59.3782 33.3278C60.4432 34.449 61.729 35.0174 63.2278 35.0174C64.7188 35.0174 65.9967 34.449 67.0854 33.3278C68.1661 32.1988 68.7025 30.8645 68.7025 29.3092ZM89.5759 33.5331C89.5759 35.4911 88.9132 36.9754 87.58 38.0018C86.4046 38.9255 84.8506 39.3913 82.9179 39.3913H74.8715V19.0849H82.342C85.9471 19.0849 87.7536 20.9087 87.7536 24.5484C87.7536 26.38 87.0515 27.7143 85.6394 28.5591C88.2664 29.0802 89.5759 30.7382 89.5759 33.5331ZM83.1782 25.0931C83.1782 24.2247 82.7995 23.6562 82.0501 23.372C81.6083 23.1904 80.8826 23.0956 79.8807 23.0956V27.0827C80.922 27.0827 81.6478 27.0038 82.0501 26.838C82.7995 26.5537 83.1782 25.9774 83.1782 25.0931ZM84.5114 33.1778C84.5114 32.2304 84.1327 31.6067 83.3833 31.3067C82.9415 31.1251 82.1684 31.0303 81.064 31.0303H79.8807V35.2858H81.0088C83.3438 35.2858 84.5114 34.5832 84.5114 33.1778ZM111.932 29.3092C111.932 32.4515 110.907 35.0332 108.848 37.0702C106.789 39.0992 104.257 40.1177 101.251 40.1177C98.2139 40.1177 95.6817 39.0913 93.6306 37.0544C91.5875 35.0095 90.5619 32.4278 90.5619 29.3092C90.5619 26.1985 91.5875 23.6088 93.6464 21.5482C95.7053 19.4875 98.2376 18.4533 101.251 18.4533C104.217 18.4533 106.742 19.4875 108.816 21.564C110.891 23.6325 111.932 26.2142 111.932 29.3092ZM106.718 29.3092C106.718 27.7222 106.181 26.3722 105.116 25.251C104.044 24.1378 102.75 23.5851 101.251 23.5851C99.7443 23.5851 98.4585 24.1457 97.3935 25.2668C96.3364 26.3958 95.8079 27.7459 95.8079 29.3092C95.8079 30.8645 96.3364 32.1988 97.3935 33.3278C98.4585 34.449 99.7443 35.0174 101.251 35.0174C102.734 35.0174 104.02 34.449 105.101 33.3278C106.181 32.1988 106.718 30.8645 106.718 29.3092ZM124.554 39.3913H113.581V19.0849H124.554V23.5536H118.59V26.9327H124.239V31.3935H118.59V34.9227H124.554V39.3913ZM136.236 29.3249H133.696V38.7281H129.255V29.3249H127.748V25.3931H129.255V21.4139H133.696V25.3931H136.236V29.3249ZM150.333 32.933H140.922C140.961 34.9305 141.884 35.9332 143.683 35.9332C144.622 35.9332 145.332 35.5068 145.836 34.6541H150.136C149.71 36.1858 148.913 37.3464 147.738 38.1438C146.657 38.8781 145.324 39.2492 143.746 39.2492C141.585 39.2492 139.833 38.6333 138.492 37.4175C137.096 36.1384 136.394 34.3857 136.394 32.175C136.394 29.8854 137.064 28.109 138.413 26.8537C139.715 25.6457 141.482 25.0457 143.714 25.0457C145.915 25.0457 147.588 25.8036 148.74 27.3195C149.804 28.6933 150.333 30.5644 150.333 32.933ZM146.176 30.2012C145.852 28.7801 145.008 28.0774 143.628 28.0774C142.121 28.0774 141.261 28.7801 141.032 30.2012H146.176ZM161.874 38.4044C160.754 38.9097 159.705 39.1623 158.719 39.1623C156.762 39.1623 155.121 38.4833 153.804 37.1253C152.479 35.7674 151.816 34.0699 151.816 32.0329C151.816 29.996 152.526 28.3064 153.938 26.9721C155.303 25.6457 156.959 24.9904 158.916 24.9904C159.989 24.9904 160.983 25.2352 161.874 25.7168V29.7354C161.093 29.167 160.367 28.8906 159.697 28.8906C158.766 28.8906 157.993 29.1749 157.393 29.7433C156.786 30.3197 156.486 31.0934 156.486 32.0645C156.486 33.0119 156.778 33.7936 157.362 34.4015C157.946 35.0173 158.695 35.3173 159.61 35.3173C160.446 35.3173 161.204 35.0173 161.874 34.4173V38.4044ZM177.675 38.7281H173.21C173.21 38.4754 173.249 37.7649 173.336 36.6122C173.415 35.4595 173.462 34.5278 173.462 33.8094C173.462 30.5092 172.689 28.8591 171.143 28.8591C170.378 28.8591 169.794 29.1117 169.392 29.6012C168.998 30.0986 168.792 30.7539 168.792 31.5671V38.7281H164.351V17.1899H168.792V27.0826C169.842 25.7878 171.206 25.1325 172.902 25.1325C174.425 25.1325 175.6 25.5904 176.436 26.4905C177.265 27.3906 177.675 28.6459 177.675 30.2565V38.7281ZM155.327 48.2823H155.84C155.682 47.9349 155.58 47.6665 155.516 47.477C155.422 47.1928 155.351 46.8927 155.296 46.5769C155.24 46.2611 155.217 45.9532 155.217 45.6453C155.217 45.2111 155.264 44.8005 155.351 44.4058C155.438 44.0189 155.603 43.5452 155.848 42.9846H155.343C155.106 43.332 154.917 43.711 154.767 44.1294C154.593 44.6031 154.507 45.1005 154.507 45.6374C154.507 46.0637 154.578 46.5059 154.712 46.9638C154.854 47.4217 155.059 47.8639 155.327 48.2823ZM156.416 43.0557V47.098H157.197V45.5742H157.709C158.057 45.5742 158.333 45.5506 158.514 45.5111C158.656 45.4874 158.79 45.4163 158.924 45.3216C159.051 45.2269 159.161 45.0926 159.248 44.9268C159.335 44.7531 159.382 44.5479 159.382 44.2952C159.382 43.9794 159.303 43.7189 159.153 43.5136C159.003 43.3083 158.822 43.182 158.593 43.1188C158.451 43.0794 158.143 43.0557 157.67 43.0557H156.416ZM157.197 44.8874V43.7426H157.575C157.859 43.7426 158.041 43.7505 158.135 43.7662C158.262 43.7899 158.364 43.8531 158.451 43.9478C158.53 44.0426 158.577 44.161 158.577 44.311C158.577 44.4294 158.546 44.5321 158.483 44.6268C158.427 44.7137 158.348 44.7768 158.238 44.8242C158.135 44.8637 157.93 44.8874 157.623 44.8874H157.197ZM159.658 44.1689L160.786 47.098H161.457L162.569 44.1689H161.804L161.275 45.6611C161.244 45.7479 161.22 45.8269 161.196 45.9137C161.18 45.9532 161.157 46.0322 161.117 46.1664L160.96 45.6611L160.431 44.1689H159.658ZM164.304 44.7847V44.1689H163.799V43.1346L163.058 43.5926V44.1689H162.719V44.7847H163.058V46.0637C163.058 46.3322 163.066 46.5217 163.082 46.6085C163.097 46.7348 163.137 46.8375 163.184 46.9085C163.232 46.9875 163.31 47.0428 163.421 47.0901C163.523 47.1375 163.65 47.1612 163.784 47.1612C163.997 47.1612 164.194 47.1217 164.367 47.0428L164.304 46.4427C164.178 46.498 164.076 46.5217 164.005 46.5217C163.957 46.5217 163.918 46.5059 163.878 46.4822C163.847 46.4585 163.823 46.4269 163.815 46.3875C163.807 46.348 163.799 46.2059 163.799 45.969V44.7847H164.304ZM164.825 46.3243V47.098H165.567V46.3243H164.825ZM166.426 47.5323C166.363 47.706 166.269 47.9586 166.119 48.2823H166.632C166.931 47.8007 167.152 47.3191 167.278 46.8296C167.397 46.3875 167.46 45.9769 167.46 45.59C167.46 45.14 167.381 44.69 167.239 44.2479C167.089 43.8057 166.884 43.3873 166.616 42.9846H166.111C166.355 43.5452 166.521 44.0189 166.608 44.4058C166.702 44.8005 166.742 45.2111 166.742 45.6453C166.742 45.8664 166.734 46.0795 166.702 46.2769C166.679 46.4822 166.647 46.7033 166.592 46.9243C166.545 47.1533 166.49 47.3586 166.426 47.5323ZM169.653 43.0873V47.098H172.374V46.4111H170.434V43.0873H169.653ZM174.212 44.7847V44.1689H173.708V43.1346L172.966 43.5926V44.1689H172.619V44.7847H172.966V46.0637C172.966 46.3322 172.974 46.5217 172.982 46.6085C173.006 46.7348 173.037 46.8375 173.092 46.9085C173.14 46.9875 173.219 47.0428 173.329 47.0901C173.432 47.1375 173.558 47.1612 173.692 47.1612C173.905 47.1612 174.102 47.1217 174.276 47.0428L174.212 46.4427C174.078 46.498 173.984 46.5217 173.913 46.5217C173.865 46.5217 173.818 46.5059 173.786 46.4822C173.755 46.4585 173.731 46.4269 173.723 46.3875C173.708 46.348 173.708 46.2059 173.708 45.969V44.7847H174.212ZM176.611 47.098H177.297V43.0557H176.555V44.5084C176.327 44.24 176.058 44.1057 175.743 44.1057C175.404 44.1057 175.12 44.2321 174.899 44.4926C174.67 44.7453 174.56 45.1242 174.56 45.6216C174.56 46.1032 174.678 46.4822 174.907 46.7506C175.135 47.027 175.412 47.1612 175.735 47.1612C175.893 47.1612 176.051 47.1217 176.208 47.0428C176.358 46.9559 176.5 46.8375 176.611 46.6638V47.098ZM175.443 46.2453C175.364 46.1111 175.317 45.8822 175.317 45.5664C175.317 45.2821 175.38 45.0611 175.498 44.9189C175.617 44.7689 175.767 44.6979 175.94 44.6979C176.122 44.6979 176.271 44.7689 176.39 44.9189C176.5 45.069 176.555 45.3058 176.555 45.6453C176.555 45.9453 176.5 46.1743 176.382 46.3243C176.264 46.4743 176.114 46.5533 175.948 46.5533C175.727 46.5533 175.561 46.4506 175.443 46.2453ZM178.031 46.3243V47.098H178.772V46.3243H178.031Z" fill="white" fill-opacity="0.4"/>
</svg>
