<svg width="200" height="60" viewBox="0 0 200 60" fill="none" xmlns="http://www.w3.org/2000/svg">
<path fill-rule="evenodd" clip-rule="evenodd" d="M152.833 6.35589C151.942 6.12913 151.004 6.17216 150.138 6.4795V2.00011H153.341C154.418 1.9943 155.483 2.22158 156.463 2.66624C157.443 3.11091 158.314 3.76236 159.017 4.57561C160.243 6.05877 160.934 7.90991 160.979 9.83175L161.36 21.6989C161.348 23.0389 161.799 24.3421 162.636 25.3899C163.217 26.0611 163.936 26.5987 164.745 26.9657C165.554 27.3327 166.433 27.5204 167.322 27.5157V32.3689C165.671 32.4137 164.097 33.0743 162.912 34.2202C161.459 35.7211 161.301 37.806 161.155 39.78C160.985 42.2037 160.985 44.639 160.985 47.0685C160.985 50.7945 160.914 55.0286 157.166 57.0435C155.058 58.1823 152.527 58.0538 150.138 57.902V53.4109C151.596 53.8898 153.494 53.738 154.665 52.7218C156.112 51.4954 156.205 49.4513 156.112 47.6993C155.933 45.3354 155.933 42.9615 156.112 40.5976C156.428 37.2454 157.271 33.4026 160.094 31.2534C160.514 30.9367 160.956 30.6516 161.418 30.4007C161.45 30.3838 161.502 30.3527 161.567 30.3141C161.837 30.1539 162.325 29.8642 162.466 29.916C160.877 29.3001 159.475 28.2838 158.398 26.9665C157.32 25.6492 156.603 24.0758 156.317 22.3997C155.969 20.4626 156.018 18.4514 156.066 16.4642C156.083 15.7734 156.1 15.0855 156.1 14.4046V10.7078C156.141 9.64044 155.8 8.59337 155.14 7.75265C154.527 7.06892 153.724 6.58265 152.833 6.35589ZM47.5064 6.35706C48.3971 6.13034 49.3353 6.17297 50.2016 6.47951V2.00012H46.9803C45.9046 1.99399 44.8404 2.22115 43.8614 2.66586C42.8825 3.11058 42.0122 3.76222 41.3109 4.57563C40.082 6.05739 39.3907 7.9094 39.3488 9.83176L38.9623 21.6989C38.9739 23.0389 38.5231 24.3421 37.6855 25.3899C37.1054 26.0614 36.386 26.5992 35.577 26.9663C34.7681 27.3333 33.8888 27.5208 33 27.5157V32.3689C34.6547 32.4108 36.2332 33.0716 37.4219 34.2202C38.8803 35.7211 39.0384 37.8061 39.179 39.78C39.3547 42.2037 39.3547 44.639 39.3547 47.0685C39.3488 50.7945 39.4191 55.0287 43.1675 57.0435C45.276 58.1823 47.812 58.0539 50.1958 57.902V53.4109C48.7433 53.8898 46.8691 53.738 45.6684 52.7218C44.2276 51.4954 44.1281 49.4513 44.2276 47.6993C44.4033 45.3353 44.4033 42.9616 44.2276 40.5977C43.9113 37.2454 43.0621 33.4026 40.2449 31.2534C39.821 30.9375 39.3747 30.6525 38.9096 30.4008C38.8781 30.384 38.8267 30.3534 38.7628 30.3155L38.7626 30.3154L38.7625 30.3153C38.4929 30.1554 38.0021 29.8641 37.8553 29.916C39.4484 29.3035 40.8545 28.2887 41.9356 26.971C43.0168 25.6533 43.736 24.0781 44.0226 22.3998C44.3703 20.4626 44.3213 18.4515 44.2729 16.4642C44.2561 15.7734 44.2393 15.0855 44.2393 14.4046V10.7078C44.2044 9.64123 44.5441 8.59599 45.1999 7.75267C45.8128 7.06958 46.6157 6.58377 47.5064 6.35706ZM51.0864 28.6137H48.8139V12.6584H52.6794C53.4952 12.6568 54.3032 12.8159 55.0571 13.1265C55.811 13.437 56.496 13.893 57.0728 14.4681C57.6496 15.0433 58.1068 15.7263 58.4183 16.4781C58.7297 17.2299 58.8893 18.0355 58.8877 18.8489C58.8893 19.6629 58.7298 20.4691 58.4185 21.2215C58.1072 21.974 57.6502 22.6578 57.0735 23.2339C56.4969 23.81 55.8119 24.267 55.058 24.5788C54.304 24.8907 53.4957 25.0512 52.6794 25.0512H51.0864V28.6137ZM51.0864 22.7735H52.6912C53.7412 22.7735 54.7483 22.3576 55.4908 21.6172C56.2333 20.8768 56.6504 19.8726 56.6504 18.8256C56.6442 17.7809 56.2249 16.7809 55.4836 16.0428C54.7423 15.3047 53.7388 14.8881 52.6912 14.8835H51.0864V22.7735ZM64.5917 19.4563C63.9885 19.4563 63.3913 19.5754 62.8346 19.8067C62.6273 19.8889 62.4275 19.9885 62.2372 20.1046V19.4446H60.076V28.5961H62.2372V23.8656C62.2214 23.5735 62.2862 23.2826 62.4246 23.0246C62.5416 22.7532 62.7107 22.5072 62.9224 22.3005C63.1401 22.0839 63.3963 21.9096 63.678 21.7865C63.9662 21.6616 64.2774 21.5979 64.5917 21.5996V19.4563ZM66.6122 27.2644C66.1817 26.8426 65.8398 26.3395 65.6064 25.7845C65.373 25.2295 65.2527 24.6337 65.2527 24.0319C65.2527 23.4301 65.373 22.8343 65.6064 22.2793C65.8398 21.7243 66.1817 21.2212 66.6122 20.7994C67.2543 20.1623 68.071 19.7287 68.9597 19.5534C69.8483 19.378 70.769 19.4687 71.6061 19.8139C72.4432 20.1591 73.1591 20.7435 73.6639 21.4936C74.1687 22.2436 74.4397 23.1257 74.4428 24.029C74.4464 24.9352 74.1796 25.822 73.6762 26.5766C73.1728 27.3311 72.4557 27.9193 71.616 28.2662C70.7764 28.6131 69.8523 28.7031 68.9612 28.5247C68.0702 28.3463 67.2525 27.9076 66.6122 27.2644ZM68.1408 22.3295C67.8101 22.6668 67.5861 23.0937 67.4967 23.557C67.4073 24.0203 67.4565 24.4995 67.6381 24.9352C67.8197 25.3708 68.1258 25.7436 68.5182 26.0072C68.9106 26.2708 69.3721 26.4135 69.8452 26.4176C70.4836 26.4176 71.0959 26.1647 71.5473 25.7146C71.9987 25.2644 72.2524 24.6539 72.2524 24.0173C72.2524 23.3807 71.9987 22.7702 71.5473 22.32C71.0959 21.8699 70.4836 21.617 69.8452 21.617C69.5275 21.6143 69.2126 21.6761 68.9196 21.7986C68.6266 21.9211 68.3616 22.1017 68.1408 22.3295ZM83.0468 34.0449C84.2181 33.0326 84.8038 31.5297 84.8038 29.5363L84.8448 24.029C84.8448 23.4277 84.7261 22.8323 84.4953 22.2768C84.2645 21.7213 83.9263 21.2166 83.4999 20.7914C83.0735 20.3662 82.5673 20.029 82.0102 19.7989C81.4531 19.5688 80.856 19.4503 80.253 19.4503C79.65 19.4503 79.0529 19.5688 78.4958 19.7989C77.9387 20.029 77.4326 20.3662 77.0062 20.7914C76.5798 21.2166 76.2415 21.7213 76.0108 22.2768C75.78 22.8323 75.6613 23.4277 75.6613 24.029C75.672 25.2416 76.1598 26.4015 77.0197 27.2589C77.8796 28.1164 79.0428 28.6028 80.2589 28.6135C81.1157 28.6251 81.9576 28.3899 82.6836 27.9361V29.5246C82.6641 30.9184 82.2737 31.9132 81.5123 32.5089C81.0925 32.8387 80.5765 33.0232 80.0422 33.0345V34.1208V35.2129C81.1551 35.2128 82.2275 34.796 83.0468 34.0449ZM77.9477 23.1046C78.0834 22.8084 78.2778 22.5427 78.5194 22.3237C78.7391 22.0828 79.0055 21.8889 79.3025 21.7536C79.5996 21.6184 79.921 21.5447 80.2475 21.537C80.5739 21.5293 80.8985 21.5877 81.2016 21.7087C81.5047 21.8297 81.7801 22.0108 82.011 22.241C82.2419 22.4713 82.4235 22.7458 82.5449 23.0481C82.6662 23.3504 82.7248 23.674 82.7171 23.9995C82.7093 24.325 82.6354 24.6456 82.4998 24.9418C82.3642 25.2379 82.1697 25.5036 81.9281 25.7226C81.7084 25.9635 81.442 26.1575 81.145 26.2927C80.848 26.4279 80.5265 26.5016 80.2001 26.5093C79.8736 26.5171 79.549 26.4586 79.2459 26.3376C78.9428 26.2166 78.6674 26.0355 78.4365 25.8053C78.2057 25.575 78.024 25.3005 77.9027 24.9982C77.7813 24.696 77.7227 24.3723 77.7305 24.0468C77.7382 23.7213 77.8121 23.4007 77.9477 23.1046ZM88.7395 19.8067C89.2963 19.5756 89.8934 19.4565 90.4965 19.4563V21.5996C90.1803 21.5973 89.8671 21.661 89.577 21.7865C89.2954 21.9096 89.0392 22.0839 88.8215 22.3005C88.6132 22.5088 88.4463 22.7545 88.3295 23.0246C88.1911 23.2826 88.1263 23.5735 88.1421 23.8656V28.5961H85.9809V19.4446H88.1421V20.1046C88.333 19.9897 88.5328 19.8901 88.7395 19.8067ZM95.8205 28.6137C96.6849 28.6205 97.5335 28.3837 98.2687 27.9304V28.6137H100.43V24.0292C100.387 22.8409 99.884 21.7153 99.0259 20.8897C98.1678 20.064 97.0218 19.6025 95.8293 19.6025C94.6368 19.6025 93.4908 20.064 92.6327 20.8897C91.7746 21.7153 91.2713 22.8409 91.2287 24.0292C91.2364 25.2417 91.7225 26.4025 92.5818 27.2604C93.4411 28.1184 94.6045 28.6045 95.8205 28.6137ZM93.4978 24.0067C93.482 23.3885 93.7056 22.7879 94.122 22.3297C94.5801 21.9129 95.1816 21.6879 95.8016 21.7015C96.4216 21.7151 97.0126 21.9662 97.4519 22.4027C97.8912 22.8393 98.145 23.4277 98.1608 24.0459C98.1766 24.6641 97.953 25.2646 97.5366 25.7228C97.0785 26.1397 96.477 26.3646 95.857 26.351C95.237 26.3374 94.646 26.0863 94.2067 25.6498C93.7674 25.2133 93.5136 24.6249 93.4978 24.0067ZM110.896 19.4445C111.903 19.446 112.868 19.846 113.58 20.5567C114.291 21.2673 114.691 22.2305 114.691 23.2347V28.6135H112.547V23.2347C112.553 23.0169 112.513 22.8004 112.429 22.5992C112.345 22.3979 112.22 22.2165 112.061 22.0667C111.91 21.9104 111.728 21.7872 111.526 21.7048C111.324 21.6223 111.108 21.5825 110.89 21.5878C110.452 21.5878 110.032 21.7613 109.722 22.0702C109.412 22.379 109.238 22.7979 109.238 23.2347V28.6135H107.065V23.2347C107.066 22.9092 106.969 22.5909 106.788 22.32C106.607 22.0491 106.349 21.8379 106.048 21.7129C105.746 21.5879 105.415 21.5548 105.094 21.6178C104.774 21.6808 104.48 21.837 104.248 22.0667C104.095 22.2199 103.973 22.4021 103.891 22.6026C103.808 22.8031 103.766 23.018 103.768 23.2347V28.6135H101.619V23.2347C101.619 22.2305 102.018 21.2673 102.73 20.5567C103.441 19.846 104.407 19.446 105.414 19.4445C105.927 19.434 106.436 19.5328 106.908 19.7342C107.379 19.9356 107.803 20.2351 108.149 20.6125C108.498 20.2354 108.923 19.9363 109.397 19.7349C109.87 19.5336 110.381 19.4346 110.896 19.4445ZM127.806 20.5567C127.095 19.846 126.129 19.446 125.122 19.4445C124.609 19.4354 124.099 19.5348 123.626 19.7361C123.154 19.9374 122.73 20.2361 122.381 20.6125C122.035 20.2351 121.612 19.9356 121.14 19.7342C120.668 19.5328 120.159 19.434 119.646 19.4445C118.639 19.446 117.674 19.846 116.962 20.5567C116.251 21.2673 115.851 22.2305 115.851 23.2347V28.6135H118V23.2347C117.999 23.018 118.04 22.8031 118.123 22.6026C118.205 22.4021 118.327 22.2199 118.481 22.0667C118.712 21.837 119.006 21.6808 119.327 21.6178C119.647 21.5548 119.979 21.5879 120.28 21.7129C120.582 21.8379 120.839 22.0491 121.02 22.32C121.201 22.5909 121.298 22.9092 121.298 23.2347V28.6135H123.471V23.2347C123.471 22.7979 123.645 22.379 123.954 22.0702C124.264 21.7613 124.684 21.5878 125.122 21.5878C125.56 21.5878 125.98 21.7613 126.29 22.0702C126.6 22.379 126.774 22.7979 126.774 23.2347V28.6135H128.918V23.2347C128.918 22.2305 128.518 21.2673 127.806 20.5567ZM134.711 28.6137C134.136 28.6102 133.566 28.5034 133.03 28.2983C132.478 28.0798 131.973 27.7587 131.542 27.3522C131.096 26.934 130.742 26.4292 130.499 25.8688C130.252 25.3432 130.115 24.773 130.095 24.1927V24.0467C130.096 22.8731 130.544 21.7437 131.349 20.8872C131.766 20.4367 132.275 20.0803 132.842 19.8418C133.395 19.5929 133.993 19.4579 134.599 19.4447H134.699C135.275 19.4422 135.846 19.5513 136.38 19.7659C136.92 19.9783 137.415 20.2915 137.838 20.6886C138.496 21.4002 139.001 22.2391 139.32 23.1532L133.153 25.8805C133.35 26.0345 133.566 26.1622 133.797 26.2601C134.073 26.3695 134.367 26.427 134.664 26.4295H134.763C135.065 26.4087 135.362 26.3396 135.642 26.2251C135.934 26.0899 136.2 25.904 136.427 25.6761C136.628 25.4461 136.792 25.1859 136.913 24.9052L138.951 25.6878C138.732 26.2348 138.412 26.736 138.008 27.1653C137.592 27.6126 137.088 27.9686 136.526 28.2107C135.994 28.4541 135.419 28.591 134.834 28.6137H134.711ZM134.611 21.6055C134.307 21.6331 134.011 21.7183 133.738 21.8567C133.439 21.9845 133.168 22.1712 132.942 22.4056C132.749 22.6372 132.589 22.8948 132.467 23.1707C132.372 23.4073 132.314 23.6577 132.298 23.9124L136.222 22.1954C136.026 22.0423 135.811 21.9148 135.583 21.8158C135.29 21.7032 134.978 21.6477 134.664 21.6522L134.611 21.6055ZM145.024 19.4563C144.421 19.4552 143.824 19.5744 143.267 19.8067C143.059 19.8877 142.859 19.9874 142.67 20.1046V19.4446H140.509V28.6137H142.67V23.8831C142.653 23.5916 142.715 23.3008 142.851 23.0422C142.968 22.7653 143.137 22.5135 143.349 22.3005C143.567 22.0839 143.823 21.9096 144.105 21.7865C144.395 21.661 144.708 21.5973 145.024 21.5996V19.4563ZM146.993 27.872C146.693 27.6238 146.454 27.3119 146.292 26.9591C146.13 26.6064 146.049 26.2218 146.056 25.8338H148.187C148.182 25.9641 148.221 26.0924 148.297 26.1983C148.374 26.3041 148.484 26.3814 148.609 26.4178C148.743 26.4741 148.886 26.5039 149.031 26.5054C149.252 26.5141 149.472 26.4742 149.675 26.3886C149.752 26.3554 149.819 26.3021 149.869 26.2343C149.918 26.1665 149.948 26.0867 149.956 26.0032C149.966 25.9293 149.959 25.8542 149.936 25.7834C149.912 25.7127 149.873 25.6481 149.822 25.5944C149.556 25.3998 149.237 25.2917 148.908 25.2848C148.068 25.223 147.278 24.8624 146.682 24.2686C146.228 23.7974 145.972 23.1703 145.968 22.5166C145.957 21.7542 146.235 21.0158 146.747 20.4492C147.017 20.126 147.357 19.8679 147.741 19.694C148.126 19.52 148.544 19.4348 148.966 19.4447C149.383 19.4301 149.798 19.501 150.187 19.653C150.575 19.805 150.927 20.0348 151.223 20.3283C151.518 20.6218 151.75 20.9726 151.904 21.3591C152.058 21.7455 152.13 22.1594 152.117 22.575H149.986C150.005 22.4381 149.992 22.2985 149.947 22.1677C149.902 22.0368 149.827 21.9182 149.728 21.8216C149.629 21.725 149.508 21.6529 149.376 21.6114C149.243 21.5698 149.103 21.5598 148.966 21.5822C148.381 21.5822 148.088 21.88 148.088 22.4874C148.088 22.8573 148.439 23.085 149.142 23.1707C149.606 23.1828 150.062 23.2932 150.48 23.4946C150.899 23.696 151.269 23.9837 151.567 24.3387C151.917 24.8108 152.097 25.3871 152.076 25.974C152.083 26.3366 152.005 26.6959 151.849 27.0233C151.692 27.3507 151.461 27.6373 151.174 27.8603C150.566 28.3526 149.803 28.6152 149.019 28.602C148.277 28.6104 147.558 28.3511 146.993 27.872ZM110.791 40.1421V32.7251H117.849V30.5526H108.601V46.5079H110.791V42.3263H116.238V40.1421H110.791ZM119.037 45.1646C118.601 44.7452 118.256 44.2413 118.022 43.684C117.788 43.1266 117.671 42.5274 117.678 41.9234C117.721 40.7365 118.223 39.6125 119.081 38.7879C119.938 37.9633 121.082 37.5024 122.273 37.5024C123.464 37.5024 124.608 37.9633 125.465 38.7879C126.323 39.6125 126.825 40.7365 126.868 41.9234C126.87 42.8288 126.602 43.7145 126.099 44.4681C125.595 45.2218 124.879 45.8094 124.04 46.1565C123.201 46.5037 122.278 46.5947 121.387 46.4182C120.497 46.2416 119.679 45.8053 119.037 45.1646ZM120.572 40.2297C120.347 40.4507 120.17 40.7146 120.05 41.0056C119.93 41.2966 119.87 41.6088 119.875 41.9234C119.873 42.2384 119.934 42.5507 120.053 42.8424C120.173 43.134 120.349 43.3992 120.572 43.6228C120.793 43.8485 121.059 44.027 121.352 44.1474C121.645 44.2679 121.959 44.3279 122.276 44.3237C122.592 44.3271 122.905 44.2667 123.197 44.1463C123.489 44.0259 123.753 43.8478 123.974 43.6228C124.201 43.4017 124.38 43.137 124.501 42.8449C124.621 42.5528 124.681 42.2393 124.677 41.9234C124.677 41.2878 124.424 40.6781 123.974 40.2281C123.524 39.7782 122.913 39.5246 122.276 39.5231C121.959 39.5196 121.644 39.5805 121.351 39.702C121.058 39.8234 120.793 40.003 120.572 40.2297ZM132.567 37.3503C131.964 37.3504 131.367 37.4695 130.81 37.7007C130.607 37.7884 130.411 37.8919 130.224 38.0102V37.3386H128.045V46.5076H130.207V41.7771C130.192 41.4851 130.256 41.1944 130.394 40.9361C130.51 40.6606 130.679 40.4105 130.892 40.2003C131.108 39.9801 131.364 39.8036 131.647 39.6805C131.937 39.5549 132.251 39.4913 132.567 39.4936V37.3503ZM139.982 43.0854L141.739 44.3995C141.556 44.6731 141.348 44.9293 141.118 45.1645C140.695 45.5981 140.187 45.9409 139.626 46.1719C139.065 46.4028 138.462 46.5171 137.856 46.5078C136.947 46.5102 136.057 46.2429 135.301 45.7397C134.545 45.2366 133.956 44.5205 133.609 43.6825C133.263 42.8446 133.174 41.9227 133.354 41.0343C133.535 40.1459 133.976 39.3311 134.623 38.6937C135.037 38.2599 135.536 37.9157 136.089 37.6826C136.642 37.4495 137.238 37.3324 137.838 37.3387C138.446 37.3288 139.05 37.444 139.611 37.6771C140.172 37.9102 140.679 38.2563 141.1 38.6937C141.336 38.9199 141.544 39.1728 141.721 39.447L139.964 40.7611C139.852 40.5666 139.714 40.3878 139.554 40.2296C139.217 39.8974 138.789 39.6717 138.324 39.5808C137.859 39.4899 137.378 39.5379 136.94 39.7187C136.502 39.8996 136.128 40.2052 135.864 40.5974C135.599 40.9895 135.457 41.4508 135.454 41.9233C135.458 42.395 135.602 42.8552 135.866 43.2465C136.13 43.6377 136.504 43.9429 136.941 44.124C137.378 44.3051 137.859 44.3542 138.323 44.265C138.788 44.1759 139.216 43.9525 139.554 43.6227C139.723 43.4664 139.867 43.2852 139.982 43.0854ZM144.362 45.252C145.215 46.0652 146.351 46.5156 147.531 46.5076H147.671C148.877 46.4477 150.014 45.9319 150.852 45.0651C151.254 44.6334 151.572 44.1302 151.789 43.5817L149.751 42.7991C149.63 43.0799 149.466 43.34 149.265 43.57C149.039 43.7992 148.773 43.9853 148.48 44.119C148.201 44.2363 147.904 44.3055 147.601 44.3234H147.502C147.205 44.3201 146.912 44.2647 146.635 44.1599C146.405 44.0585 146.188 43.9291 145.991 43.7744L152.152 41.0763C151.829 40.1608 151.323 39.3202 150.664 38.6059C149.809 37.7957 148.675 37.3423 147.496 37.3386H147.396C146.799 37.3563 146.212 37.4933 145.668 37.7416C145.1 37.9778 144.589 38.3322 144.169 38.7811C143.766 39.2122 143.448 39.7155 143.232 40.2645C143.024 40.7991 142.917 41.3673 142.916 41.9406V42.0925C142.939 42.6723 143.076 43.2419 143.32 43.7686C143.563 44.3281 143.918 44.8327 144.362 45.252ZM146.547 39.7039C146.829 39.5823 147.13 39.513 147.437 39.4995H147.472C147.787 39.4968 148.099 39.5543 148.392 39.6688C148.623 39.7619 148.838 39.8899 149.03 40.0484L145.106 41.7654C145.125 41.5111 145.182 41.261 145.276 41.0237C145.396 40.7453 145.556 40.4856 145.75 40.2528C145.979 40.0221 146.25 39.8359 146.547 39.7039Z" fill="white" fill-opacity="0.8"/>
</svg>
