<svg width="200" height="60" viewBox="0 0 200 60" fill="none" xmlns="http://www.w3.org/2000/svg">
<path d="M117.794 14.3515C117.357 14.1899 116.904 14.0546 116.43 14.0939C115.395 14.1795 114.457 14.548 113.601 15.1219C112.05 16.1605 111.06 17.6292 110.394 19.3419C110.337 19.4885 110.327 19.64 110.353 19.7911C110.39 20.0042 110.563 20.0713 110.734 19.9428C110.825 19.8746 110.885 19.7802 110.935 19.6784C111.028 19.4868 111.118 19.2934 111.221 19.1071C111.874 17.9216 112.741 16.9315 113.898 16.2122C114.788 15.6588 115.739 15.3306 116.807 15.4024C117.982 15.4816 118.799 16.2002 119.005 17.3565C119.124 18.0247 119.114 18.6951 118.971 19.3527C118.379 22.0661 116.972 24.2758 114.775 25.9661C113.354 27.0588 111.748 27.6348 109.931 27.5334C109.684 27.5198 109.448 27.4706 109.219 27.3868C108.288 27.0461 107.536 26.4588 106.932 25.6812C106.037 24.5308 105.688 23.1911 105.616 21.7656C105.544 20.3442 105.767 18.9541 106.134 17.5873C106.824 15.0249 107.881 12.6141 109.223 10.3301C110.202 8.66235 111.372 7.13223 112.703 5.72635C112.759 5.66706 112.804 5.58447 112.9 5.57223C112.929 5.65294 112.892 5.70706 112.877 5.76494C112.616 6.75929 112.435 7.76329 112.484 8.79882C112.506 9.2487 112.584 9.68518 112.739 10.1068C112.981 10.7699 113.382 11.3024 114.031 11.6155C114.764 11.9694 115.525 11.9821 116.281 11.724C117.673 11.2485 118.745 10.3471 119.479 9.09082C120.24 7.78847 120.629 6.36659 120.539 4.84188C120.463 3.57694 119.901 2.59812 118.788 1.95788C118.723 1.92047 118.628 1.91153 118.609 1.79976C118.688 1.74259 118.768 1.68282 118.85 1.62494C119.107 1.44306 119.376 1.27624 119.619 1.07788C120.068 0.71153 120.01 0.259294 119.497 0H119.314C119.146 0.0917647 118.973 0.172 118.811 0.275294C117.955 0.819529 117.095 1.35765 116.236 1.89765C116.159 1.94612 116.083 1.99247 115.988 2.00706C115.388 2.10118 114.845 2.35012 114.317 2.63624C113.213 3.23482 112.228 4 111.302 4.84047C109.724 6.27294 108.357 7.88729 107.196 9.67671C106.027 11.4769 105.191 13.4306 104.51 15.4558C104.001 16.9701 103.656 18.5212 103.556 20.1181C103.492 21.1238 103.548 22.1261 103.777 23.1113C104.376 25.6861 105.852 27.5247 108.353 28.4659C109.661 28.9581 110.989 29.0351 112.34 28.5602C114.248 27.8899 115.885 26.8271 117.24 25.3285C118.649 23.7706 119.639 21.9904 120.074 19.9233C120.271 18.9913 120.316 18.0522 120.106 17.1165C119.812 15.8009 119.089 14.8306 117.794 14.3515ZM114.888 5.22706C115.347 4.50682 115.908 3.88706 116.668 3.47153C117 3.28965 117.353 3.17012 117.738 3.1633C118.377 3.15224 118.85 3.43953 119.171 3.97765C119.533 4.58682 119.614 5.26282 119.537 5.94824C119.37 7.448 118.717 8.71694 117.622 9.752C117.159 10.1896 116.63 10.5176 115.98 10.6193C115.346 10.7184 114.842 10.5099 114.458 10.0087C114.092 9.53176 113.94 8.97835 113.94 8.2C113.952 7.112 114.312 6.13412 114.888 5.22706Z" fill="white" fill-opacity="0.4"/>
<path d="M99.9763 59.7591C99.7446 59.5047 99.5137 59.2492 99.2756 59.0007C99.1928 58.9146 99.1653 58.8563 99.2573 58.7511C99.4455 58.5358 99.5632 58.2744 99.6839 58.0177C99.8015 57.768 99.8577 57.5003 99.8763 57.2273C99.893 56.9786 99.8756 56.9666 99.6335 56.9615C99.4815 56.9584 99.3293 56.9593 99.1773 56.9612C98.9196 56.9645 98.925 56.9662 98.9025 57.2309C98.8754 57.5452 98.7862 57.8384 98.5857 58.108C98.1615 57.7767 97.7754 57.44 97.3827 57.065C97.5069 56.9711 97.6187 56.889 97.7283 56.8036C98.0253 56.5725 98.3036 56.3403 98.3874 55.9332C98.5293 55.2433 98.186 54.5695 97.4747 54.4339C96.7726 54.2998 96.1274 54.4337 95.5213 54.788C95.3829 54.869 95.2853 54.997 95.2241 55.1596C95.0387 55.6518 95.1556 56.0709 95.5015 56.4424C95.6373 56.588 95.7817 56.7262 95.9359 56.8819C95.7312 57.0038 95.5585 57.1033 95.3888 57.2078C94.9514 57.4775 94.7276 57.8344 94.7429 58.384C94.7599 59.0109 95.0627 59.4031 95.562 59.7024C95.7883 59.8379 96.0457 59.8965 96.2843 60H97.3201C97.6768 59.8666 98.0446 59.7556 98.3222 59.4589C98.4432 59.5713 98.5439 59.6676 98.6213 59.7892C98.67 59.8662 98.7342 59.936 98.8385 59.9363C99.249 59.937 99.6596 59.9365 100.067 59.9365C100.077 59.8316 100.015 59.8015 99.9763 59.7591ZM96.9646 55.1238C97.2497 55.1012 97.4867 55.1671 97.626 55.441C97.7267 55.6389 97.7057 55.8069 97.5528 55.9657C97.4552 56.0673 97.3523 56.1633 97.2328 56.2422C96.9387 56.4349 96.9203 56.4391 96.6879 56.1673C96.5627 56.0207 96.4653 55.8556 96.4657 55.6518C96.4643 55.3363 96.646 55.1495 96.9646 55.1238ZM97.7653 58.9767C97.5441 59.1346 97.2876 59.1836 97.089 59.2019C96.5194 59.2059 96.1514 58.9342 96.0556 58.4967C95.969 58.1014 96.3173 57.7205 96.6359 57.6038C96.7081 57.5772 96.7495 57.6276 96.7902 57.6709C97.1305 58.0309 97.4695 58.392 97.8093 58.7523C97.9013 58.8494 97.8446 58.92 97.7653 58.9767Z" fill="white" fill-opacity="0.4"/>
<path d="M121.809 56.3345C121.63 55.3945 121.05 54.7846 120.135 54.5154C119.45 54.314 118.754 54.3206 118.067 54.5145C117.361 54.714 116.859 55.1618 116.574 55.8359C116.302 56.4792 116.282 57.1477 116.387 57.8324C116.499 58.5599 116.894 59.1039 117.448 59.5462C117.72 59.7627 118.037 59.9011 118.389 59.9413C118.441 59.9472 118.489 59.9556 118.523 59.9994H119.681C119.787 59.9102 119.927 59.9211 120.048 59.8787C120.779 59.6239 121.339 59.1846 121.651 58.4521C121.945 57.7604 121.944 57.0465 121.809 56.3345ZM120.592 57.87C120.449 58.4566 120.1 58.8804 119.517 59.038C119.063 59.1611 118.59 59.1491 118.179 58.8517C117.876 58.6317 117.719 58.3072 117.638 57.9611C117.51 57.4126 117.506 56.8606 117.708 56.3185C117.798 56.0757 117.938 55.8771 118.104 55.6801C118.528 55.1773 119.431 55.1632 119.93 55.4474C120.284 55.6491 120.501 55.9877 120.592 56.3931C120.647 56.6411 120.672 56.8924 120.654 57.1484C120.672 57.3914 120.65 57.6328 120.592 57.87Z" fill="white" fill-opacity="0.4"/>
<path d="M74.7788 56.3326C74.5929 55.3973 74.0124 54.8006 73.1037 54.5079C72.6468 54.3611 72.1821 54.3794 71.7178 54.3952C70.5021 54.4373 69.5792 55.2288 69.3599 56.4147C69.3002 56.7376 69.2959 57.0594 69.3037 57.3832C69.3246 58.2834 69.7131 59.0011 70.4181 59.5477C70.6849 59.7545 70.9912 59.8898 71.3296 59.939C71.3896 59.9479 71.4526 59.9427 71.4941 59.9992H72.6517C72.7576 59.9093 72.8976 59.9218 73.019 59.8783C73.7456 59.6178 74.3162 59.1872 74.6214 58.4498C74.9072 57.7599 74.9202 57.0458 74.7788 56.3326ZM73.5646 57.8606C73.4261 58.4521 73.0757 58.8733 72.4957 59.0347C72.0428 59.1608 71.5691 59.1545 71.1569 58.8561C70.8548 58.6378 70.6875 58.3227 70.6098 57.9719C70.4856 57.4119 70.4806 56.8568 70.6823 56.2992C70.9035 55.6877 71.4952 55.1383 72.3698 55.2964C73.0392 55.4173 73.4364 55.8004 73.5738 56.4726C73.6192 56.6947 73.6244 56.9143 73.6294 57.2223C73.6362 57.3806 73.6206 57.6216 73.5646 57.8606Z" fill="white" fill-opacity="0.4"/>
<path d="M106.846 59.6679C106.818 59.6035 106.797 59.5355 106.769 59.4703C106.593 59.0505 106.416 58.631 106.237 58.2122C106.074 57.827 105.964 57.4122 105.61 57.123C105.665 57.0978 105.691 57.083 105.718 57.0733C106.254 56.8837 106.628 56.5242 106.595 55.8197C106.568 55.2385 106.185 54.6588 105.491 54.5162C105.169 54.45 104.848 54.454 104.525 54.4533C104.008 54.4526 103.49 54.4505 102.973 54.4545C102.755 54.4564 102.753 54.4642 102.744 54.6757C102.741 54.7468 102.743 54.8176 102.743 54.8886C102.743 56.5924 102.742 58.2957 102.742 59.9995H103.9C103.9 59.4418 103.893 58.8839 103.901 58.3263C103.91 57.6402 103.779 57.7498 104.496 57.742C104.763 57.739 104.9 57.8404 104.999 58.0929C105.062 58.2529 105.118 58.4155 105.182 58.5752C105.328 58.9416 105.476 59.3075 105.624 59.6731C105.668 59.7804 105.722 59.8724 105.861 59.8707C106.145 59.867 106.429 59.8729 106.713 59.8663C106.836 59.8635 106.907 59.8058 106.846 59.6679ZM105.426 56.2032C105.41 56.4698 105.238 56.6973 104.989 56.7609C104.682 56.8395 104.368 56.8331 104.054 56.8275C103.933 56.8256 103.898 56.7599 103.9 56.6526C103.902 56.4703 103.901 56.2877 103.901 56.1053H103.901C103.901 55.9329 103.901 55.7609 103.901 55.5884C103.902 55.5122 103.919 55.4362 104.011 55.4373C104.373 55.4428 104.74 55.375 105.089 55.5376C105.385 55.6755 105.45 55.7957 105.426 56.2032Z" fill="white" fill-opacity="0.4"/>
<path d="M132.776 59.9997C132.64 59.8705 132.455 59.8936 132.294 59.8451C131.979 59.7507 131.982 59.7536 131.982 59.4333C131.982 59.2298 131.995 59.0298 132.069 58.8258C132.191 58.8258 132.299 58.89 132.405 58.935C132.741 59.0766 133.089 59.106 133.447 59.0912C133.667 59.0823 133.866 59.0169 134.049 58.9037C134.361 58.7098 134.404 58.3091 134.14 58.0491C133.907 57.819 133.62 57.6625 133.332 57.5171C132.97 57.335 132.597 57.1747 132.229 57.0056C132.066 56.9305 131.996 56.7785 131.947 56.626C131.814 56.2086 131.821 55.7813 131.963 55.3724C132.114 54.9409 132.468 54.6969 132.876 54.5364C133.121 54.4401 133.377 54.3844 133.647 54.3884C134.092 54.3947 134.536 54.3797 134.974 54.5002C135.109 54.5373 135.157 54.5907 135.153 54.7253C135.145 54.9672 135.151 55.2096 135.151 55.4811C134.828 55.4023 134.539 55.3239 134.243 55.2757C133.947 55.2274 133.676 55.2799 133.421 55.4136C133.031 55.618 132.986 56.0971 133.329 56.3639C133.44 56.4503 133.566 56.5201 133.691 56.5851C134.141 56.8185 134.577 57.0766 135.047 57.2686C135.218 57.3383 135.324 57.462 135.4 57.6263C135.887 58.6877 135.235 59.8347 134.219 59.9451C134.176 59.9498 134.143 59.9677 134.116 60.0002C133.669 59.9997 133.222 59.9997 132.776 59.9997Z" fill="white" fill-opacity="0.4"/>
<path d="M112.856 59.9994C112.686 59.8773 112.478 59.87 112.285 59.8163C111.998 59.7363 111.974 59.7194 112.012 59.4208C112.036 59.2309 112.071 59.0424 112.068 58.8262C112.306 58.8389 112.499 58.9497 112.705 59.013C113.113 59.1384 113.521 59.1297 113.927 59.0003C114.046 58.9622 114.14 58.8822 114.218 58.7874C114.424 58.5361 114.417 58.2843 114.208 58.0846C113.918 57.8069 113.58 57.6104 113.217 57.4467C112.912 57.3093 112.61 57.1657 112.312 57.0147C112.075 56.8944 111.956 56.6843 111.945 56.4246C111.934 56.1511 111.925 55.8751 111.948 55.6034C111.976 55.2864 112.145 55.03 112.392 54.8347C112.743 54.5566 113.144 54.3994 113.596 54.3928C114.061 54.3862 114.525 54.3721 114.984 54.4961C115.134 54.5366 115.186 54.5966 115.177 54.7413C115.162 54.9801 115.201 55.222 115.146 55.481C114.856 55.374 114.569 55.3307 114.283 55.2782C113.972 55.221 113.695 55.3001 113.432 55.4253C113.122 55.5723 113.071 56.0297 113.306 56.2834C113.535 56.53 113.859 56.6166 114.13 56.7921C114.428 56.9853 114.76 57.1163 115.08 57.2676C115.276 57.3606 115.411 57.5017 115.48 57.7015C115.762 58.5158 115.562 59.3107 114.789 59.7897C114.605 59.9034 114.378 59.8857 114.197 59.9996C113.75 59.9994 113.303 59.9994 112.856 59.9994Z" fill="white" fill-opacity="0.4"/>
<path d="M89.3419 59.9993C89.1913 59.8548 88.9791 59.8972 88.8035 59.8221C88.5508 59.7141 88.5492 59.7226 88.549 59.4605C88.5487 59.2475 88.5537 59.036 88.6403 58.8184C88.8565 58.8911 89.0706 58.9805 89.2932 59.0336C89.7139 59.1339 90.1344 59.1424 90.5384 58.9489C90.7748 58.8358 90.8795 58.6515 90.8734 58.3878C90.8701 58.2405 90.8099 58.1376 90.7071 58.0468C90.4628 57.8306 90.1951 57.6449 89.8972 57.5174C89.5332 57.3614 89.1911 57.1621 88.8276 57.0075C88.6386 56.9271 88.549 56.7699 88.5031 56.5918C88.4028 56.2038 88.396 55.8094 88.5066 55.4219C88.588 55.1362 88.7883 54.9332 89.0243 54.7661C89.3817 54.5129 89.7805 54.3875 90.2198 54.3892C90.5941 54.3906 90.9671 54.3878 91.3393 54.4536C91.7148 54.52 91.72 54.5082 91.7163 54.8826C91.7144 55.0734 91.7379 55.2661 91.6958 55.4602C91.5398 55.476 91.4191 55.3838 91.2821 55.3583C90.9254 55.2918 90.5715 55.1991 90.2066 55.3155C89.9247 55.4054 89.7344 55.56 89.6821 55.8772C89.6555 56.0386 89.6887 56.1536 89.789 56.2633C89.9068 56.3922 90.0539 56.4823 90.2085 56.56C90.6605 56.7875 91.0937 57.0532 91.5633 57.244C91.7652 57.3261 91.8948 57.46 91.9821 57.6567C92.3977 58.5944 91.909 59.7814 90.8163 59.9407C90.7647 59.9482 90.7165 59.9555 90.6824 59.9993C90.2353 59.9993 89.7885 59.9993 89.3419 59.9993Z" fill="white" fill-opacity="0.4"/>
<path d="M106.651 7.79005C106.449 5.98676 105.595 4.53428 104.252 3.34864C103.9 3.03852 103.508 2.78558 103.092 2.56981C102.905 2.47287 102.9 2.44864 103.015 2.27005C103.092 2.15122 103.18 2.03805 103.272 1.93052C103.597 1.55076 103.967 1.22017 104.369 0.924167C104.442 0.870285 104.517 0.816638 104.582 0.753579C104.695 0.642991 104.782 0.509814 104.728 0.346755C104.667 0.164402 104.512 0.0841676 104.331 0.0604029C104.156 0.0373441 103.991 0.0756959 103.828 0.147461C103.042 0.494049 102.33 0.9604 101.664 1.49617C101.509 1.62134 101.387 1.64652 101.203 1.56958C100.049 1.08558 98.8303 0.881814 97.5908 0.809109C96.4028 0.739462 95.2204 0.824873 94.0466 1.0317C92.1913 1.35828 90.4362 1.96158 88.8096 2.91946C87.0447 3.95899 85.6054 5.32675 84.575 7.1124C84.0002 8.10793 83.644 9.15852 83.6833 10.3206C83.7341 11.8286 84.3922 12.9856 85.7054 13.7428C86.8115 14.3804 88.0193 14.5639 89.2807 14.5169C90.4444 14.4738 91.547 14.2025 92.5953 13.7068C93.5534 13.2533 94.3861 12.6336 95.0426 11.7926C95.9539 10.6249 96.2936 9.28628 96.2087 7.82652C96.1642 7.05758 95.9167 6.35922 95.4414 5.74675C95.1588 5.38228 94.8044 5.12087 94.3501 5.01875C94.111 4.96511 93.8651 4.94817 93.6369 5.07028C93.4529 5.16887 93.4155 5.33405 93.5355 5.50158C93.5706 5.55052 93.6134 5.59758 93.6621 5.63264C93.939 5.83099 94.1451 6.09428 94.3317 6.3724C94.8814 7.19005 95.0706 8.07311 94.7903 9.03522C94.532 9.92158 94.0037 10.635 93.3289 11.239C91.9922 12.4352 90.4435 13.1736 88.6435 13.3611C87.3621 13.4945 86.2581 13.1378 85.3435 12.2251C84.9906 11.8731 84.7571 11.4503 84.6451 10.9637C84.4529 10.1286 84.6037 9.33358 84.9379 8.56252C85.3141 7.69429 85.8731 6.95146 86.523 6.27217C87.2729 5.4884 88.1557 4.87852 89.0687 4.30346C89.9087 3.77452 90.8075 3.38558 91.7576 3.11099C92.8922 2.78393 94.0503 2.61052 95.2294 2.53758C96.4411 2.46276 97.6409 2.5197 98.8327 2.74322C99.2694 2.82511 99.7028 2.92346 100.105 3.14322C99.9287 3.49946 99.7442 3.83711 99.5903 4.18793C98.9169 5.72205 98.3901 7.31029 97.8677 8.90017C97.2409 10.8077 96.6677 12.7312 96.1204 14.6625C96.0593 14.879 95.9449 14.9611 95.743 14.971C95.6922 14.9733 95.6416 14.9769 95.591 14.9802C94.9941 15.0188 94.3986 15.0698 93.8075 15.1656C93.6854 15.1853 93.5689 15.2162 93.4616 15.2745C93.2569 15.3853 93.1369 15.5644 93.1454 15.7922C93.1543 16.0298 93.315 16.1759 93.5327 16.2515C93.6473 16.291 93.7654 16.3148 93.8896 16.3199C94.3456 16.3383 94.8019 16.3595 95.2571 16.3896C95.6223 16.414 95.6459 16.4477 95.5541 16.7879C95.1275 18.3663 94.4823 19.8491 93.5946 21.2232C92.2139 23.3604 90.3955 25.0105 88.1096 26.1395C86.8835 26.7453 85.596 27.1686 84.2553 27.4303C82.8207 27.7103 81.5011 27.427 80.3548 26.5223C79.0866 25.522 78.6284 24.2072 79.023 22.627C79.3089 21.4816 79.9296 20.5148 80.7757 19.718C82.0887 18.4818 83.6353 17.6239 85.3734 17.1308C86.0708 16.9329 86.7854 16.8378 87.5077 16.9992C88.5673 17.2355 89.0226 18.1376 88.9934 18.8689C88.9541 19.8597 88.571 20.739 87.9186 21.4945C87.1757 22.3545 86.2324 22.9157 85.1856 23.3159C84.2423 23.6766 83.2673 23.9011 82.2529 23.9249C82.0809 23.9289 81.959 24.0032 81.8816 24.1463C81.6644 24.5486 81.9414 25.0498 82.3941 25.0804C82.4548 25.0846 82.516 25.0835 82.5769 25.0842C83.9364 25.0922 85.2353 24.8112 86.4689 24.2428C87.5607 23.7397 88.5348 23.0686 89.2931 22.1239C90.1571 21.0472 90.6428 19.843 90.4386 18.4308C90.3442 17.7778 90.1397 17.1689 89.7164 16.6491C89.0313 15.8079 88.1068 15.4484 87.0607 15.347C86.4677 15.2898 85.8884 15.4032 85.3136 15.5329C82.8668 16.0832 80.8651 17.3256 79.4409 19.4093C78.4077 20.9209 77.8717 22.5868 78.1313 24.4423C78.2967 25.6244 78.8244 26.6202 79.7496 27.3851C80.7663 28.2251 81.9731 28.5818 83.2611 28.6799C84.3367 28.7618 85.4077 28.6851 86.4741 28.5079C87.9463 28.2628 89.3044 27.7411 90.5593 26.9331C91.9531 26.0352 93.1673 24.9362 94.2586 23.6952C96.1571 21.5364 97.5835 19.0988 98.5449 16.3912C98.6284 16.1562 98.7484 16.034 98.9866 15.9597C100.181 15.5886 101.335 15.119 102.425 14.5011C103.511 13.8863 104.503 13.1519 105.289 12.1705C106.314 10.89 106.837 9.44887 106.651 7.79005ZM103.725 11.0402C103.074 12.1013 102.149 12.8813 101.082 13.5025C100.536 13.8204 99.9609 14.0684 99.3454 14.2183C99.2969 14.23 99.2503 14.2557 99.1703 14.2035C99.3411 13.2032 99.5374 12.2112 99.7531 11.223C100.128 9.51075 100.546 7.81029 101.094 6.14417C101.297 5.52746 101.525 4.92064 101.797 4.33076C101.937 4.02629 101.941 4.02628 102.237 4.20064C102.724 4.48911 103.127 4.8717 103.455 5.33029C104.077 6.20134 104.416 7.18134 104.494 8.24275C104.569 9.2597 104.249 10.187 103.725 11.0402Z" fill="white" fill-opacity="0.4"/>
<path d="M52.6781 37.7382C52.6369 36.7885 52.1485 36.1255 51.3649 35.6527C50.8304 35.3302 50.2292 35.2295 49.6179 35.2153C48.8473 35.1979 48.0762 35.2104 47.3054 35.2102C47.2548 35.2102 47.204 35.2125 47.1534 35.212C47.0541 35.2109 47.0024 35.2572 47.0021 35.3582C47.0021 35.4391 47 35.5203 47 35.6015V44.7904C47 44.8713 47.0024 44.9528 47.0009 45.0337C46.9986 45.1476 47.0527 45.1996 47.1661 45.1989C47.3489 45.1975 47.5313 45.2017 47.7141 45.1989C47.9682 45.1951 47.9708 45.1935 47.9746 44.9464C47.9779 44.693 47.9753 44.4393 47.9753 44.1859C47.9753 43.1718 47.9744 42.1575 47.9762 41.1431C47.9769 40.8775 47.9812 40.8749 48.2492 40.8732C48.6548 40.8704 49.0609 40.8648 49.4661 40.8744C49.824 40.8833 50.1741 40.8332 50.5158 40.7417C51.3889 40.5071 52.0715 40.0175 52.4741 39.1892C52.696 38.7313 52.6998 38.2375 52.6781 37.7382ZM51.6064 38.3751C51.468 39.3447 50.6518 39.8111 49.8892 39.9052C49.3529 39.9716 48.8184 39.9499 48.2826 39.9577C48.0487 39.9608 48.0435 39.9518 48.0419 39.7196C48.0388 39.1518 48.0409 38.584 48.0409 38.0167C48.0409 37.449 48.0388 36.8812 48.0419 36.3137C48.0431 36.0655 48.0473 36.061 48.2988 36.0596C48.8461 36.0575 49.3941 36.0469 49.9407 36.0645C50.5798 36.085 51.1118 36.3379 51.4094 36.9252C51.6379 37.3756 51.6786 37.8704 51.6064 38.3751Z" fill="white" fill-opacity="0.4"/>
<path d="M98.0693 41.0484C98.0091 40.4409 97.8663 39.8734 97.5646 39.347C97.194 38.6995 96.667 38.2259 95.9595 37.9739C95.5176 37.816 95.0597 37.7331 94.6529 37.7659C94.3035 37.7673 94.0227 37.7724 93.7402 37.824C92.886 37.98 92.2237 38.4221 91.7267 39.1233C91.411 39.5689 91.2385 40.0687 91.138 40.6054C90.9656 41.5259 91.0336 42.4211 91.3783 43.287C91.6435 43.9534 92.0835 44.491 92.7011 44.8701C93.5392 45.3844 94.4526 45.4962 95.3931 45.2934C96.5962 45.0339 97.4091 44.2854 97.8263 43.1367C98.0696 42.4673 98.1409 41.7701 98.0693 41.0484ZM96.7703 42.9844C96.4465 43.7706 95.9347 44.356 95.0559 44.4969C94.1578 44.6409 93.3124 44.4536 92.7077 43.5971C92.354 43.0962 92.1065 42.3981 92.1406 41.4859C92.111 41.0113 92.1849 40.5037 92.3959 40.023C92.6072 39.5428 92.9009 39.1178 93.3519 38.8322C94.2413 38.2684 95.667 38.3826 96.4009 39.3906C96.8237 39.9713 97.0058 40.6101 97.0202 41.3179C97.0319 41.8901 96.9908 42.4491 96.7703 42.9844Z" fill="white" fill-opacity="0.4"/>
<path d="M149.71 44.3694C149.709 42.9494 149.711 41.5297 149.707 40.1094C149.705 39.6621 149.632 39.2252 149.477 38.8026C149.361 38.4873 149.164 38.2412 148.888 38.0515C148.392 37.7101 147.818 37.6471 147.244 37.5871C146.909 37.5518 146.577 37.6144 146.246 37.6532C145.833 37.7014 145.44 37.8414 145.055 37.9977C144.978 38.0287 144.9 38.069 144.899 38.1643C144.895 38.42 144.897 38.6765 144.897 38.9497C145.85 38.4915 146.35 38.397 147.34 38.4395C147.917 38.4645 148.363 38.725 148.611 39.2744C148.797 39.6847 148.812 40.1162 148.795 40.5541C148.79 40.6835 148.701 40.6958 148.605 40.6915C148.138 40.6715 147.675 40.7264 147.21 40.7487C146.652 40.7758 146.103 40.852 145.577 41.0457C144.285 41.5214 143.826 42.7064 144.152 43.8831C144.356 44.6231 144.919 44.9972 145.621 45.1934C145.977 45.2927 146.345 45.2577 146.708 45.265C147.547 45.2817 148.183 44.9061 148.687 44.2642C148.728 44.2122 148.755 44.1341 148.864 44.1595C148.864 44.3894 148.863 44.6219 148.865 44.8544C148.866 44.9473 148.874 45.0685 148.998 45.0454C149.239 45.0002 149.483 45.0518 149.768 44.9944C149.693 44.7739 149.71 44.5711 149.71 44.3694ZM148.535 43.4955C148.256 44.1191 147.761 44.4878 147.072 44.592C146.759 44.6393 146.454 44.6306 146.139 44.597C145.555 44.5339 145.102 44.0704 145.059 43.5541C144.99 42.7172 145.393 42.1588 146.039 41.8899C146.414 41.7337 146.81 41.6565 147.211 41.597C147.504 41.5537 147.795 41.5452 148.089 41.54C148.261 41.54 148.434 41.5428 148.606 41.5391C148.727 41.5362 148.792 41.5741 148.798 41.7094C148.825 42.3221 148.788 42.9318 148.535 43.4955Z" fill="white" fill-opacity="0.4"/>
<path d="M66.728 44.8234C66.6673 44.6446 66.6873 44.4613 66.6868 44.2796C66.684 42.8486 66.6871 41.417 66.681 39.986C66.6791 39.6107 66.6165 39.2403 66.496 38.8838C66.3461 38.4403 66.0586 38.1158 65.6334 37.9107C65.1774 37.6907 64.6908 37.6198 64.1932 37.5848C63.8765 37.5622 63.5664 37.6187 63.2551 37.6502C62.8292 37.6937 62.4292 37.8427 62.0323 37.9968C61.9426 38.0316 61.8706 38.0834 61.8708 38.1933V38.9493C61.941 38.9316 61.9725 38.9304 61.9972 38.9163C62.709 38.5147 63.4779 38.3857 64.2838 38.4354C64.9139 38.474 65.3755 38.7509 65.629 39.3537C65.7927 39.7438 65.772 40.1462 65.7694 40.5509C65.7685 40.6791 65.6814 40.6918 65.5828 40.6928C65.1577 40.6966 64.7337 40.7123 64.3085 40.7394C63.8214 40.7707 63.3391 40.8173 62.8704 40.9434C62.3014 41.0963 61.7894 41.3624 61.4419 41.8608C61.0843 42.3733 61.0024 42.9441 61.0671 43.5638C61.1619 44.4754 61.8558 44.9963 62.6078 45.1949C62.9955 45.2975 63.3932 45.2631 63.7878 45.2622C64.3951 45.2613 64.9104 45.0344 65.3485 44.6184C65.5233 44.4521 65.6786 44.2681 65.8864 44.1036C65.8864 44.346 65.8854 44.5886 65.8873 44.8309C65.888 44.9001 65.8767 44.9827 65.9678 45.0076C66.1746 45.0643 66.3845 45.0968 66.5981 45.05C66.7214 45.0229 66.7675 44.9403 66.728 44.8234ZM65.7094 41.7417C65.704 41.8533 65.7083 41.965 65.7083 42.0768C65.7024 42.5662 65.6379 43.0441 65.4351 43.4958C65.1388 44.1558 64.621 44.4897 63.9132 44.6008C63.5831 44.6525 63.2645 44.6361 62.9497 44.5794C62.1612 44.4373 61.853 43.8191 61.9579 43.094C62.061 42.3829 62.5466 42.0064 63.1777 41.797C63.9367 41.5455 64.7273 41.5248 65.5198 41.5375C65.6683 41.5401 65.7163 41.6048 65.7094 41.7417Z" fill="white" fill-opacity="0.4"/>
<path d="M59.6847 40.5726C59.6111 40.0131 59.4633 39.4813 59.1847 38.9928C58.9551 38.5895 58.6363 38.2721 58.2111 38.0627C57.6955 37.8091 57.1515 37.7396 56.5871 37.7667C56.1245 37.7888 55.6913 37.9133 55.2937 38.1526C54.5475 38.6015 54.1435 39.2978 53.8854 40.1008C53.712 40.6394 53.7043 41.1931 53.6958 41.7516C53.6861 42.4243 53.8247 43.0613 54.1075 43.6627C54.4186 44.3241 54.8814 44.8382 55.5873 45.1142C55.9906 45.2723 56.408 45.3276 56.8285 45.3731C57.5901 45.4549 58.3141 45.2596 59.032 45.0352C59.1301 45.0043 59.1883 44.9606 59.1852 44.8458C59.1793 44.6138 59.1833 44.3813 59.1833 44.1465C59.1292 44.1307 59.1181 44.1234 59.1106 44.126C59.0725 44.1387 59.0344 44.1526 58.9979 44.1695C58.2612 44.5109 57.4939 44.6799 56.6777 44.5926C56.1652 44.5375 55.7214 44.3507 55.3668 43.9667C54.856 43.4135 54.6685 42.7498 54.6795 42.0138C54.6814 41.8992 54.7315 41.8465 54.8452 41.8495C54.9163 41.8514 54.9871 41.8488 55.0584 41.8488C55.9915 41.8486 56.925 41.8488 57.8581 41.8488C58.3859 41.8488 58.9134 41.8498 59.441 41.8481C59.7346 41.8472 59.7365 41.8451 59.7367 41.5406C59.7372 41.2175 59.7273 40.8963 59.6847 40.5726ZM58.5485 41.0476C57.9193 41.0509 57.2901 41.0488 56.6612 41.0488C56.0725 41.0491 55.484 41.0502 54.8953 41.0486C54.568 41.0479 54.5864 41.0455 54.6064 40.7312C54.6426 40.1611 54.8678 39.6815 55.2179 39.2411C55.7097 38.6227 56.3539 38.4267 57.1073 38.5262C57.7577 38.6123 58.1835 38.9931 58.4551 39.5785C58.6414 39.9808 58.7047 40.4083 58.7544 40.8396C58.7746 41.0154 58.7395 41.0465 58.5485 41.0476Z" fill="white" fill-opacity="0.4"/>
<path d="M129.289 39.1553C128.964 38.4899 128.45 38.0558 127.722 37.8732C127.181 37.7374 126.638 37.7125 126.099 37.8381C125.492 37.9795 124.972 38.2828 124.584 38.7861C124.117 39.3934 123.841 40.0739 123.748 40.8388C123.641 41.7078 123.683 42.5563 124.001 43.3784C124.227 43.9652 124.545 44.4901 125.087 44.844C125.527 45.132 126.018 45.2591 126.538 45.3367C127.407 45.4661 128.228 45.3099 129.042 45.0306C129.126 45.0017 129.184 44.9666 129.182 44.8647C129.178 44.6233 129.181 44.3819 129.181 44.0685C128.758 44.356 128.342 44.444 127.925 44.5207C127.5 44.5993 127.075 44.6824 126.634 44.5941C126.293 44.5257 125.96 44.4523 125.678 44.2363C124.94 43.6697 124.702 42.8779 124.679 41.9915C124.676 41.8864 124.736 41.8494 124.832 41.8499C124.913 41.8508 124.995 41.849 125.076 41.849C126.497 41.8487 127.918 41.849 129.339 41.8487C129.41 41.8487 129.482 41.8454 129.553 41.849C129.68 41.8551 129.732 41.8 129.737 41.6701C129.772 40.7988 129.678 39.9501 129.289 39.1553ZM128.822 40.8094C128.815 41.0381 128.813 41.0466 128.577 41.048C127.959 41.0513 127.341 41.0492 126.723 41.049C126.115 41.049 125.507 41.0513 124.899 41.0478C124.686 41.0466 124.664 41.0278 124.681 40.8214C124.747 39.9781 125.089 39.2734 125.806 38.8052C126.429 38.3984 127.103 38.3918 127.773 38.7075C128.026 38.8266 128.22 39.0332 128.366 39.2621C128.665 39.7297 128.837 40.2445 128.822 40.8094Z" fill="white" fill-opacity="0.4"/>
<path d="M89.0129 44.2588C89.0411 44.4686 89.0663 44.6682 89.0955 44.867C89.1148 44.9988 89.0611 45.0766 88.9378 45.1223C88.6046 45.2453 88.2625 45.3279 87.911 45.3811C87.3566 45.4651 86.7976 45.4698 86.243 45.4341C85.1296 45.3625 84.1063 45.0371 83.2296 44.3051C82.423 43.6317 81.979 42.7592 81.7308 41.7623C81.6152 41.2981 81.5613 40.8211 81.5625 40.3515C81.5653 39.2538 81.7708 38.1908 82.4119 37.2686C83.0766 36.3124 83.9588 35.6461 85.118 35.3938C85.763 35.2533 86.4183 35.1731 87.0759 35.2199C87.6477 35.2606 88.227 35.2832 88.775 35.4959C89.1178 35.6291 89.1286 35.6232 89.0562 35.971C89.0315 36.0896 89.0663 36.2159 89.0079 36.3256C88.9526 36.3543 88.9063 36.3277 88.8595 36.3112C88.3124 36.1181 87.7489 36.0329 87.17 35.9816C86.5745 35.9289 85.9981 35.9842 85.4305 36.1284C84.7162 36.3098 84.131 36.706 83.6397 37.2639C83.0717 37.9091 82.7143 38.6522 82.6171 39.4922C82.4976 40.5258 82.5204 41.5618 83.0145 42.5197C83.5837 43.623 84.4703 44.3143 85.707 44.5319C86.8044 44.7253 87.8795 44.6623 88.9263 44.2592C88.9437 44.2531 88.9653 44.2588 89.0129 44.2588Z" fill="white" fill-opacity="0.4"/>
<path d="M100.677 39.1201C100.856 38.8243 101.052 38.5445 101.323 38.3236C101.696 38.0198 102.127 37.8448 102.595 37.7918C103.202 37.7231 103.812 37.7236 104.373 38.0297C105.044 38.3949 105.407 38.9723 105.548 39.7111C105.611 40.0429 105.609 40.3756 105.609 40.7097C105.61 42.1001 105.609 43.4902 105.609 44.8805C105.609 44.9516 105.607 45.0227 105.609 45.0937C105.611 45.2043 105.565 45.2645 105.448 45.2638C105.255 45.2627 105.062 45.2624 104.87 45.2648C104.758 45.2662 104.699 45.2182 104.7 45.1027C104.701 45.0215 104.699 44.9403 104.699 44.8591C104.697 43.4081 104.695 41.9568 104.695 40.5057C104.695 40.122 104.58 39.7678 104.424 39.4253C104.247 39.0387 103.946 38.8036 103.527 38.7278C102.889 38.6125 102.276 38.6481 101.724 39.0358C101.303 39.3314 101.086 39.7648 100.939 40.2344C100.838 40.562 100.789 40.902 100.791 41.2511C100.799 42.4587 100.794 43.6662 100.794 44.874C100.794 44.9551 100.792 45.0363 100.792 45.1175C100.792 45.2198 100.738 45.2631 100.64 45.2629C100.438 45.2627 100.234 45.2627 100.032 45.2624C99.931 45.2624 99.8846 45.2104 99.8851 45.1114C99.8855 45.0302 99.8834 44.949 99.8834 44.8678C99.8834 43.3761 99.8794 41.8843 99.8862 40.3925C99.8879 40.0375 99.8705 39.686 99.8027 39.3382C99.7241 38.9356 99.7775 38.529 99.7545 38.1248C99.7472 37.9958 99.8088 37.9518 99.9352 37.9415C100.617 37.885 100.616 37.8822 100.616 38.5695C100.616 38.7488 100.616 38.9281 100.616 39.1074C100.636 39.1116 100.656 39.1158 100.677 39.1201Z" fill="white" fill-opacity="0.4"/>
<path d="M132.467 39.0483C132.67 38.7998 132.883 38.5878 133.1 38.3796C133.424 38.0671 133.816 37.8982 134.257 37.8224C134.825 37.7248 135.392 37.7111 135.934 37.9182C136.712 38.2158 137.171 38.8003 137.346 39.6132C137.413 39.9233 137.412 40.2361 137.412 40.5499C137.411 41.9906 137.412 43.4316 137.412 44.8723C137.412 44.9535 137.41 45.0346 137.41 45.1158C137.409 45.2177 137.355 45.2619 137.258 45.2624C137.247 45.2624 137.237 45.2629 137.227 45.2638C136.549 45.3243 136.549 45.3243 136.549 44.6358C136.549 43.4081 136.549 42.1803 136.548 40.9528C136.548 40.6076 136.496 40.2678 136.427 39.9313C136.373 39.6704 136.254 39.4323 136.111 39.2104C135.904 38.8881 135.57 38.7499 135.215 38.6979C134.906 38.653 134.59 38.6539 134.278 38.7175C133.541 38.8669 133.096 39.3349 132.83 40.0104C132.665 40.4313 132.607 40.8735 132.602 41.3179C132.59 42.505 132.598 43.6921 132.598 44.8794C132.598 44.9605 132.597 45.0417 132.595 45.1229C132.594 45.2062 132.553 45.2586 132.467 45.2601C132.265 45.2631 132.062 45.2643 131.859 45.2617C131.747 45.2603 131.696 45.1899 131.69 45.0857C131.686 45.0048 131.687 44.9233 131.687 44.8424C131.686 43.2495 131.694 41.6563 131.682 40.0633C131.679 39.6516 131.619 39.2401 131.578 38.829C131.553 38.5857 131.564 38.3429 131.559 38.0996C131.556 37.9786 131.624 37.9424 131.732 37.9436C131.915 37.9455 132.098 37.9485 132.28 37.9426C132.431 37.9377 132.47 38.0161 132.467 38.1502C132.463 38.3732 132.466 38.5965 132.467 38.8198C132.467 38.8958 132.467 38.9721 132.467 39.0483Z" fill="white" fill-opacity="0.4"/>
<path d="M116.965 39.0501C117.09 38.9718 117.138 38.8318 117.222 38.7238C117.717 38.0873 118.379 37.801 119.169 37.7657C119.514 37.7501 119.863 37.7541 120.194 37.8504C120.955 38.072 121.479 38.5643 121.729 39.3217C121.834 39.6381 121.882 39.9671 121.881 40.3066C121.874 41.8591 121.879 43.4115 121.879 44.964C121.879 45.2612 121.876 45.2664 121.572 45.2633C120.921 45.2572 121.02 45.3473 121.017 44.7268C121.012 43.5803 121.015 42.4337 121.016 41.2871C121.017 40.8412 120.983 40.3986 120.899 39.9607C120.846 39.688 120.726 39.4398 120.578 39.2101C120.364 38.8788 120.019 38.7377 119.651 38.6934C119.343 38.6563 119.028 38.6565 118.714 38.7231C118.013 38.8716 117.571 39.3052 117.318 39.9497C117.147 40.3857 117.063 40.8426 117.063 41.3134C117.065 42.5005 117.063 43.6878 117.063 44.8748C117.063 44.956 117.061 45.0372 117.061 45.1184C117.061 45.221 117.004 45.2626 116.907 45.2626C116.705 45.2624 116.502 45.2624 116.299 45.2619C116.196 45.2617 116.154 45.2052 116.154 45.108C116.155 45.0268 116.153 44.9457 116.153 44.8645C116.153 43.2817 116.15 41.6986 116.155 40.1158C116.157 39.7504 116.087 39.3927 116.059 39.0311C116.035 38.7271 116.043 38.4243 116.024 38.1214C116.016 37.9892 116.082 37.9403 116.207 37.9426C116.369 37.9459 116.532 37.9384 116.694 37.944C116.893 37.9511 116.925 37.9793 116.931 38.1758C116.939 38.409 116.931 38.6426 116.935 38.8758C116.935 38.932 116.909 38.9948 116.965 39.0501Z" fill="white" fill-opacity="0.4"/>
<path d="M126.9 59.6892C126.88 59.6424 126.868 59.5928 126.849 59.5462C126.599 58.9589 126.346 58.373 126.098 57.7848C125.996 57.5429 125.892 57.3048 125.679 57.1565C125.689 57.0977 125.717 57.0892 125.746 57.0779C126.502 56.788 126.662 56.4033 126.635 55.7746C126.613 55.2725 126.268 54.7502 125.78 54.5918C125.521 54.5073 125.255 54.4483 124.977 54.4518C124.449 54.4579 123.921 54.4532 123.393 54.4537C123.22 54.4537 123.048 54.4551 122.875 54.4551C122.776 54.4553 122.725 54.5015 122.725 54.6029C122.726 54.6739 122.724 54.7448 122.724 54.8158V59.5666C122.724 59.6276 122.728 59.6888 122.724 59.7495C122.713 59.8975 122.789 59.9431 122.926 59.94C123.17 59.9342 123.414 59.9424 123.657 59.9372C123.869 59.933 123.876 59.9269 123.878 59.7078C123.881 59.2205 123.875 58.7332 123.881 58.2459C123.883 58.0556 123.798 57.817 123.922 57.6859C124.059 57.5408 124.307 57.6405 124.505 57.6283C124.773 57.6118 124.945 57.7443 125.036 57.9942C125.154 58.3172 125.276 58.6393 125.398 58.9612C125.491 59.2076 125.586 59.453 125.681 59.6989C125.72 59.8005 125.782 59.8716 125.903 59.8706C126.198 59.8688 126.492 59.8713 126.787 59.8695C126.914 59.8683 126.946 59.8024 126.9 59.6892ZM124.93 56.7586C124.635 56.849 124.331 56.8297 124.029 56.8266C123.928 56.8255 123.882 56.7751 123.882 56.677C123.881 56.4852 123.882 56.2932 123.882 56.1015C123.881 55.9297 123.881 55.7579 123.882 55.5862C123.882 55.5095 123.903 55.436 123.993 55.4372C124.315 55.4424 124.64 55.3848 124.955 55.4944C125.28 55.6078 125.414 55.7968 125.406 56.1266C125.4 56.4172 125.209 56.673 124.93 56.7586Z" fill="white" fill-opacity="0.4"/>
<path d="M68.3245 57.2265C68.3245 58.0074 68.3245 58.7884 68.3245 59.5693C68.3245 59.6404 68.3228 59.7112 68.323 59.7823C68.3233 59.8783 68.2849 59.9361 68.1807 59.9361C67.8967 59.9359 67.6127 59.9354 67.3287 59.9373C67.2115 59.9383 67.1666 59.8787 67.1689 59.7679C67.1713 59.6564 67.1687 59.5448 67.1687 59.4333C67.1685 58.8855 67.171 58.338 67.1673 57.7903C67.1656 57.5728 67.1586 57.5653 66.9447 57.5639C66.3565 57.5601 65.768 57.5665 65.1797 57.5604C65.0176 57.5587 64.9708 57.627 64.9722 57.778C64.9769 58.3663 64.9741 58.9545 64.9739 59.5427C64.9739 59.6239 64.9717 59.7051 64.9722 59.786C64.9727 59.8848 64.9277 59.9364 64.8261 59.9361C64.5421 59.9357 64.2581 59.9352 63.9741 59.9371C63.8539 59.9378 63.815 59.8724 63.8183 59.7639C63.8202 59.7032 63.8179 59.6423 63.8179 59.5813C63.8179 57.9891 63.8179 56.3966 63.8179 54.8044C63.8179 54.7536 63.8214 54.7027 63.8176 54.6524C63.807 54.5121 63.8647 54.4488 64.0103 54.4521C64.2637 54.458 64.5176 54.4599 64.771 54.4514C64.936 54.446 64.9772 54.5239 64.9757 54.6724C64.9708 55.1896 64.9739 55.707 64.9741 56.2241C64.9741 56.2952 64.979 56.3665 64.9734 56.4371C64.9612 56.5917 65.024 56.6561 65.183 56.6517C65.4668 56.6439 65.751 56.6498 66.035 56.6498C66.3292 56.6498 66.6233 56.6524 66.9174 56.6488C67.1628 56.6458 67.1668 56.6427 67.168 56.3884C67.1706 55.8406 67.1677 55.2931 67.1694 54.7453C67.1703 54.4578 67.1725 54.4566 67.451 54.4535C67.6539 54.4514 67.8567 54.451 68.0595 54.4538C68.3202 54.4573 68.3235 54.459 68.3242 54.7314C68.3261 55.4211 68.3249 56.1107 68.3249 56.8004C68.3245 56.9425 68.3245 57.0844 68.3245 57.2265Z" fill="white" fill-opacity="0.4"/>
<path d="M107.739 57.1761C107.739 56.3648 107.738 55.5536 107.739 54.7423C107.74 54.4576 107.742 54.4543 108.024 54.4538C108.926 54.4521 109.829 54.4524 110.732 54.4538C111.022 54.4543 111.023 54.4569 111.026 54.7326C111.028 54.8745 111.02 55.0169 111.028 55.1585C111.037 55.3185 110.966 55.37 110.813 55.3684C110.316 55.3627 109.819 55.3665 109.322 55.3665C109.241 55.3665 109.159 55.37 109.078 55.3667C108.953 55.3616 108.892 55.4121 108.894 55.5441C108.898 55.8484 108.899 56.1526 108.894 56.4568C108.891 56.602 108.952 56.6526 109.093 56.6512C109.529 56.6465 109.965 56.6498 110.401 56.65C110.482 56.65 110.563 56.6547 110.644 56.6495C110.782 56.6406 110.852 56.6919 110.846 56.8397C110.84 57.0119 110.839 57.1846 110.847 57.3566C110.855 57.5183 110.782 57.5665 110.63 57.5644C110.194 57.5585 109.758 57.5608 109.322 57.563C108.845 57.5653 108.898 57.515 108.895 57.983C108.893 58.2568 108.891 58.5307 108.896 58.8044C108.9 59.0164 108.905 59.0227 109.126 59.0241C109.683 59.0279 110.241 59.0244 110.799 59.026C111.086 59.027 111.087 59.0291 111.091 59.3072C111.093 59.4491 111.084 59.5914 111.092 59.7331C111.102 59.8957 111.025 59.9408 110.874 59.9404C109.901 59.9366 108.927 59.9401 107.954 59.9368C107.747 59.9361 107.741 59.9274 107.74 59.7013C107.737 58.8597 107.739 58.0178 107.739 57.1761Z" fill="white" fill-opacity="0.4"/>
<path d="M111.248 44.4792C111.278 44.6735 111.307 44.8417 111.33 45.0109C111.347 45.1363 111.304 45.222 111.169 45.2617C110.67 45.409 110.172 45.5173 109.648 45.3787C109.083 45.2293 108.778 44.8481 108.661 44.3008C108.602 44.0243 108.6 43.7392 108.582 43.4563C108.488 41.9869 108.562 40.5163 108.537 39.0465C108.537 39.0161 108.534 38.9853 108.537 38.9552C108.551 38.8006 108.485 38.7361 108.327 38.7401C108.033 38.7476 107.738 38.7422 107.444 38.7417C107.373 38.7417 107.302 38.7403 107.231 38.7403C107.136 38.7403 107.088 38.7027 107.072 38.5999C106.994 38.0714 107.044 38.0088 107.573 38.0088C107.797 38.0088 108.02 38.0102 108.243 38.0086C108.532 38.0062 108.535 38.0053 108.536 37.7269C108.539 37.3312 108.545 36.9352 108.533 36.5396C108.528 36.3568 108.587 36.2568 108.766 36.2097C108.922 36.1688 109.07 36.0975 109.224 36.0479C109.428 35.982 109.446 35.9933 109.448 36.2166C109.452 36.6427 109.449 37.069 109.449 37.4952C109.449 37.5763 109.448 37.6575 109.45 37.7387C109.454 38.0039 109.455 38.0067 109.723 38.0081C110.139 38.0105 110.556 38.006 110.972 38.01C111.194 38.0121 111.202 38.0182 111.203 38.2281C111.206 38.753 111.242 38.6707 110.776 38.6756C110.4 38.6796 110.024 38.6801 109.649 38.6752C109.508 38.6733 109.442 38.7246 109.448 38.8697C109.454 39.0015 109.449 39.1335 109.449 39.2655C109.449 40.5036 109.449 41.7415 109.449 42.9796C109.449 43.2427 109.47 43.5036 109.494 43.7662C109.564 44.517 110.24 44.7255 110.715 44.6192C110.882 44.5824 111.046 44.5328 111.248 44.4792Z" fill="white" fill-opacity="0.4"/>
<path d="M143.03 44.4943C143.043 44.5086 143.053 44.515 143.056 44.5239C143.259 45.094 143.134 45.2957 142.546 45.3815C142.245 45.4255 141.945 45.4811 141.643 45.4199C140.929 45.2761 140.552 44.8463 140.447 44.1152C140.397 43.7721 140.388 43.4303 140.388 43.0863C140.387 41.778 140.388 40.4698 140.388 39.1613C140.388 39.1004 140.389 39.0397 140.387 38.9787C140.38 38.7496 140.38 38.7456 140.142 38.7427C139.808 38.739 139.473 38.7368 139.138 38.7434C138.985 38.7463 138.92 38.6936 138.922 38.5338C138.931 37.9008 138.864 38.0206 139.43 38.0098C139.673 38.0051 139.917 38.0124 140.16 38.0077C140.377 38.0034 140.384 37.9983 140.386 37.7844C140.39 37.3585 140.395 36.9321 140.383 36.5067C140.379 36.3364 140.43 36.2439 140.597 36.2001C140.743 36.162 140.884 36.1011 141.026 36.0491C141.257 35.9651 141.295 35.9863 141.297 36.2277C141.301 36.6839 141.298 37.1404 141.298 37.5968C141.298 37.6679 141.304 37.7392 141.298 37.8098C141.284 37.9785 141.377 38.0136 141.522 38.0105C141.796 38.0051 142.07 38.0088 142.343 38.0091C142.506 38.0091 142.668 38.0133 142.83 38.0086C142.961 38.0048 143.009 38.0634 143.009 38.191C143.007 38.791 143.043 38.6665 142.556 38.6754C142.221 38.6818 141.886 38.674 141.552 38.6776C141.309 38.6801 141.3 38.6846 141.3 38.9077C141.299 40.4999 141.294 42.0921 141.306 43.6844C141.312 44.3545 141.912 44.7827 142.572 44.6199C142.727 44.5818 142.872 44.5034 143.03 44.4943Z" fill="white" fill-opacity="0.4"/>
<path d="M80.2659 57.1768C80.2659 56.3652 80.265 55.5535 80.2664 54.7419C80.2669 54.4577 80.2697 54.4544 80.5516 54.4539C81.4648 54.4523 82.3779 54.452 83.2911 54.4542C83.5443 54.4549 83.5539 54.4598 83.5481 54.7076C83.5431 54.9165 83.6415 55.1768 83.4942 55.3208C83.3593 55.4525 83.1064 55.3612 82.9062 55.3643C82.4497 55.3713 81.993 55.3638 81.5365 55.368C81.3229 55.3699 81.313 55.3808 81.3095 55.5925C81.3045 55.8765 81.3142 56.1608 81.3062 56.4448C81.3017 56.6076 81.3742 56.6535 81.5252 56.6518C82.0426 56.6466 82.5601 56.6488 83.0775 56.6504C83.3709 56.6513 83.3713 56.6532 83.3737 56.9577C83.3746 57.0895 83.3673 57.2219 83.3751 57.3532C83.3845 57.5113 83.3172 57.5664 83.1617 57.5645C82.6749 57.5584 82.1878 57.5624 81.7008 57.5626C81.6196 57.5626 81.5384 57.5643 81.4572 57.5643C81.3568 57.5643 81.3095 57.6144 81.3097 57.7142C81.3102 58.0996 81.3106 58.4852 81.3092 58.8706C81.3088 59.0175 81.4052 59.0259 81.5146 59.0257C82.0118 59.0248 82.509 59.0255 83.0062 59.0255C83.0873 59.0255 83.1685 59.025 83.2497 59.0257C83.5483 59.0283 83.5488 59.0285 83.5511 59.3283C83.5521 59.4499 83.5537 59.5718 83.5506 59.6935C83.545 59.9302 83.5438 59.9351 83.3135 59.9372C82.8975 59.9412 82.4815 59.9384 82.0655 59.9384C81.5784 59.9384 81.0913 59.9389 80.6045 59.9382C80.2678 59.9377 80.2666 59.9368 80.2662 59.6116C80.2652 58.8001 80.2659 57.9885 80.2659 57.1768Z" fill="white" fill-opacity="0.4"/>
<path d="M151.969 39.8024C151.969 38.1593 151.969 36.5163 151.969 34.8732C151.969 34.792 151.971 34.7108 151.97 34.6299C151.969 34.5299 152.017 34.4807 152.118 34.481C152.321 34.4814 152.524 34.4817 152.726 34.481C152.825 34.4805 152.877 34.5264 152.877 34.6276C152.877 34.6986 152.879 34.7694 152.879 34.8405C152.879 38.1772 152.879 41.5141 152.879 44.8508C152.879 44.9017 152.875 44.9525 152.879 45.0028C152.89 45.1447 152.827 45.1934 152.685 45.2021C151.969 45.2466 151.969 45.2501 151.969 44.549C151.969 42.9668 151.969 41.3845 151.969 39.8024Z" fill="white" fill-opacity="0.4"/>
<path d="M69.7257 39.1597C69.9457 38.8797 70.1062 38.5886 70.3384 38.3432C70.8295 37.8241 71.4455 37.7067 72.1198 37.7733C72.2946 37.7905 72.3377 37.8486 72.3431 38.0331C72.348 38.2053 72.3466 38.378 72.3438 38.5502C72.3398 38.8091 72.3393 38.8015 72.0873 38.766C71.6803 38.7088 71.281 38.7307 70.901 38.9117C70.6535 39.0295 70.4749 39.2121 70.3438 39.4512C70.0455 39.9952 69.8972 40.5714 69.9026 41.1957C69.9132 42.3926 69.905 43.5895 69.9045 44.7865C69.9045 44.8575 69.9005 44.9288 69.905 44.9994C69.9137 45.1389 69.8577 45.2098 69.7116 45.1994C69.6511 45.1952 69.5899 45.1992 69.529 45.1992C68.9626 45.2001 68.9549 45.2001 68.9445 44.6192C68.9323 43.9397 68.9648 43.2582 68.925 42.5808C68.8676 41.6084 68.9106 40.6349 68.8596 39.6646C68.8342 39.1787 68.8243 38.6938 68.817 38.2084C68.8132 37.9507 68.8205 37.9488 69.0633 37.9437C69.2153 37.9404 69.368 37.9498 69.5198 37.9415C69.6822 37.9328 69.7304 38.0091 69.7276 38.1599C69.7215 38.4933 69.7257 38.8265 69.7257 39.1597Z" fill="white" fill-opacity="0.4"/>
<path d="M74.606 39.8353C74.606 41.488 74.606 43.1409 74.606 44.7936C74.606 44.8748 74.6034 44.956 74.605 45.0369C74.6071 45.1527 74.5481 45.2002 74.4368 45.1988C74.2542 45.1967 74.0718 45.1969 73.8892 45.1971C73.7869 45.1971 73.7443 45.1421 73.7441 45.0449C73.7441 44.9738 73.7424 44.903 73.7424 44.832C73.7424 41.5061 73.7424 38.1802 73.7424 34.8546C73.7424 34.4501 73.7196 34.4769 74.1248 34.48C74.6735 34.4842 74.6043 34.4103 74.6052 34.9682C74.6078 36.5906 74.606 38.2129 74.606 39.8353Z" fill="white" fill-opacity="0.4"/>
<path d="M129.846 57.6539C129.846 58.3335 129.848 59.0132 129.845 59.6928C129.844 59.9302 129.839 59.9335 129.609 59.9375C129.386 59.9415 129.163 59.9353 128.94 59.9389C128.815 59.9408 128.748 59.8951 128.755 59.7622C128.759 59.6913 128.755 59.6203 128.755 59.5492C128.755 58.2916 128.755 57.0337 128.755 55.7761C128.755 55.705 128.751 55.6337 128.755 55.5631C128.765 55.4205 128.703 55.3631 128.56 55.3655C128.255 55.3709 127.951 55.3666 127.647 55.3666C127.113 55.3666 127.113 55.3666 127.114 54.8398C127.115 54.4361 127.078 54.4532 127.485 54.4532C128.702 54.4535 129.92 54.4532 131.137 54.4535C131.208 54.4535 131.279 54.4551 131.35 54.4563C131.435 54.4577 131.484 54.5015 131.484 54.5862C131.486 54.7789 131.491 54.9718 131.481 55.1638C131.473 55.3076 131.391 55.3721 131.238 55.3688C130.883 55.361 130.528 55.3657 130.173 55.3666C129.848 55.3676 129.847 55.3683 129.846 55.7064C129.845 56.3556 129.846 57.0048 129.846 57.6539Z" fill="white" fill-opacity="0.4"/>
<path d="M76.8481 57.6258C76.8481 56.9769 76.8488 56.3279 76.8476 55.6788C76.8471 55.3684 76.8453 55.3677 76.5234 55.3665C76.1582 55.3653 75.7933 55.3696 75.4281 55.3646C75.2165 55.3618 75.2102 55.3524 75.2048 55.1366C75.2005 54.9644 75.206 54.7919 75.2043 54.6195C75.2034 54.5065 75.2547 54.4508 75.3688 54.4536C75.4194 54.455 75.4702 54.4526 75.5208 54.4526C76.7478 54.4526 77.9749 54.4526 79.202 54.4526C79.2629 54.4526 79.3236 54.455 79.3845 54.4548C79.4857 54.4543 79.5314 54.5056 79.5311 54.6049C79.5307 54.7875 79.5262 54.97 79.5342 55.1524C79.541 55.306 79.4853 55.3715 79.3248 55.3679C78.97 55.3604 78.6149 55.3646 78.2601 55.3663C77.9587 55.3677 77.9561 55.3691 77.9558 55.6675C77.9549 56.9653 77.9556 58.2635 77.9554 59.5613C77.9554 59.9675 77.9782 59.9371 77.5742 59.938C77.4118 59.9383 77.2495 59.9411 77.0874 59.9371C76.8556 59.9317 76.85 59.9296 76.8488 59.6938C76.8462 59.0051 76.8483 58.3155 76.8481 57.6258Z" fill="white" fill-opacity="0.4"/>
<path d="M84.6566 57.1838C84.6566 56.4027 84.6566 55.6213 84.6566 54.8401C84.6566 54.4184 84.6293 54.4542 85.0585 54.453C85.231 54.4525 85.4037 54.4497 85.5759 54.454C85.8046 54.4594 85.8053 54.4617 85.8117 54.701C85.8143 54.8024 85.8122 54.9038 85.8122 55.0055C85.8122 56.1925 85.8122 57.3796 85.8122 58.5667C85.8122 58.6276 85.8112 58.6883 85.8124 58.7493C85.8169 59.0198 85.8171 59.0231 86.0804 59.0245C86.5675 59.0271 87.0545 59.0253 87.5416 59.0253C87.6025 59.0253 87.6637 59.0295 87.7242 59.0248C87.8736 59.013 87.9522 59.065 87.9439 59.2293C87.9352 59.4013 87.9371 59.5742 87.9435 59.7464C87.9489 59.8928 87.8823 59.9429 87.7428 59.9396C87.5096 59.934 87.2759 59.9384 87.0428 59.9384C86.3324 59.9384 85.6223 59.9401 84.9119 59.9375C84.6632 59.9365 84.6585 59.9318 84.6578 59.6798C84.6552 58.8478 84.6566 58.0158 84.6566 57.1838Z" fill="white" fill-opacity="0.4"/>
<path d="M113.711 41.5728C113.711 42.659 113.711 43.7451 113.711 44.8312C113.711 44.9124 113.711 44.9935 113.707 45.0747C113.704 45.1439 113.668 45.1931 113.596 45.1943C113.373 45.1975 113.149 45.1973 112.926 45.1954C112.84 45.1947 112.802 45.1411 112.801 45.0578C112.8 44.9867 112.798 44.9157 112.798 44.8446C112.798 42.6623 112.798 40.4799 112.798 38.2975C112.798 38.2467 112.801 38.1959 112.798 38.1453C112.788 38.0072 112.842 37.9368 112.989 37.9427C113.141 37.9488 113.294 37.9415 113.446 37.9439C113.706 37.9481 113.71 37.9493 113.711 38.2234C113.712 39.3397 113.711 40.4564 113.711 41.5728Z" fill="white" fill-opacity="0.4"/>
<path d="M78.2574 41.8491C77.7211 41.8491 77.1847 41.8517 76.6484 41.8477C76.435 41.8461 76.4308 41.8378 76.4251 41.6218C76.4207 41.4498 76.4209 41.2778 76.4251 41.1058C76.4306 40.8802 76.4331 40.8755 76.6729 40.8741C77.2395 40.871 77.8063 40.8729 78.3729 40.8729C78.8687 40.8729 79.3647 40.8703 79.8604 40.8743C80.0734 40.8762 80.0788 40.8851 80.0844 41.0997C80.0889 41.2717 80.0889 41.4437 80.0847 41.6157C80.079 41.8416 80.0764 41.8463 79.836 41.848C79.3096 41.8515 78.7835 41.8491 78.2574 41.8491Z" fill="white" fill-opacity="0.4"/>
<path d="M112.911 35.322C112.911 35.1907 112.915 35.0591 112.911 34.9279C112.906 34.7959 112.944 34.7149 113.097 34.721C113.268 34.7281 113.44 34.725 113.612 34.722C113.748 34.7196 113.822 34.7782 113.822 34.918C113.822 35.1909 113.823 35.4636 113.822 35.7366C113.822 35.8688 113.763 35.9453 113.621 35.9438C113.439 35.942 113.257 35.9422 113.075 35.9436C112.961 35.9446 112.911 35.8888 112.912 35.777C112.913 35.6255 112.912 35.474 112.912 35.3224C112.912 35.322 112.911 35.322 112.911 35.322Z" fill="white" fill-opacity="0.4"/>
</svg>
