<svg width="200" height="60" viewBox="0 0 200 60" fill="none" xmlns="http://www.w3.org/2000/svg">
<path d="M100.198 15.7706C100.796 15.8241 101.371 15.8577 101.94 15.9373C102.421 16.0046 102.901 16.1048 103.371 16.2274C103.982 16.3863 104.59 16.5591 105.186 16.7666C106.247 17.1366 107.228 17.664 108.163 18.2922C109.191 18.983 110.129 19.7713 110.968 20.678C112.693 22.5425 113.888 24.6994 114.539 27.1592C114.911 28.5622 115.073 29.9868 115.04 31.434C115.029 31.8995 114.98 32.3646 114.933 32.8282C114.926 32.894 114.836 32.9912 114.771 33.0045C114.314 33.0972 113.851 33.1563 113.398 33.2602C113.247 33.2947 113.086 33.4012 112.987 33.522C111.909 34.8422 110.699 36.0167 109.315 37.0178C108.437 37.6524 107.467 38.0173 106.421 38.2506C105.251 38.5117 104.061 38.5448 102.875 38.6387C102.809 38.644 102.742 38.6316 102.614 38.6236C102.833 38.4666 103.014 38.3474 103.183 38.2131C103.683 37.8164 104.185 37.4189 104.515 36.858C105.003 36.0296 104.741 35.1108 103.946 34.5526C103.663 34.3545 103.452 34.4366 103.215 34.5172C101.818 34.992 100.382 35.1102 98.923 35.0057C97.9185 34.9337 97.0078 34.5965 96.144 34.064C95.1814 33.4705 94.1112 33.1071 93.0152 32.8262C91.842 32.5256 90.6531 32.3565 89.4405 32.375C88.6611 32.3869 87.8795 32.3771 87.103 32.4334C86.5433 32.4739 85.9903 32.607 85.4344 32.6994C85.2404 32.7317 85.0462 32.7629 84.8532 32.8005C84.7126 32.8279 84.666 32.7628 84.661 32.6342C84.5836 30.645 84.6059 28.6729 85.1956 26.7356C85.96 24.224 87.2525 22.0435 89.1093 20.1985C89.6439 19.6674 90.1989 19.1465 90.8013 18.6972C91.3661 18.276 92 17.9451 92.6143 17.5933C93.5499 17.0574 94.5474 16.6574 95.5856 16.3797C96.3075 16.1867 97.0458 16.0338 97.7865 15.9382C98.5762 15.8362 99.3773 15.8228 100.198 15.7706Z" fill="white" fill-opacity="0.4"/>
<path d="M85.9804 37.4196C85.4893 36.3865 85.146 35.3251 84.9224 34.2243C84.8635 33.9344 84.9278 33.8368 85.2009 33.7529C85.9997 33.5073 86.8206 33.4005 87.6515 33.364C88.3212 33.3347 88.9937 33.2786 89.6611 33.3119C90.3567 33.3466 91.0542 33.4403 91.739 33.5709C92.4279 33.7023 93.105 33.9001 93.7819 34.0884C94.5744 34.3089 95.309 34.6721 96.0094 35.0943C96.7894 35.5646 97.6248 35.7998 98.5266 35.9152C99.4157 36.029 100.299 36.0294 101.179 35.9439C101.8 35.8835 102.41 35.7086 103.024 35.5801C103.182 35.5471 103.335 35.496 103.495 35.452C103.862 35.8123 103.885 36.1673 103.535 36.5628C102.738 37.4634 101.761 38.1062 100.64 38.5299C99.554 38.9402 98.4289 39.103 97.2699 39.0287C97.2189 39.0254 97.1676 39.0283 97.0406 39.0283C97.1274 39.1098 97.1645 39.1751 97.2136 39.186C97.7441 39.3034 98.2719 39.4465 98.809 39.5171C100.355 39.7204 101.91 39.6304 103.461 39.5777C104.222 39.5517 104.99 39.5001 105.738 39.3668C106.595 39.2141 107.456 39.0196 108.273 38.7253C108.835 38.5228 109.349 38.1533 109.84 37.7973C110.477 37.3353 111.104 36.8477 111.674 36.3069C112.359 35.6567 112.975 34.9333 113.634 34.2547C113.782 34.1025 113.97 33.9484 114.167 33.8936C114.556 33.7851 114.766 34.0214 114.67 34.4218C114.58 34.7975 114.484 35.1729 114.367 35.5409C113.898 37.0176 113.238 38.403 112.354 39.6781C111.162 41.3971 109.68 42.8115 107.913 43.9344C106.507 44.8285 104.991 45.4599 103.378 45.8532C101.999 46.1896 100.592 46.3377 99.1724 46.2668C97.3829 46.1774 95.6457 45.8208 93.9898 45.1244C92.5626 44.5243 91.2468 43.7336 90.0563 42.7387C88.7159 41.6184 87.582 40.323 86.718 38.8003C86.4638 38.3523 86.2312 37.892 85.9804 37.4196Z" fill="white" fill-opacity="0.4"/>
<path d="M98.7189 14.5771C98.4222 14.6107 98.1494 14.6373 97.8784 14.6762C97.414 14.743 96.9439 14.7885 96.4886 14.896C95.9023 15.0344 95.321 15.2037 94.7511 15.3993C94.2136 15.5839 93.6804 15.7922 93.1687 16.0388C92.0751 16.5657 91.0617 17.225 90.1201 17.9928C89.8556 18.2086 89.5925 18.4262 89.3253 18.6386C89.2901 18.6666 89.2346 18.6692 89.1211 18.7044C89.3619 18.4008 89.5604 18.1506 89.7587 17.9003C90.3251 17.1851 90.9158 16.4877 91.4525 15.7509C92.5017 14.3105 93.5476 12.8662 94.5423 11.3882C95.1617 10.4679 95.7245 9.50374 96.2405 8.52138C96.8201 7.41803 97.3705 6.29306 97.8377 5.13866C98.3138 3.96203 98.6813 2.74084 99.0795 1.53359C99.2192 1.11023 99.308 0.670145 99.422 0.238215C99.4426 0.160225 99.4727 0.0847624 99.4985 0.0081324C99.5243 0.00542145 99.5501 0.00271094 99.5759 0C99.6297 0.172031 99.6839 0.343955 99.7373 0.51611C100.114 1.72947 100.453 2.95616 100.875 4.15323C101.551 6.06541 102.458 7.87499 103.473 9.628C104.442 11.2996 105.509 12.9082 106.686 14.4402C107.493 15.4904 108.338 16.511 109.162 17.548C109.211 17.6088 109.223 17.6985 109.267 17.8158C108.689 17.4253 108.176 17.0492 107.634 16.7195C106.466 16.008 105.212 15.471 103.895 15.1168C103.056 14.8913 102.189 14.7419 101.324 14.6531C100.471 14.5653 99.6043 14.5966 98.7189 14.5771Z" fill="white" fill-opacity="0.4"/>
<path d="M124.283 52.2955C124.279 54.3706 124.276 56.4197 124.268 58.4689C124.267 58.6925 124.26 58.922 124.21 59.1382C124.1 59.6157 123.763 59.8701 123.3 59.9753C123.257 59.9849 123.215 59.9989 123.172 59.9989C122.241 60.0003 121.309 60 120.339 60C120.339 59.7081 120.33 59.4176 120.342 59.1279C120.35 58.9328 120.512 58.9373 120.651 58.9367C121.239 58.9342 121.827 58.9362 122.415 58.935C122.81 58.9342 122.884 58.8604 122.886 58.4692C122.887 58.1518 122.886 57.8345 122.886 57.4728C122.814 57.5138 122.757 57.549 122.698 57.5794C122.541 57.6596 122.384 57.8015 122.225 57.8045C121.756 57.8133 121.274 57.821 120.819 57.7268C120.355 57.631 120.095 57.2491 120.082 56.7806C120.05 55.58 120.05 54.3785 120.044 53.1773C120.042 52.6848 120.038 52.191 120.07 51.7001C120.115 51.0057 120.502 50.6195 121.224 50.5462C121.587 50.5093 121.963 50.5481 122.326 50.6009C122.508 50.6273 122.674 50.7616 122.876 50.8614C122.865 50.5258 123.063 50.5146 123.3 50.5306C123.533 50.5463 123.768 50.5488 124 50.5296C124.23 50.5105 124.28 50.6171 124.278 50.8172C124.273 51.3013 124.281 51.7854 124.283 52.2955ZM122.879 52.944C122.879 52.6679 122.885 52.3916 122.877 52.1157C122.868 51.8204 122.75 51.6981 122.457 51.6825C122.25 51.6715 122.043 51.679 121.836 51.6805C121.538 51.6827 121.441 51.7782 121.438 52.0844C121.434 52.464 121.438 52.8437 121.437 53.2234C121.436 54.25 121.434 55.2767 121.433 56.3034C121.433 56.594 121.529 56.7053 121.794 56.7119C121.975 56.7164 122.156 56.7113 122.337 56.7085C122.75 56.7023 122.886 56.5629 122.885 56.1537C122.883 55.1011 122.881 54.0485 122.879 52.944Z" fill="white" fill-opacity="0.4"/>
<path d="M75.2888 48.9628C75.5297 48.6423 75.8453 48.4998 76.2172 48.496C76.8986 48.4891 77.5806 48.4808 78.2613 48.5042C78.8485 48.5244 79.2758 48.8855 79.3305 49.4645C79.3837 50.0273 79.3421 50.599 79.3421 51.1826C78.8921 51.1826 78.4642 51.1826 77.9963 51.1826C77.9963 50.8076 77.9976 50.4308 77.996 50.0541C77.9944 49.6902 77.8788 49.5698 77.5189 49.5633C77.2856 49.5591 77.0516 49.5543 76.8189 49.5672C76.5509 49.5821 76.4483 49.6923 76.4467 49.9568C76.4425 50.6829 76.4426 51.4091 76.4437 52.1352C76.4441 52.4376 76.5355 52.5374 76.8453 52.5461C77.2427 52.5572 77.6406 52.5481 78.0382 52.5548C78.9624 52.5703 79.3814 52.9831 79.3893 53.9078C79.3956 54.6504 79.3825 55.3933 79.3721 56.1359C79.3678 56.4447 79.383 56.7596 79.3275 57.0604C79.2297 57.5905 78.8271 57.8656 78.3386 57.887C77.5413 57.922 76.7381 57.8941 75.9411 57.8389C75.4222 57.803 75.1322 57.2668 75.1078 56.8247C75.0822 56.3592 75.1013 55.8913 75.0969 55.4246C75.0956 55.2817 75.1301 55.1977 75.3001 55.203C75.6196 55.2131 75.9398 55.2096 76.2596 55.2051C76.4044 55.203 76.4564 55.2598 76.453 55.4064C76.4458 55.7261 76.4469 56.0463 76.4577 56.3659C76.4693 56.7076 76.578 56.8079 76.9151 56.812C77.1485 56.8148 77.3823 56.8054 77.6152 56.8157C77.8648 56.8268 77.9944 56.6997 77.997 56.4695C78.0062 55.657 78.0107 54.8441 77.9963 54.0318C77.9906 53.7056 77.9196 53.6503 77.5879 53.6357C77.0706 53.6131 76.5514 53.6238 76.0354 53.5873C75.5327 53.5517 75.1168 53.117 75.1003 52.6095C75.0697 51.6691 75.0455 50.7277 75.0581 49.7872C75.0617 49.5164 75.2002 49.2474 75.2888 48.9628Z" fill="white" fill-opacity="0.4"/>
<path d="M72.4814 53.6442C71.9502 53.6264 71.4405 53.6324 70.9356 53.586C70.2343 53.5216 69.9339 53.0548 69.9187 52.4393C69.8949 51.4806 69.8994 50.5206 69.9175 49.5616C69.9277 49.0194 70.3245 48.5596 70.8835 48.5134C71.6129 48.4531 72.3522 48.4319 73.0818 48.4783C73.7968 48.5239 74.1537 48.9597 74.1788 49.533C74.2028 50.0793 74.184 50.6275 74.184 51.1875C73.7227 51.1875 73.2931 51.1875 72.8197 51.1875C72.8197 50.8132 72.8197 50.4462 72.8197 50.0793C72.8197 49.6336 72.7654 49.582 72.3099 49.5751C72.1036 49.5719 71.8972 49.5623 71.6912 49.55C71.4595 49.5361 71.2739 49.734 71.2698 50.0302C71.2628 50.5314 71.2677 51.0327 71.2677 51.5339C71.2677 51.6982 71.2638 51.8625 71.2688 52.0266C71.2808 52.4145 71.3981 52.5341 71.7805 52.5475C72.246 52.5639 72.7116 52.5759 73.1772 52.5908C73.5599 52.6031 73.8702 52.7632 74.0471 53.102C74.1434 53.2863 74.2131 53.5074 74.2167 53.7133C74.2346 54.7413 74.2383 55.7699 74.2233 56.7979C74.2147 57.3851 73.7482 57.8719 73.1632 57.8964C72.4741 57.9253 71.7816 57.9385 71.0933 57.9043C70.3477 57.8673 69.9631 57.4249 69.9548 56.6819C69.9502 56.2671 69.957 55.8522 69.9488 55.4375C69.9454 55.2654 69.9943 55.1876 70.1835 55.1962C70.494 55.2104 70.8057 55.2045 71.1167 55.1988C71.2617 55.1962 71.3173 55.2535 71.3148 55.398C71.309 55.7263 71.3112 56.0548 71.3137 56.3831C71.3163 56.7203 71.4015 56.8063 71.7433 56.812C71.9938 56.8162 72.2445 56.811 72.4951 56.8125C72.6969 56.8137 72.8251 56.7434 72.8244 56.5155C72.8221 55.6699 72.8194 54.8243 72.8263 53.9788C72.8281 53.7474 72.7256 53.647 72.4814 53.6442Z" fill="white" fill-opacity="0.4"/>
<path d="M99.9576 57.9449C99.8228 57.9367 99.7128 57.9282 99.5828 57.9181C99.5828 57.804 99.5828 57.7105 99.5828 57.6169C99.5834 55.7929 99.5842 53.969 99.5843 52.145C99.5843 51.7495 99.5097 51.674 99.1199 51.6726C98.9125 51.6719 98.705 51.6765 98.4976 51.6761C98.2829 51.6757 98.151 51.7921 98.1308 51.9918C98.1021 52.274 98.0997 52.5597 98.0997 52.8438C98.0995 54.4083 98.1052 55.9728 98.1046 57.5372C98.1045 57.9522 98.0975 57.9498 97.6899 57.9445C97.3808 57.9406 97.0716 57.9438 96.7496 57.9438C96.7418 57.8217 96.7328 57.7464 96.7328 57.6712C96.7321 54.9915 96.7321 52.3119 96.7323 49.6322C96.7324 49.2015 96.7257 48.7705 96.7374 48.34C96.7485 47.9303 96.8423 47.8463 97.2549 47.8348C97.419 47.8302 97.5841 47.8435 97.7475 47.8311C97.9912 47.8127 98.086 47.9052 98.0843 48.1578C98.0789 48.9959 98.0921 49.8341 98.099 50.6722C98.0994 50.7224 98.1068 50.7726 98.1141 50.861C98.1912 50.8337 98.251 50.8173 98.3069 50.792C98.4843 50.7118 98.6578 50.5659 98.8374 50.5585C99.2561 50.5413 99.6857 50.5468 100.096 50.6233C100.604 50.718 100.927 51.1216 100.93 51.6373C100.942 53.7199 100.935 55.8026 100.935 57.9446C100.612 57.9446 100.297 57.9446 99.9576 57.9449Z" fill="white" fill-opacity="0.4"/>
<path d="M111.514 53.9038C111.514 54.8456 111.521 55.7616 111.511 56.6774C111.504 57.3687 111.205 57.7939 110.527 57.8829C109.658 57.9972 108.772 58.0331 107.903 57.8412C107.431 57.7369 107.108 57.3122 107.106 56.8238C107.1 55.1217 107.079 53.419 107.112 51.7175C107.127 50.9421 107.552 50.6062 108.352 50.544C108.97 50.496 109.598 50.503 110.217 50.5434C110.983 50.5934 111.493 50.8659 111.512 51.9076C111.524 52.5641 111.514 53.2211 111.514 53.9038ZM109.261 56.8498C109.425 56.8493 109.59 56.8535 109.754 56.8473C110.075 56.835 110.164 56.7462 110.167 56.4176C110.172 55.9251 110.166 55.4326 110.166 54.9401C110.166 53.9982 110.168 53.0563 110.168 52.1144C110.168 51.7327 110.055 51.6187 109.685 51.6179C109.469 51.6174 109.253 51.6178 109.037 51.6178C108.527 51.6178 108.444 51.6997 108.444 52.2162C108.442 53.503 108.446 54.7899 108.438 56.0767C108.433 56.8331 108.457 56.865 109.261 56.8498Z" fill="white" fill-opacity="0.4"/>
<path d="M119.198 51.6453C119.198 53.3279 119.2 54.9871 119.193 56.6461C119.19 57.3673 118.89 57.7903 118.181 57.8847C117.346 57.996 116.496 58.0181 115.658 57.8506C115.074 57.7339 114.792 57.3239 114.785 56.7685C114.768 55.2651 114.772 53.7615 114.771 52.2579C114.771 52.0257 114.758 51.7868 114.805 51.5623C114.972 50.764 115.412 50.5876 116.092 50.5417C116.711 50.4999 117.338 50.5002 117.957 50.544C118.625 50.5912 119.058 50.856 119.198 51.6453ZM117.044 51.6174C116.923 51.6174 116.802 51.6173 116.681 51.6174C116.2 51.618 116.139 51.6793 116.139 52.1719C116.138 53.4063 116.138 54.6407 116.138 55.875C116.138 56.0896 116.143 56.3041 116.14 56.5186C116.137 56.7535 116.277 56.8427 116.482 56.8471C116.819 56.8542 117.156 56.8568 117.492 56.8443C117.717 56.836 117.855 56.7221 117.855 56.4733C117.852 54.98 117.855 53.4868 117.851 51.9935C117.85 51.7621 117.709 51.6374 117.483 51.6196C117.354 51.6094 117.224 51.6175 117.044 51.6174Z" fill="white" fill-opacity="0.4"/>
<path d="M130.547 50.5372C130.994 50.5774 131.439 50.5934 131.69 51.0028C131.82 51.2145 131.936 51.4728 131.944 51.714C131.976 52.6121 131.953 53.512 131.968 54.411C131.972 54.6419 131.882 54.6838 131.678 54.6812C130.926 54.6717 130.174 54.6769 129.422 54.6766C129.294 54.6766 129.165 54.6766 128.978 54.6766C128.978 54.9214 128.977 55.1395 128.978 55.3576C128.981 55.7371 128.988 56.1165 128.988 56.4959C128.987 56.7402 129.14 56.8365 129.346 56.8479C129.638 56.8642 129.933 56.8593 130.227 56.8504C130.465 56.8432 130.586 56.7007 130.593 56.4679C130.6 56.2532 130.594 56.0381 130.594 55.8016C131.042 55.8016 131.46 55.8016 131.914 55.8016C131.881 56.3376 132.03 56.8689 131.73 57.3709C131.534 57.6999 131.241 57.8798 130.89 57.894C130.149 57.924 129.405 57.9309 128.664 57.8913C128.076 57.8599 127.658 57.3763 127.653 56.7875C127.639 55.1623 127.63 53.537 127.634 51.9118C127.636 50.9291 128.161 50.5705 129.044 50.5401C129.537 50.5232 130.03 50.5371 130.547 50.5372ZM129.498 53.6494C129.865 53.6494 130.232 53.6494 130.612 53.6494C130.612 53.0507 130.629 52.4913 130.598 51.9345C130.592 51.8238 130.415 51.6498 130.298 51.6323C130.002 51.5882 129.695 51.6046 129.394 51.6199C129.168 51.6315 128.985 51.7163 128.985 51.9979C128.985 52.3854 128.971 52.773 128.97 53.1606C128.97 53.319 128.988 53.4774 128.999 53.6497C129.172 53.6497 129.31 53.6497 129.498 53.6494Z" fill="white" fill-opacity="0.4"/>
<path d="M90.8331 55.9989C90.8163 56.3547 90.8325 56.695 90.773 57.0215C90.6768 57.5496 90.3081 57.8404 89.7916 57.8932C89.011 57.9729 88.2269 58.0059 87.4476 57.8514C86.9198 57.7467 86.567 57.3192 86.5709 56.7638C86.5781 55.737 86.5949 54.7101 86.5961 53.6833C86.5968 53.0621 86.5526 52.4401 86.5708 51.8198C86.5896 51.1805 86.86 50.6389 87.6053 50.5919C88.3842 50.5428 89.1706 50.5619 89.951 50.6037C90.4361 50.6297 90.8603 51.1616 90.865 51.6705C90.8736 52.5862 90.8633 53.5021 90.8707 54.4178C90.8723 54.6093 90.7909 54.6421 90.6226 54.6427C89.7699 54.6458 88.9172 54.6596 88.0645 54.6704C88.0227 54.671 87.981 54.6789 87.9048 54.687C87.9048 54.9221 87.9045 55.1522 87.9049 55.3823C87.9055 55.7601 87.9075 56.1379 87.9072 56.5158C87.907 56.7453 88.0425 56.8438 88.2488 56.8499C88.5509 56.8587 88.8535 56.8559 89.1557 56.8492C89.4452 56.8427 89.4948 56.6283 89.5134 56.4033C89.5595 55.8436 89.5569 55.84 90.1199 55.7889C90.2914 55.7733 90.4651 55.7848 90.6376 55.7778C90.781 55.772 90.8456 55.8342 90.8331 55.9989ZM89.5177 52.0369C89.4642 51.7175 89.3798 51.6363 89.0632 51.6258C88.8389 51.6183 88.6138 51.6179 88.3895 51.6262C88.0634 51.6381 87.923 51.782 87.9153 52.1126C87.9058 52.5183 87.9035 52.9243 87.9019 53.3301C87.9015 53.4376 87.915 53.5451 87.9217 53.6469C88.3993 53.6469 88.8467 53.6395 89.2937 53.6504C89.4828 53.655 89.5268 53.5776 89.5231 53.4053C89.5137 52.9649 89.5194 52.5242 89.5177 52.0369Z" fill="white" fill-opacity="0.4"/>
<path d="M101.954 54.4896C101.958 53.265 101.967 52.0633 101.961 50.8617C101.96 50.6437 102.022 50.5417 102.245 50.5435C102.547 50.5459 102.85 50.5291 103.152 50.5424C103.21 50.5449 103.281 50.64 103.313 50.7079C103.343 50.7691 103.328 50.8516 103.335 50.9542C103.94 50.3389 104.652 50.5073 105.334 50.6269C105.828 50.7136 106.16 51.1489 106.164 51.7088C106.182 53.7658 106.171 55.823 106.171 57.9394C105.742 57.9394 105.323 57.9477 104.906 57.9272C104.862 57.925 104.792 57.7537 104.792 57.6605C104.782 56.1044 104.782 54.5482 104.78 52.992C104.78 52.6634 104.776 52.3348 104.782 52.0064C104.786 51.7767 104.677 51.6733 104.453 51.6747C104.255 51.6759 104.056 51.6723 103.857 51.6744C103.432 51.6789 103.318 51.792 103.318 52.2125C103.318 54.0108 103.318 55.8091 103.318 57.6075C103.318 57.709 103.318 57.8105 103.318 57.925C102.856 57.925 102.421 57.925 101.953 57.925C101.953 56.7736 101.953 55.643 101.954 54.4896Z" fill="white" fill-opacity="0.4"/>
<path d="M133.687 50.5834C134.337 50.5816 134.967 50.5381 135.589 50.5922C136.173 50.6429 136.522 51.0603 136.574 51.6462C136.597 51.9035 136.591 52.1653 136.571 52.4228C136.566 52.4887 136.458 52.5964 136.393 52.5995C136.032 52.6168 135.67 52.6078 135.275 52.6078C135.275 52.4186 135.28 52.2404 135.274 52.0625C135.264 51.7299 135.156 51.6053 134.832 51.602C134.571 51.5993 134.31 51.6354 133.99 51.6586C133.99 52.2778 133.986 52.8451 133.993 53.4123C133.995 53.586 134.084 53.7054 134.276 53.7121C134.604 53.7235 134.931 53.7481 135.259 53.7427C136.197 53.7272 136.621 54.2791 136.627 55.1151C136.63 55.5988 136.636 56.0828 136.625 56.5663C136.614 57.0696 136.49 57.5328 135.991 57.7717C135.803 57.8615 135.579 57.919 135.372 57.9168C134.737 57.9101 134.095 57.917 133.47 57.8228C132.986 57.7498 132.689 57.2688 132.687 56.7744C132.687 56.483 132.687 56.1917 132.687 55.8883C133.149 55.8883 133.569 55.8883 134.03 55.8883C134.03 56.1075 134.041 56.3207 134.027 56.5322C134.012 56.7466 134.143 56.835 134.311 56.8526C134.542 56.8767 134.777 56.8691 135.01 56.8576C135.177 56.8494 135.28 56.7512 135.28 56.5733C135.282 56.0808 135.282 55.5883 135.281 55.0958C135.28 54.8501 135.096 54.8016 134.912 54.793C134.601 54.7786 134.289 54.8008 133.979 54.7847C133.562 54.7631 133.134 54.6915 132.901 54.3073C132.754 54.0636 132.665 53.7563 132.642 53.4703C132.602 52.9464 132.609 52.416 132.634 51.8902C132.669 51.1454 132.968 50.6947 133.687 50.5834Z" fill="white" fill-opacity="0.4"/>
<path d="M93.8797 50.5366C94.233 50.5491 94.5646 50.5333 94.8869 50.5804C95.458 50.6638 95.7774 50.9602 95.8621 51.5239C95.9266 51.9529 95.9114 52.3938 95.9332 52.8614C95.4928 52.8614 95.106 52.8686 94.7202 52.8521C94.6722 52.8501 94.5991 52.7259 94.5902 52.652C94.5636 52.4298 94.5605 52.2045 94.5531 51.9802C94.5466 51.7829 94.4573 51.6738 94.2521 51.6745C93.9409 51.6754 93.6297 51.6779 93.3186 51.6751C93.1238 51.6733 93.0407 51.7893 93.0104 51.9583C92.9969 52.0342 93.0006 52.1135 93.0006 52.1912C92.9997 53.5918 92.9987 54.9923 92.9996 56.3928C92.9998 56.7219 93.088 56.8103 93.4081 56.8123C93.676 56.8139 93.9441 56.8155 94.212 56.8119C94.4239 56.809 94.5509 56.7136 94.5569 56.485C94.562 56.2953 94.5817 56.1061 94.589 55.9165C94.5965 55.7217 94.6759 55.6072 94.8872 55.6098C95.1638 55.6134 95.4409 55.603 95.7169 55.6162C95.7814 55.6193 95.8964 55.693 95.8967 55.7349C95.9 56.1558 95.9269 56.5833 95.8631 56.9961C95.7825 57.5185 95.4108 57.8308 94.8995 57.8877C94.1024 57.9764 93.3016 58.0006 92.5016 57.8543C92.0919 57.7793 91.6427 57.3055 91.6413 56.7726C91.6374 55.2684 91.6314 53.7642 91.6331 52.26C91.6334 51.9942 91.645 51.7247 91.6898 51.4635C91.7722 50.9833 92.1512 50.6337 92.6428 50.5886C93.0447 50.5517 93.45 50.5525 93.8797 50.5366Z" fill="white" fill-opacity="0.4"/>
<path d="M82.5472 48.4727C83.4773 48.4752 84.3834 48.4737 85.2895 48.4723C85.5634 48.4719 85.8373 48.4723 86.1309 48.4723C86.1309 48.8324 86.1309 49.1723 86.1309 49.5518C85.7224 49.5518 85.329 49.558 84.936 49.5496C84.6822 49.5442 84.5768 49.62 84.5564 49.882C84.5437 50.0452 84.5528 50.2102 84.5528 50.3743C84.5518 52.7937 84.5509 55.213 84.5501 57.6324C84.55 57.7176 84.55 57.8028 84.55 57.9381C84.1255 57.9381 83.723 57.9472 83.3222 57.9259C83.2749 57.9234 83.2002 57.7547 83.1996 57.6626C83.1912 56.5134 83.1942 55.3642 83.1943 54.215C83.1943 52.7461 83.1945 51.2772 83.1939 49.8083C83.1938 49.7403 83.1866 49.6723 83.1804 49.5624C82.6674 49.5624 82.1626 49.5624 81.6353 49.5624C81.6353 49.2208 81.6258 48.9207 81.6438 48.6224C81.6472 48.5662 81.7578 48.4762 81.824 48.4713C82.0559 48.454 82.29 48.4671 82.5472 48.4727Z" fill="white" fill-opacity="0.4"/>
<path d="M64.3603 55.927C64.3603 56.2285 64.3603 56.504 64.3603 56.8232C65.1253 56.8232 65.8882 56.8232 66.6752 56.8232C66.6752 57.207 66.6752 57.5479 66.6752 57.9162C65.4677 57.9162 64.249 57.9162 63.0001 57.9162C63.0001 57.4743 62.9998 57.0608 63.0002 56.6473C63.0028 54.0211 63.0086 51.3948 63.0033 48.7686C63.0028 48.5247 63.0839 48.4461 63.3168 48.458C63.5753 48.4711 63.8357 48.4708 64.0939 48.4542C64.3028 48.4407 64.3642 48.5207 64.3623 48.722C64.3545 49.5686 64.3591 50.4153 64.3592 51.2619C64.3595 52.8083 64.3599 54.3547 64.3603 55.927Z" fill="white" fill-opacity="0.4"/>
<path d="M113.835 55.8233C113.835 56.4542 113.828 57.0594 113.839 57.6642C113.843 57.8773 113.772 57.9575 113.558 57.9501C113.204 57.938 112.85 57.9468 112.458 57.9468C112.458 57.8388 112.458 57.7479 112.458 57.6569C112.458 54.6319 112.457 51.6069 112.457 48.5818C112.457 47.8326 112.46 47.8326 113.195 47.8306C113.842 47.8289 113.849 47.8289 113.851 48.4641C113.855 50.452 113.855 52.4399 113.853 54.4278C113.853 54.8843 113.842 55.3408 113.835 55.8233Z" fill="white" fill-opacity="0.4"/>
<path d="M67.3658 54.8376C67.3668 52.8246 67.3675 50.8376 67.3688 48.8506C67.3691 48.4973 67.4006 48.4644 67.7507 48.4594C67.9926 48.456 68.2348 48.4645 68.4763 48.4553C68.6515 48.4486 68.731 48.5095 68.7206 48.6934C68.7098 48.8828 68.7181 49.0734 68.7181 49.2634C68.7184 52.0366 68.7187 54.8098 68.719 57.583C68.719 57.6859 68.719 57.7888 68.719 57.9382C68.2902 57.9382 67.8794 57.9453 67.4697 57.9273C67.4284 57.9255 67.3614 57.7717 67.361 57.6882C67.3564 56.7467 67.3625 55.8051 67.3658 54.8376Z" fill="white" fill-opacity="0.4"/>
<path d="M126.659 53.4887C126.658 54.8804 126.652 56.2461 126.661 57.6117C126.663 57.8557 126.601 57.9611 126.342 57.9447C126.076 57.9277 125.807 57.939 125.539 57.9475C125.354 57.9535 125.283 57.888 125.287 57.6912C125.299 57.0864 125.294 56.4812 125.291 55.8761C125.284 54.3305 125.273 52.785 125.266 51.2394C125.263 50.5341 125.265 50.5341 125.97 50.5336C126.176 50.5335 126.383 50.5336 126.659 50.5336C126.659 51.5209 126.659 52.4918 126.659 53.4887Z" fill="white" fill-opacity="0.4"/>
<path d="M125.393 49.1352C125.345 48.9061 125.289 48.6747 125.303 48.448C125.345 47.789 125.357 47.7894 126.02 47.7912C126.743 47.7931 126.657 47.7255 126.684 48.4502C126.71 49.1312 126.702 49.1313 126.013 49.1316C125.814 49.1317 125.616 49.1339 125.393 49.1352Z" fill="white" fill-opacity="0.4"/>
</svg>
