<svg width="240" height="240" viewBox="0 0 240 240" fill="none" xmlns="http://www.w3.org/2000/svg">
<path d="M135 20C135 24.4425 133.069 28.4339 130 31.1805V50H180C196.569 50 210 63.4315 210 80V180C210 196.569 196.569 210 180 210H60C43.4315 210 30 196.569 30 180V80C30 63.4315 43.4315 50 60 50H110V31.1805C106.931 28.4339 105 24.4425 105 20C105 11.7157 111.716 5 120 5C128.284 5 135 11.7157 135 20ZM0 100H20V160H0V100ZM240 100H220V160H240V100ZM90 145C98.2843 145 105 138.284 105 130C105 121.716 98.2843 115 90 115C81.7157 115 75 121.716 75 130C75 138.284 81.7157 145 90 145ZM165 130C165 121.716 158.284 115 150 115C141.716 115 135 121.716 135 130C135 138.284 141.716 145 150 145C158.284 145 165 138.284 165 130Z" fill="white" fill-opacity="0.05"/>
</svg>
