<svg width="240" height="240" viewBox="0 0 240 240" fill="none" xmlns="http://www.w3.org/2000/svg">
<path d="M93.349 115.022L115.049 115.027C139.902 115.027 160.049 135.174 160.049 160.027L90.0388 160.018L90.0488 170.027L170.049 170.019V160.027C170.049 149.202 166.867 138.996 161.188 130.019L190.049 130.027C209.972 130.027 227.173 141.679 235.21 158.541C211.562 189.747 173.268 210.027 130.049 210.027C102.436 210.027 79.0437 204.121 60.0447 193.779L60.0592 100.737C72.5147 102.521 83.9122 107.583 93.349 115.022ZM40.0488 90.0268C45.1772 90.0268 49.4039 93.8872 49.9816 98.8606L50.0488 100.018V190.027C50.0488 195.55 45.5717 200.027 40.0488 200.027H20.0488C14.526 200.027 10.0488 195.55 10.0488 190.027V100.027C10.0488 94.5039 14.526 90.0268 20.0488 90.0268H40.0488ZM136.513 35.7806L140.046 39.3183L143.584 35.7806C153.347 26.0175 169.177 26.0175 178.94 35.7806C188.703 45.5437 188.703 61.3728 178.94 71.1359L140.049 110.027L101.158 71.1359C91.3948 61.3728 91.3948 45.5437 101.158 35.7806C110.921 26.0175 126.75 26.0175 136.513 35.7806Z" fill="white" fill-opacity="0.05"/>
</svg>
