<svg width="240" height="240" viewBox="0 0 240 240" fill="none" xmlns="http://www.w3.org/2000/svg">
<path d="M120 20C175.228 20 220 64.7715 220 120C220 175.228 175.228 220 120 220C64.7715 220 20 175.228 20 120C20 64.7715 64.7715 20 120 20ZM120 70C114.872 70 109.925 70.7719 105.269 72.1995C113.954 76.1175 120 84.8527 120 95C120 108.807 108.807 120 95 120C84.8527 120 76.1175 113.954 72.2057 105.268C70.7719 109.925 70 114.872 70 120C70 147.614 92.3858 170 120 170C147.614 170 170 147.614 170 120C170 92.3858 147.614 70 120 70Z" fill="white" fill-opacity="0.05"/>
</svg>
