<svg width="30" height="30" viewBox="0 0 30 30" fill="none" xmlns="http://www.w3.org/2000/svg">
<path d="M6.16098 26.8524L13.4685 19.5449C14.3026 19.7677 15.2294 19.5518 15.8836 18.8975C16.86 17.9212 16.86 16.3383 15.8836 15.362C14.9074 14.3857 13.3245 14.3857 12.3482 15.362C11.6938 16.0163 11.478 16.943 11.7008 17.7772L4.39321 25.0847L3.06738 23.7589C6.60292 19.634 7.92875 15.0674 9.69651 7.40705L17.6515 6.52316L24.7226 13.5943L23.8386 21.5492C16.1784 23.3169 11.6116 24.6428 7.48681 28.1783L6.16098 26.8524ZM20.745 2.54568L28.6783 10.4789C28.9224 10.723 28.9224 11.1187 28.6783 11.3628C28.5846 11.4565 28.4638 11.5179 28.3329 11.5384L26.4903 11.8265L19.4193 4.7554L19.6844 2.89923C19.7333 2.55753 20.0498 2.3201 20.3915 2.36891C20.5254 2.38803 20.6494 2.45006 20.745 2.54568Z" fill="#CD8BB8"/>
</svg>
