<svg width="30" height="30" viewBox="0 0 30 30" fill="none" xmlns="http://www.w3.org/2000/svg">
<path d="M16.875 2.5C16.875 3.05531 16.6336 3.55424 16.25 3.89756V6.25H22.5C24.5711 6.25 26.25 7.92894 26.25 10V22.5C26.25 24.5711 24.5711 26.25 22.5 26.25H7.5C5.42894 26.25 3.75 24.5711 3.75 22.5V10C3.75 7.92894 5.42894 6.25 7.5 6.25H13.75V3.89756C13.3664 3.55424 13.125 3.05531 13.125 2.5C13.125 1.46446 13.9645 0.625 15 0.625C16.0355 0.625 16.875 1.46446 16.875 2.5ZM0 12.5H2.5V20H0V12.5ZM30 12.5H27.5V20H30V12.5ZM11.25 18.125C12.2855 18.125 13.125 17.2855 13.125 16.25C13.125 15.2145 12.2855 14.375 11.25 14.375C10.2145 14.375 9.375 15.2145 9.375 16.25C9.375 17.2855 10.2145 18.125 11.25 18.125ZM20.625 16.25C20.625 15.2145 19.7855 14.375 18.75 14.375C17.7145 14.375 16.875 15.2145 16.875 16.25C16.875 17.2855 17.7145 18.125 18.75 18.125C19.7855 18.125 20.625 17.2855 20.625 16.25Z" fill="#CD8BB8"/>
</svg>
