<svg width="32" height="37" viewBox="0 0 32 37" fill="none" xmlns="http://www.w3.org/2000/svg">
<path d="M0.799805 28.0817C3.05025 18.0928 7.7921 9.0475 14.3383 1.63263C14.5175 1.42963 14.7442 1.17903 15.0183 0.88085C15.5168 0.338783 16.3603 0.303383 16.9023 0.801817C16.9298 0.82705 16.9562 0.853417 16.9813 0.88085C17.2588 1.18263 17.4882 1.43607 17.6692 1.64117C24.2113 9.05445 28.9505 18.0967 31.2 28.0817C27.631 28.834 23.9662 29.3267 20.2265 29.5392L16.7453 36.5017C16.5395 36.9133 16.0388 37.0802 15.6272 36.8743C15.466 36.7937 15.3352 36.6628 15.2545 36.5017L11.7734 29.5392C8.03364 29.3267 4.36889 28.834 0.799805 28.0817ZM15.9998 22.9923C18.7613 22.9923 20.9998 20.7538 20.9998 17.9923C20.9998 15.231 18.7613 12.9924 15.9998 12.9924C13.2385 12.9924 10.9999 15.231 10.9999 17.9923C10.9999 20.7538 13.2385 22.9923 15.9998 22.9923Z" fill="#FAA7E0"/>
</svg>
