<svg width="36" height="36" viewBox="0 0 36 36" fill="none" xmlns="http://www.w3.org/2000/svg">
<path d="M8.66671 0.666748V4.00008H2.00004C1.07957 4.00008 0.333374 4.74628 0.333374 5.66675V32.3334C0.333374 33.2539 1.07957 34.0001 2.00004 34.0001H14.9244C13.0946 31.7174 12 28.8199 12 25.6667C12 18.3029 17.9695 12.3334 25.3334 12.3334C28.4865 12.3334 31.384 13.4279 33.6667 15.2578V5.66675C33.6667 4.74628 32.9205 4.00008 32 4.00008H25.3334V0.666748H22V4.00008H12V0.666748H8.66671ZM35.3334 25.6667C35.3334 31.1896 30.8562 35.6667 25.3334 35.6667C19.8105 35.6667 15.3334 31.1896 15.3334 25.6667C15.3334 20.1439 19.8105 15.6667 25.3334 15.6667C30.8562 15.6667 35.3334 20.1439 35.3334 25.6667ZM23.6667 19.0001V26.3571L27.4882 30.1786L29.8452 27.8216L27 24.9764V19.0001H23.6667Z" fill="#FAA7E0"/>
</svg>
