<svg width="30" height="30" viewBox="0 0 30 30" fill="none" xmlns="http://www.w3.org/2000/svg">
<path d="M10.625 2.5C8.20875 2.5 6.25 4.45875 6.25 6.875C6.25 7.1002 6.26705 7.32143 6.29991 7.53746C4.15545 7.81904 2.5 9.65369 2.5 11.875C2.5 13.0991 3.00279 14.2059 3.81314 15C3.00279 15.7941 2.5 16.9009 2.5 18.125C2.5 19.8773 3.52949 21.388 5.01691 22.0866C5.00571 22.2231 5 22.361 5 22.5C5 25.2614 7.23857 27.5 10 27.5C11.4934 27.5 12.8339 26.8452 13.75 25.8072V3.81314C12.9559 3.00279 11.8492 2.5 10.625 2.5ZM16.25 3.81314V25.8072C17.1661 26.8452 18.5066 27.5 20 27.5C22.7614 27.5 25 25.2614 25 22.5C25 22.361 24.9942 22.2231 24.9831 22.0866C26.4705 21.388 27.5 19.8773 27.5 18.125C27.5 16.9009 26.9972 15.7941 26.1869 15C26.9972 14.2059 27.5 13.0991 27.5 11.875C27.5 9.65369 25.8445 7.81904 23.7001 7.53746C23.733 7.32143 23.75 7.1002 23.75 6.875C23.75 4.45875 21.7913 2.5 19.375 2.5C18.1509 2.5 17.0441 3.00279 16.25 3.81314Z" fill="#CD8BB8"/>
</svg>
