<svg width="30" height="30" viewBox="0 0 30 30" fill="none" xmlns="http://www.w3.org/2000/svg">
<path d="M9.23672 20.6733C6.67367 18.8626 5 15.8767 5 12.5C5 6.97715 9.47715 2.5 15 2.5C20.5229 2.5 25 6.97715 25 12.5C25 15.8767 23.3264 18.8626 20.7632 20.6733L23.367 26.6245C23.5054 26.9408 23.3611 27.3092 23.0449 27.4476C22.9659 27.4821 22.8806 27.5 22.7944 27.5H7.20564C6.86046 27.5 6.58064 27.2201 6.58064 26.875C6.58064 26.7887 6.59847 26.7035 6.63304 26.6245L9.23672 20.6733ZM10.1481 13.713C10.6902 15.8883 12.6569 17.5 15 17.5C17.3431 17.5 19.3098 15.8883 19.8519 13.713L17.4259 13.1065C17.1549 14.1941 16.1715 15 15 15C13.8285 15 12.8451 14.1941 12.5741 13.1065L10.1481 13.713Z" fill="#CD8BB8"/>
</svg>
