<svg width="133" height="40" viewBox="0 0 133 40" fill="none" xmlns="http://www.w3.org/2000/svg">
<g clip-path="url(#clip0_288_1190)">
<path d="M7.37928 8.02408H0V30.415H7.4064C14.6712 30.415 19.3657 25.9977 19.3657 19.1608C19.3657 12.3239 14.6621 8.02408 7.37928 8.02408ZM4.8 12.4444H7.28889C11.8207 12.4444 14.4181 14.9032 14.4181 19.1909C14.4181 23.4787 11.8298 25.9375 7.31902 25.9375H4.8V12.4444Z" fill="white"/>
<path d="M47.6413 16.3074H45.6435C43.8507 16.3074 43.2119 15.2799 43.2119 14.3157C43.2119 12.9959 44.1219 12.2095 45.6435 12.2095H54.3727V8.02716H44.8511C40.7712 8.02716 38.0322 10.5191 38.0322 14.2313C38.0322 17.9435 40.7893 20.345 44.7335 20.345H46.8488C49.8529 20.345 50.4827 21.9059 50.4827 23.2166C50.4827 24.675 49.5215 26.2358 46.8187 26.2358H38.1196V30.4181H47.5539C52.4111 30.4181 55.5479 27.6128 55.5479 23.2739C55.5479 18.9349 52.4443 16.3074 47.6413 16.3074Z" fill="white"/>
<path d="M68.1099 7.61432C61.3603 7.61432 56.2681 12.5921 56.2681 19.191C56.2681 25.7898 61.3603 30.855 68.1099 30.855C74.8594 30.855 79.9517 25.8411 79.9517 19.191C79.9517 12.5409 74.9709 7.61432 68.1099 7.61432ZM68.1099 26.2026C64.1325 26.2026 61.2458 23.2768 61.2458 19.2482C61.2458 15.2196 64.1325 12.2365 68.1099 12.2365C72.0873 12.2365 74.9468 15.1864 74.9468 19.2482C74.9468 23.31 72.0722 26.2026 68.1099 26.2026Z" fill="white"/>
<path d="M33.0097 8.25609L30.3008 12.1672C29.3667 13.5201 28.4327 14.876 27.6251 16.1084H27.5618C26.7513 14.9032 25.7871 13.49 24.8861 12.1973L22.1472 8.25609H16.3257L25.0398 20.2636V30.0444H29.9875V20.2335L38.6413 8.25609H33.0067H33.0097Z" fill="white"/>
<path d="M86.2373 26.2418V8.02408H81.3198V30.415H82.9469V30.4934H94.4935V26.2418H86.2373Z" fill="white"/>
<path d="M112.822 4.79699C112.822 2.14768 110.675 0 108.026 0C105.376 0 103.229 2.14768 103.229 4.79699V29.1284C103.229 31.7777 105.376 33.9254 108.026 33.9254C110.675 33.9254 112.822 31.7777 112.822 29.1284V4.79699Z" fill="url(#paint0_linear_288_1190)"/>
<path d="M124.65 26.6763C126.658 28.4049 129.687 28.1788 131.415 26.1712C133.144 24.1635 132.918 21.1347 130.91 19.406L112.472 3.52988C110.464 1.80122 107.436 2.02737 105.707 4.03499C103.978 6.04261 104.204 9.07146 106.212 10.8001L124.65 26.6763Z" fill="url(#paint1_linear_288_1190)"/>
<path d="M105.425 31.2658C103.251 32.7801 102.717 35.7699 104.231 37.9438C105.745 40.1177 108.735 40.6524 110.909 39.1382L130.874 25.231C133.048 23.7167 133.583 20.7269 132.068 18.553C130.554 16.3791 127.564 15.8444 125.39 17.3586L105.425 31.2658Z" fill="url(#paint2_linear_288_1190)"/>
</g>
<defs>
<linearGradient id="paint0_linear_288_1190" x1="121.196" y1="35.7273" x2="99.5675" y2="4.91751" gradientUnits="userSpaceOnUse">
<stop offset="0.32" stop-color="#EB008B" stop-opacity="0"/>
<stop offset="0.6" stop-color="#EB008B"/>
</linearGradient>
<linearGradient id="paint1_linear_288_1190" x1="102.34" y1="14.2231" x2="139.689" y2="16.245" gradientUnits="userSpaceOnUse">
<stop offset="0.29" stop-color="#EB008B" stop-opacity="0"/>
<stop offset="0.68" stop-color="#EB008B"/>
</linearGradient>
<linearGradient id="paint2_linear_288_1190" x1="132.068" y1="18.553" x2="104.231" y2="37.9438" gradientUnits="userSpaceOnUse">
<stop offset="0.35" stop-color="#EB008B" stop-opacity="0"/>
<stop offset="0.62" stop-color="#EB008B"/>
</linearGradient>
<clipPath id="clip0_288_1190">
<rect width="132.936" height="40" fill="white"/>
</clipPath>
</defs>
</svg>
