<svg width="1728" height="400" viewBox="0 0 1728 400" fill="none" xmlns="http://www.w3.org/2000/svg">
<g clip-path="url(#clip0_851_442)">
<g opacity="0.1">
<mask id="path-1-outside-1_851_442" maskUnits="userSpaceOnUse" x="-58" y="40" width="1712" height="730" fill="black">
<rect fill="white" x="-58" y="40" width="1712" height="730"/>
<path d="M141.06 612.88C104.06 612.88 70.76 604 41.16 586.24C11.56 567.987 -11.8733 543.32 -29.14 512.24C-45.9133 480.667 -54.3 445.147 -54.3 405.68C-54.3 365.72 -45.9133 330.2 -29.14 299.12C-11.8733 268.04 11.3133 243.62 40.42 225.86C70.02 207.607 103.567 198.48 141.06 198.48C175.1 198.48 205.44 205.88 232.08 220.68C258.72 235.48 279.687 255.46 294.98 280.62L286.1 296.16V43.82H341.6V604H286.1V515.2L294.98 523.34C281.167 551.953 260.447 574.153 232.82 589.94C205.687 605.233 175.1 612.88 141.06 612.88ZM144.02 557.38C170.66 557.38 194.587 550.72 215.8 537.4C237.507 524.08 254.527 506.073 266.86 483.38C279.687 460.193 286.1 434.293 286.1 405.68C286.1 377.067 279.687 351.413 266.86 328.72C254.527 305.533 237.507 287.28 215.8 273.96C194.587 260.64 170.66 253.98 144.02 253.98C117.873 253.98 94.1933 260.64 72.98 273.96C51.7667 287.28 34.9933 305.287 22.66 327.98C10.82 350.673 4.9 376.573 4.9 405.68C4.9 434.293 10.82 460.193 22.66 483.38C34.9933 506.073 51.52 524.08 72.24 537.4C93.4533 550.72 117.38 557.38 144.02 557.38ZM434.094 766.8C426.201 766.8 418.061 766.06 409.674 764.58C401.781 763.593 393.888 761.62 385.994 758.66V706.86C390.928 707.353 397.094 708.093 404.494 709.08C412.388 710.56 420.281 711.3 428.174 711.3C452.348 711.3 470.848 706.12 483.674 695.76C496.501 685.893 509.081 666.653 521.414 638.04L546.574 578.84L545.094 627.68L377.114 207.36H437.054L574.694 554.42H559.154L696.054 207.36H757.474L576.174 654.32C568.281 673.56 558.168 691.813 545.834 709.08C533.994 726.347 518.948 740.16 500.694 750.52C482.441 761.373 460.241 766.8 434.094 766.8ZM930.732 612.88C892.746 612.88 859.446 603.26 830.832 584.02C802.219 564.78 781.499 538.633 768.672 505.58L815.292 483.38C826.639 507.553 842.426 526.793 862.652 541.1C883.372 555.407 906.066 562.56 930.732 562.56C954.413 562.56 974.393 556.887 990.672 545.54C1006.95 533.7 1015.09 518.407 1015.09 499.66C1015.09 485.847 1011.15 474.993 1003.25 467.1C995.359 458.713 986.233 452.3 975.872 447.86C965.512 443.42 956.386 440.213 948.492 438.24L891.512 421.96C855.006 411.6 828.612 397.047 812.332 378.3C796.052 359.553 787.912 337.847 787.912 313.18C787.912 289.993 793.832 269.767 805.672 252.5C817.512 235.233 833.546 221.913 853.772 212.54C873.999 203.167 896.446 198.48 921.112 198.48C954.659 198.48 984.999 207.36 1012.13 225.12C1039.76 242.387 1059.25 266.56 1070.59 297.64L1023.23 319.84C1013.37 297.64 999.059 280.373 980.312 268.04C962.059 255.213 941.586 248.8 918.892 248.8C896.692 248.8 878.932 254.473 865.612 265.82C852.292 277.167 845.632 291.473 845.632 308.74C845.632 322.06 849.086 332.667 855.992 340.56C862.899 348.453 870.792 354.373 879.672 358.32C889.046 362.267 897.186 365.227 904.092 367.2L969.952 386.44C1002.02 395.813 1026.93 410.367 1044.69 430.1C1062.95 449.833 1072.07 473.02 1072.07 499.66C1072.07 521.367 1065.91 540.853 1053.57 558.12C1041.73 575.387 1025.21 588.953 1003.99 598.82C982.779 608.193 958.359 612.88 930.732 612.88ZM1325.74 612.88C1288.24 612.88 1254.2 604 1223.62 586.24C1193.03 567.987 1168.61 543.32 1150.36 512.24C1132.6 480.667 1123.72 444.9 1123.72 404.94C1123.72 365.473 1132.6 330.2 1150.36 299.12C1168.12 268.04 1192.04 243.62 1222.14 225.86C1252.72 207.607 1287.26 198.48 1325.74 198.48C1364.22 198.48 1398.5 207.36 1428.6 225.12C1459.18 242.88 1483.11 267.3 1500.38 298.38C1518.14 329.46 1527.02 364.98 1527.02 404.94C1527.02 445.393 1517.89 481.407 1499.64 512.98C1481.38 544.06 1456.96 568.48 1426.38 586.24C1396.28 604 1362.74 612.88 1325.74 612.88ZM1325.74 557.38C1352.38 557.38 1376.3 550.72 1397.52 537.4C1419.22 524.08 1436.24 505.827 1448.58 482.64C1461.4 459.453 1467.82 433.553 1467.82 404.94C1467.82 376.327 1461.4 350.673 1448.58 327.98C1436.24 305.287 1419.22 287.28 1397.52 273.96C1376.3 260.64 1352.38 253.98 1325.74 253.98C1299.1 253.98 1274.92 260.64 1253.22 273.96C1232 287.28 1214.98 305.287 1202.16 327.98C1189.33 350.673 1182.92 376.327 1182.92 404.94C1182.92 433.553 1189.33 459.453 1202.16 482.64C1214.98 505.827 1232 524.08 1253.22 537.4C1274.92 550.72 1299.1 557.38 1325.74 557.38ZM1595.3 604V43.82H1650.8V604H1595.3Z"/>
</mask>
<path d="M41.16 586.24L39.5853 588.794L39.6009 588.803L39.6165 588.812L41.16 586.24ZM-29.14 512.24L-31.7893 513.647L-31.7761 513.672L-31.7625 513.697L-29.14 512.24ZM-29.14 299.12L-31.7625 297.663L-31.7714 297.679L-31.7801 297.695L-29.14 299.12ZM40.42 225.86L41.9826 228.421L41.9886 228.417L41.9947 228.413L40.42 225.86ZM232.08 220.68L230.623 223.302L232.08 220.68ZM294.98 280.62L297.585 282.108L298.462 280.573L297.544 279.062L294.98 280.62ZM286.1 296.16H283.1V307.457L288.705 297.648L286.1 296.16ZM286.1 43.82V40.82H283.1V43.82H286.1ZM341.6 43.82H344.6V40.82H341.6V43.82ZM341.6 604V607H344.6V604H341.6ZM286.1 604H283.1V607H286.1V604ZM286.1 515.2L288.127 512.989L283.1 508.38V515.2H286.1ZM294.98 523.34L297.682 524.644L298.651 522.636L297.007 521.129L294.98 523.34ZM232.82 589.94L234.293 592.553L234.301 592.549L234.308 592.545L232.82 589.94ZM215.8 537.4L214.231 534.843L214.218 534.851L214.205 534.859L215.8 537.4ZM266.86 483.38L264.235 481.928L264.229 481.938L264.224 481.947L266.86 483.38ZM266.86 328.72L264.211 330.129L264.229 330.163L264.248 330.196L266.86 328.72ZM215.8 273.96L214.205 276.501L214.218 276.509L214.231 276.517L215.8 273.96ZM72.98 273.96L74.5753 276.501L72.98 273.96ZM22.66 327.98L20.0241 326.547L20.012 326.57L20.0003 326.592L22.66 327.98ZM22.66 483.38L19.9882 484.744L20.0057 484.779L20.0241 484.813L22.66 483.38ZM72.24 537.4L70.6177 539.924L70.6312 539.932L70.6447 539.941L72.24 537.4ZM141.06 609.88C104.563 609.88 71.8036 601.128 42.7035 583.668L39.6165 588.812C69.7164 606.872 103.557 615.88 141.06 615.88V609.88ZM42.7347 583.686C13.5822 565.709 -9.4946 541.424 -26.5175 510.783L-31.7625 513.697C-14.2521 545.216 9.53779 570.264 39.5853 588.794L42.7347 583.686ZM-26.4907 510.833C-43.0105 479.736 -51.3 444.708 -51.3 405.68H-57.3C-57.3 445.585 -48.8161 481.597 -31.7893 513.647L-26.4907 510.833ZM-51.3 405.68C-51.3 366.151 -43.0074 331.132 -26.4999 300.545L-31.7801 297.695C-48.8192 329.268 -57.3 365.289 -57.3 405.68H-51.3ZM-26.5175 300.577C-9.49156 269.93 13.338 245.899 41.9826 228.421L38.8574 223.299C9.28867 241.341 -14.2551 266.15 -31.7625 297.663L-26.5175 300.577ZM41.9947 228.413C71.0843 210.475 104.078 201.48 141.06 201.48V195.48C103.056 195.48 68.9557 204.738 38.8453 223.306L41.9947 228.413ZM141.06 201.48C174.651 201.48 204.479 208.778 230.623 223.302L233.537 218.058C206.401 202.982 175.549 195.48 141.06 195.48V201.48ZM230.623 223.302C256.825 237.859 277.403 257.479 292.416 282.178L297.544 279.062C281.97 253.441 260.615 233.101 233.537 218.058L230.623 223.302ZM292.375 279.132L283.495 294.672L288.705 297.648L297.585 282.108L292.375 279.132ZM289.1 296.16V43.82H283.1V296.16H289.1ZM286.1 46.82H341.6V40.82H286.1V46.82ZM338.6 43.82V604H344.6V43.82H338.6ZM341.6 601H286.1V607H341.6V601ZM289.1 604V515.2H283.1V604H289.1ZM284.073 517.411L292.953 525.551L297.007 521.129L288.127 512.989L284.073 517.411ZM292.278 522.036C278.729 550.102 258.432 571.849 231.332 587.335L234.308 592.545C262.461 576.458 283.604 553.805 297.682 524.644L292.278 522.036ZM231.347 587.327C204.704 602.343 174.633 609.88 141.06 609.88V615.88C175.567 615.88 206.669 608.123 234.293 592.553L231.347 587.327ZM144.02 560.38C171.187 560.38 195.673 553.58 217.395 539.941L214.205 534.859C193.5 547.86 170.133 554.38 144.02 554.38V560.38ZM217.369 539.957C239.53 526.358 256.915 507.961 269.496 484.813L264.224 481.947C252.138 504.186 235.483 521.802 214.231 534.843L217.369 539.957ZM269.485 484.832C282.577 461.166 289.1 434.76 289.1 405.68H283.1C283.1 433.827 276.796 459.221 264.235 481.928L269.485 484.832ZM289.1 405.68C289.1 376.601 282.577 350.431 269.472 327.244L264.248 330.196C276.796 352.396 283.1 377.532 283.1 405.68H289.1ZM269.509 327.311C256.932 303.668 239.546 285.012 217.369 271.403L214.231 276.517C235.467 289.548 252.121 307.399 264.211 330.129L269.509 327.311ZM217.395 271.419C195.673 257.78 171.187 250.98 144.02 250.98V256.98C170.133 256.98 193.5 263.5 214.205 276.501L217.395 271.419ZM144.02 250.98C117.335 250.98 93.0975 257.786 71.3847 271.419L74.5753 276.501C95.2891 263.494 118.412 256.98 144.02 256.98V250.98ZM71.3847 271.419C49.7212 285.022 32.5955 303.416 20.0241 326.547L25.2959 329.413C37.3912 307.157 53.8122 289.538 74.5753 276.501L71.3847 271.419ZM20.0003 326.592C7.90772 349.77 1.9 376.157 1.9 405.68H7.9C7.9 376.99 13.7323 351.577 25.3198 329.368L20.0003 326.592ZM1.9 405.68C1.9 434.72 7.91174 461.095 19.9882 484.744L25.3318 482.016C13.7283 459.292 7.9 433.867 7.9 405.68H1.9ZM20.0241 484.813C32.5862 507.927 49.4527 526.317 70.6177 539.924L73.8623 534.876C53.5873 521.843 37.4005 504.22 25.2959 481.947L20.0241 484.813ZM70.6447 539.941C92.3668 553.58 116.853 560.38 144.02 560.38V554.38C117.907 554.38 94.5399 547.86 73.8353 534.859L70.6447 539.941ZM409.674 764.58L410.196 761.626L410.121 761.613L410.046 761.603L409.674 764.58ZM385.994 758.66H382.994V760.739L384.941 761.469L385.994 758.66ZM385.994 706.86L386.293 703.875L382.994 703.545V706.86H385.994ZM404.494 709.08L405.047 706.131L404.969 706.117L404.891 706.106L404.494 709.08ZM483.674 695.76L481.845 693.382L481.817 693.404L481.789 693.426L483.674 695.76ZM521.414 638.04L524.169 639.227L524.172 639.22L524.175 639.213L521.414 638.04ZM546.574 578.84L549.573 578.931L543.813 577.667L546.574 578.84ZM545.094 627.68L542.308 628.793L548.093 627.771L545.094 627.68ZM377.114 207.36V204.36H372.685L374.328 208.473L377.114 207.36ZM437.054 207.36L439.843 206.254L439.092 204.36H437.054V207.36ZM574.694 554.42V557.42H579.111L577.483 553.314L574.694 554.42ZM559.154 554.42L556.363 553.319L554.746 557.42H559.154V554.42ZM696.054 207.36V204.36H694.013L693.263 206.259L696.054 207.36ZM757.474 207.36L760.254 208.488L761.929 204.36H757.474V207.36ZM576.174 654.32L578.95 655.459L578.954 655.448L576.174 654.32ZM545.834 709.08L543.393 707.336L543.376 707.36L543.36 707.383L545.834 709.08ZM500.694 750.52L499.213 747.911L499.187 747.926L499.161 747.941L500.694 750.52ZM434.094 763.8C426.389 763.8 418.424 763.078 410.196 761.626L409.153 767.534C417.698 769.042 426.013 769.8 434.094 769.8V763.8ZM410.046 761.603C402.399 760.647 394.734 758.734 387.048 755.851L384.941 761.469C393.041 764.506 401.162 766.539 409.302 767.557L410.046 761.603ZM388.994 758.66V706.86H382.994V758.66H388.994ZM385.696 709.845C390.584 710.334 396.716 711.069 404.098 712.054L404.891 706.106C397.473 705.117 391.271 704.373 386.293 703.875L385.696 709.845ZM403.941 712.029C412.014 713.542 420.092 714.3 428.174 714.3V708.3C420.47 708.3 412.761 707.578 405.047 706.131L403.941 712.029ZM428.174 714.3C452.724 714.3 472 709.046 485.559 698.094L481.789 693.426C469.695 703.194 451.971 708.3 428.174 708.3V714.3ZM485.503 698.138C498.961 687.786 511.789 667.95 524.169 639.227L518.659 636.853C506.373 665.356 494.041 684.001 481.845 693.382L485.503 698.138ZM524.175 639.213L549.335 580.013L543.813 577.667L518.653 636.867L524.175 639.213ZM543.576 578.749L542.096 627.589L548.093 627.771L549.573 578.931L543.576 578.749ZM547.88 626.567L379.9 206.247L374.328 208.473L542.308 628.793L547.88 626.567ZM377.114 210.36H437.054V204.36H377.114V210.36ZM434.266 208.466L571.906 555.526L577.483 553.314L439.843 206.254L434.266 208.466ZM574.694 551.42H559.154V557.42H574.694V551.42ZM561.945 555.521L698.845 208.461L693.263 206.259L556.363 553.319L561.945 555.521ZM696.054 210.36H757.474V204.36H696.054V210.36ZM754.694 206.232L573.394 653.192L578.954 655.448L760.254 208.488L754.694 206.232ZM573.399 653.181C565.595 672.203 555.595 690.254 543.393 707.336L548.275 710.824C560.74 693.373 570.967 674.917 578.95 655.459L573.399 653.181ZM543.36 707.383C531.778 724.273 517.072 737.775 499.213 747.911L502.175 753.129C520.823 742.545 536.21 728.42 548.308 710.777L543.36 707.383ZM499.161 747.941C481.468 758.462 459.825 763.8 434.094 763.8V769.8C460.656 769.8 483.414 764.285 502.227 753.099L499.161 747.941ZM830.833 584.02L832.506 581.53L830.833 584.02ZM768.672 505.58L767.383 502.871L764.868 504.069L765.876 506.665L768.672 505.58ZM815.292 483.38L818.008 482.105L816.726 479.374L814.003 480.671L815.292 483.38ZM862.652 541.1L860.92 543.549L860.934 543.559L860.948 543.569L862.652 541.1ZM990.672 545.54L992.388 548.001L992.413 547.984L992.437 547.966L990.672 545.54ZM1003.25 467.1L1001.07 469.156L1001.1 469.189L1001.13 469.221L1003.25 467.1ZM975.872 447.86L974.691 450.617L975.872 447.86ZM948.492 438.24L947.668 441.125L947.716 441.138L947.765 441.15L948.492 438.24ZM891.513 421.96L892.337 419.075L892.331 419.074L891.513 421.96ZM812.333 378.3L810.067 380.267L812.333 378.3ZM805.672 252.5L808.147 254.197L805.672 252.5ZM853.773 212.54L855.034 215.262L853.773 212.54ZM1012.13 225.12L1010.49 227.63L1010.52 227.647L1010.54 227.664L1012.13 225.12ZM1070.59 297.64L1071.87 300.356L1074.35 299.191L1073.41 296.611L1070.59 297.64ZM1023.23 319.84L1020.49 321.058L1021.73 323.856L1024.51 322.556L1023.23 319.84ZM980.312 268.04L978.588 270.495L978.625 270.521L978.664 270.546L980.312 268.04ZM865.612 265.82L867.558 268.104L865.612 265.82ZM855.992 340.56L853.735 342.536L855.992 340.56ZM879.672 358.32L878.454 361.061L878.481 361.073L878.508 361.085L879.672 358.32ZM904.092 367.2L904.934 364.32L904.925 364.318L904.917 364.315L904.092 367.2ZM969.953 386.44L970.794 383.56L970.794 383.56L969.953 386.44ZM1044.69 430.1L1042.46 432.107L1042.48 432.122L1042.49 432.137L1044.69 430.1ZM1053.57 558.12L1051.13 556.376L1051.11 556.4L1051.1 556.423L1053.57 558.12ZM1003.99 598.82L1005.2 601.564L1005.23 601.552L1005.26 601.54L1003.99 598.82ZM930.733 609.88C893.279 609.88 860.575 600.404 832.506 581.53L829.159 586.51C858.317 606.116 892.213 615.88 930.733 615.88V609.88ZM832.506 581.53C804.417 562.643 784.081 536.993 771.469 504.495L765.876 506.665C778.918 540.273 800.021 566.917 829.159 586.51L832.506 581.53ZM769.962 508.289L816.582 486.089L814.003 480.671L767.383 502.871L769.962 508.289ZM812.577 484.655C824.126 509.26 840.237 528.92 860.92 543.549L864.385 538.651C844.615 524.667 829.152 505.846 818.008 482.105L812.577 484.655ZM860.948 543.569C882.158 558.214 905.444 565.56 930.733 565.56V559.56C906.688 559.56 884.587 552.6 864.357 538.631L860.948 543.569ZM930.733 565.56C954.905 565.56 975.514 559.762 992.388 548.001L988.957 543.079C973.271 554.011 953.92 559.56 930.733 559.56V565.56ZM992.437 547.966C1009.43 535.61 1018.09 519.446 1018.09 499.66H1012.09C1012.09 517.367 1004.48 531.79 988.908 543.114L992.437 547.966ZM1018.09 499.66C1018.09 485.251 1013.96 473.562 1005.37 464.979L1001.13 469.221C1008.33 476.425 1012.09 486.442 1012.09 499.66H1018.09ZM1005.44 465.044C997.268 456.364 987.802 449.709 977.054 445.103L974.691 450.617C984.663 454.891 993.451 461.063 1001.07 469.156L1005.44 465.044ZM977.054 445.103C966.599 440.622 957.315 437.353 949.22 435.33L947.765 441.15C955.457 443.073 964.426 446.218 974.691 450.617L977.054 445.103ZM949.317 435.355L892.337 419.075L890.688 424.845L947.668 441.125L949.317 435.355ZM892.331 419.074C856.11 408.795 830.343 394.464 814.598 376.333L810.067 380.267C826.882 399.63 853.901 414.405 890.693 424.846L892.331 419.074ZM814.598 376.333C798.788 358.128 790.912 337.119 790.912 313.18H784.912C784.912 338.575 793.317 360.979 810.067 380.267L814.598 376.333ZM790.912 313.18C790.912 290.531 796.686 270.911 808.147 254.197L803.198 250.803C790.979 268.623 784.912 289.456 784.912 313.18H790.912ZM808.147 254.197C819.662 237.403 835.263 224.424 855.034 215.262L852.511 209.818C831.828 219.403 815.363 233.063 803.198 250.803L808.147 254.197ZM855.034 215.262C874.825 206.09 896.835 201.48 921.112 201.48V195.48C896.057 195.48 873.173 200.243 852.511 209.818L855.034 215.262ZM921.112 201.48C954.097 201.48 983.862 210.201 1010.49 227.63L1013.78 222.61C986.136 204.519 955.222 195.48 921.112 195.48V201.48ZM1010.54 227.664C1037.59 244.571 1056.65 268.206 1067.77 298.669L1073.41 296.611C1061.84 264.914 1041.93 240.203 1013.72 222.576L1010.54 227.664ZM1069.32 294.924L1021.96 317.124L1024.51 322.556L1071.87 300.356L1069.32 294.924ZM1025.97 318.622C1015.89 295.942 1001.23 278.209 981.961 265.534L978.664 270.546C996.891 282.538 1010.84 299.338 1020.49 321.058L1025.97 318.622ZM982.037 265.585C963.27 252.397 942.192 245.8 918.893 245.8V251.8C940.98 251.8 960.849 258.029 978.588 270.495L982.037 265.585ZM918.893 245.8C896.176 245.8 877.663 251.614 863.667 263.536L867.558 268.104C880.202 257.333 897.209 251.8 918.893 251.8V245.8ZM863.667 263.536C849.688 275.444 842.633 290.581 842.633 308.74H848.633C848.633 292.366 854.897 278.889 867.558 268.104L863.667 263.536ZM842.633 308.74C842.633 322.585 846.231 333.96 853.735 342.536L858.25 338.584C851.94 331.373 848.633 321.535 848.633 308.74H842.633ZM853.735 342.536C860.905 350.73 869.145 356.924 878.454 361.061L880.891 355.579C872.44 351.822 864.893 346.177 858.25 338.584L853.735 342.536ZM878.508 361.085C887.951 365.061 896.21 368.068 903.268 370.085L904.917 364.315C898.162 362.386 890.141 359.473 880.837 355.555L878.508 361.085ZM903.251 370.08L969.111 389.32L970.794 383.56L904.934 364.32L903.251 370.08ZM969.111 389.32C1000.78 398.577 1025.16 412.882 1042.46 432.107L1046.92 428.093C1028.7 407.851 1003.26 393.05 970.794 383.56L969.111 389.32ZM1042.49 432.137C1060.24 451.322 1069.07 473.783 1069.07 499.66H1075.07C1075.07 472.257 1065.66 448.345 1046.89 428.063L1042.49 432.137ZM1069.07 499.66C1069.07 520.757 1063.09 539.631 1051.13 556.376L1056.01 559.864C1068.72 542.076 1075.07 521.977 1075.07 499.66H1069.07ZM1051.1 556.423C1039.6 573.196 1023.51 586.433 1002.73 596.1L1005.26 601.54C1026.9 591.474 1043.87 577.577 1056.05 559.817L1051.1 556.423ZM1002.78 596.076C982.015 605.251 958.02 609.88 930.733 609.88V615.88C958.698 615.88 983.544 611.135 1005.2 601.564L1002.78 596.076ZM1223.62 586.24L1222.08 588.816L1222.09 588.825L1222.11 588.834L1223.62 586.24ZM1150.36 512.24L1147.74 513.711L1147.76 513.735L1147.77 513.759L1150.36 512.24ZM1150.36 299.12L1147.75 297.632L1150.36 299.12ZM1222.14 225.86L1223.66 228.444L1223.67 228.44L1223.67 228.436L1222.14 225.86ZM1428.6 225.12L1427.07 227.704L1427.08 227.709L1427.09 227.714L1428.6 225.12ZM1500.38 298.38L1497.75 299.837L1497.76 299.853L1497.77 299.868L1500.38 298.38ZM1499.64 512.98L1502.22 514.499L1502.23 514.49L1502.23 514.482L1499.64 512.98ZM1426.38 586.24L1424.87 583.646L1424.86 583.651L1424.85 583.656L1426.38 586.24ZM1397.52 537.4L1395.95 534.843L1395.93 534.851L1395.92 534.859L1397.52 537.4ZM1448.58 482.64L1445.95 481.188L1445.94 481.209L1445.93 481.231L1448.58 482.64ZM1448.58 327.98L1445.94 329.413L1445.95 329.434L1445.96 329.456L1448.58 327.98ZM1397.52 273.96L1395.92 276.501L1395.93 276.509L1395.95 276.517L1397.52 273.96ZM1253.22 273.96L1251.65 271.403L1251.63 271.411L1251.62 271.419L1253.22 273.96ZM1202.16 327.98L1204.77 329.456L1202.16 327.98ZM1202.16 482.64L1204.78 481.188L1202.16 482.64ZM1253.22 537.4L1251.62 539.941L1251.63 539.949L1251.65 539.957L1253.22 537.4ZM1325.74 609.88C1288.74 609.88 1255.22 601.124 1225.12 583.646L1222.11 588.834C1253.18 606.876 1287.75 615.88 1325.74 615.88V609.88ZM1225.15 583.664C1195.01 565.672 1170.94 541.371 1152.94 510.721L1147.77 513.759C1166.28 545.269 1191.05 570.301 1222.08 588.816L1225.15 583.664ZM1152.97 510.769C1135.49 479.69 1126.72 444.439 1126.72 404.94H1120.72C1120.72 445.361 1129.7 481.643 1147.74 513.711L1152.97 510.769ZM1126.72 404.94C1126.72 365.94 1135.49 331.19 1152.96 300.608L1147.75 297.632C1129.71 329.21 1120.72 365.006 1120.72 404.94H1126.72ZM1152.96 300.608C1170.47 269.97 1194.03 245.932 1223.66 228.444L1220.61 223.276C1190.06 241.308 1165.76 266.11 1147.75 297.632L1152.96 300.608ZM1223.67 228.436C1253.76 210.482 1287.75 201.48 1325.74 201.48V195.48C1286.76 195.48 1251.69 204.731 1220.6 223.284L1223.67 228.436ZM1325.74 201.48C1363.74 201.48 1397.49 210.243 1427.07 227.704L1430.12 222.536C1399.52 204.477 1364.7 195.48 1325.74 195.48V201.48ZM1427.09 227.714C1457.21 245.201 1480.75 269.227 1497.75 299.837L1503 296.923C1485.47 265.373 1461.16 240.559 1430.1 222.526L1427.09 227.714ZM1497.77 299.868C1515.24 330.444 1524.02 365.44 1524.02 404.94H1530.02C1530.02 364.52 1521.03 328.476 1502.98 296.892L1497.77 299.868ZM1524.02 404.94C1524.02 444.925 1515 480.41 1497.04 511.479L1502.23 514.482C1520.78 482.403 1530.02 445.862 1530.02 404.94H1524.02ZM1497.05 511.461C1479.05 542.104 1455 566.15 1424.87 583.646L1427.88 588.834C1458.92 570.81 1483.71 546.016 1502.22 514.499L1497.05 511.461ZM1424.85 583.656C1395.25 601.128 1362.23 609.88 1325.74 609.88V615.88C1363.24 615.88 1397.32 606.872 1427.9 588.824L1424.85 583.656ZM1325.74 560.38C1352.9 560.38 1377.39 553.58 1399.11 539.941L1395.92 534.859C1375.22 547.86 1351.85 554.38 1325.74 554.38V560.38ZM1399.09 539.957C1421.26 526.348 1438.65 507.692 1451.22 484.049L1445.93 481.231C1433.84 503.961 1417.18 521.812 1395.95 534.843L1399.09 539.957ZM1451.2 484.092C1464.29 460.426 1470.82 434.02 1470.82 404.94H1464.82C1464.82 433.087 1458.51 458.481 1445.95 481.188L1451.2 484.092ZM1470.82 404.94C1470.82 375.861 1464.29 349.691 1451.19 326.504L1445.96 329.456C1458.51 351.656 1464.82 376.792 1464.82 404.94H1470.82ZM1451.21 326.547C1438.63 303.399 1421.25 285.002 1399.09 271.403L1395.95 276.517C1417.2 289.558 1433.85 307.174 1445.94 329.413L1451.21 326.547ZM1399.11 271.419C1377.39 257.78 1352.9 250.98 1325.74 250.98V256.98C1351.85 256.98 1375.22 263.5 1395.92 276.501L1399.11 271.419ZM1325.74 250.98C1298.57 250.98 1273.85 257.78 1251.65 271.403L1254.79 276.517C1276 263.5 1299.62 256.98 1325.74 256.98V250.98ZM1251.62 271.419C1229.97 285.015 1212.61 303.395 1199.54 326.504L1204.77 329.456C1217.36 307.178 1234.04 289.545 1254.81 276.501L1251.62 271.419ZM1199.54 326.504C1186.44 349.691 1179.92 375.861 1179.92 404.94H1185.92C1185.92 376.792 1192.22 351.656 1204.77 329.456L1199.54 326.504ZM1179.92 404.94C1179.92 434.02 1186.44 460.426 1199.53 484.092L1204.78 481.188C1192.22 458.481 1185.92 433.087 1185.92 404.94H1179.92ZM1199.53 484.092C1212.59 507.696 1229.95 526.335 1251.62 539.941L1254.81 534.859C1234.05 521.825 1217.38 503.957 1204.78 481.188L1199.53 484.092ZM1251.65 539.957C1273.85 553.58 1298.57 560.38 1325.74 560.38V554.38C1299.62 554.38 1276 547.86 1254.79 534.843L1251.65 539.957ZM1595.3 604H1592.3V607H1595.3V604ZM1595.3 43.82V40.82H1592.3V43.82H1595.3ZM1650.8 43.82H1653.8V40.82H1650.8V43.82ZM1650.8 604V607H1653.8V604H1650.8ZM1598.3 604V43.82H1592.3V604H1598.3ZM1595.3 46.82H1650.8V40.82H1595.3V46.82ZM1647.8 43.82V604H1653.8V43.82H1647.8ZM1650.8 601H1595.3V607H1650.8V601Z" fill="white" mask="url(#path-1-outside-1_851_442)"/>
</g>
</g>
<defs>
<clipPath id="clip0_851_442">
<rect width="1728" height="480" fill="white"/>
</clipPath>
</defs>
</svg>
