<svg width="471" height="446" viewBox="0 0 471 446" fill="none" xmlns="http://www.w3.org/2000/svg">
<g opacity="0.7" clip-path="url(#clip0_165_677)">
<path d="M226.611 121.248L216.648 137.29L195.557 79.3423C194.927 77.6124 195.819 75.6995 197.549 75.0699L253.93 54.5487C255.66 53.919 257.573 54.811 258.203 56.5409L274.164 100.393C274.793 102.123 273.901 104.036 272.171 104.666L226.611 121.248ZM218.059 92.4358C221.207 101.085 230.771 105.545 239.42 102.397C248.07 99.2488 252.53 89.6847 249.382 81.0351L243.117 83.3152C245.006 88.5052 242.33 94.2434 237.14 96.1324C231.95 98.0214 226.212 95.3456 224.323 90.1557L218.059 92.4358Z" fill="#FAA7E0"/>
</g>
<g opacity="0.7" clip-path="url(#clip1_165_677)">
<path d="M386.1 145.131L374.884 103.274L364.994 92.1203L313.478 105.924L310.492 120.54L321.704 162.385C322.181 164.163 324.009 165.219 325.787 164.742L383.743 149.213C385.521 148.737 386.576 146.909 386.1 145.131ZM319.182 111.297L362.739 99.6263L367.684 105.203L317.691 118.599L319.182 111.297ZM336.478 127.368L355.797 122.192L357.522 128.631L338.204 133.808L336.478 127.368Z" fill="#67E3F9"/>
</g>
<g opacity="0.7" clip-path="url(#clip2_165_677)">
<path d="M317.303 65.0888L301.475 81.7193L300.841 58.7696L280.133 48.8554L301.764 41.1601L304.793 18.4024L318.796 36.5961L341.377 32.4453L328.4 51.385L339.326 71.5773L317.303 65.0888Z" fill="#FDE272"/>
</g>
<g opacity="0.7" clip-path="url(#clip3_165_677)">
<path d="M157.373 131.802C175.155 127.038 193.433 137.59 198.198 155.373C202.963 173.155 192.41 191.433 174.628 196.197C156.845 200.962 138.568 190.409 133.803 172.627C129.038 154.845 139.591 136.567 157.373 131.802ZM152.85 176.779L147.723 185.653C149.971 187.547 152.5 189.082 155.213 190.201L156.387 190.655L161.509 181.778C158.52 181.02 155.765 179.517 153.511 177.424L152.85 176.779ZM183.778 168.492C183.02 171.48 181.518 174.236 179.425 176.489L178.779 177.15L187.654 182.277C189.547 180.03 191.082 177.5 192.202 174.787L192.655 173.614L183.778 168.492ZM162.549 151.121C155.437 153.027 151.215 160.338 153.121 167.451C155.027 174.564 162.338 178.785 169.451 176.879C176.564 174.973 180.785 167.662 178.879 160.549C176.973 153.436 169.662 149.215 162.549 151.121ZM144.347 145.722C142.454 147.97 140.919 150.499 139.799 153.213L139.345 154.387L148.222 159.508C148.98 156.519 150.483 153.764 152.576 151.51L153.221 150.85L144.347 145.722ZM175.614 137.345L170.492 146.222C173.481 146.98 176.236 148.483 178.49 150.576L179.151 151.221L184.278 142.347C182.031 140.453 179.501 138.918 176.788 137.799L175.614 137.345Z" fill="#73E2A3"/>
</g>
<g opacity="0.7" clip-path="url(#clip4_165_677)">
<path d="M246.975 206.509C231.032 197.304 225.569 176.917 234.774 160.974C243.979 145.031 264.365 139.569 280.308 148.774C296.251 157.978 301.714 178.365 292.509 194.308C283.304 210.251 262.918 215.713 246.975 206.509ZM250.428 173.861C246.746 180.238 248.931 188.393 255.308 192.075C261.685 195.757 269.84 193.572 273.522 187.195L250.428 173.861ZM253.761 168.088C256.152 169.468 259.21 168.649 260.591 166.258C261.972 163.866 261.152 160.808 258.761 159.427C256.369 158.047 253.312 158.866 251.931 161.258C250.55 163.649 251.369 166.707 253.761 168.088ZM276.855 181.421C279.246 182.802 282.304 181.982 283.685 179.591C285.066 177.199 284.246 174.141 281.855 172.761C279.464 171.38 276.406 172.199 275.025 174.591C273.644 176.982 274.464 180.04 276.855 181.421Z" fill="#FDE272"/>
</g>
<g opacity="0.7">
<path d="M343.394 191.43L362.881 210.917C362.287 213.141 362.862 215.612 364.607 217.357C367.211 219.961 371.432 219.961 374.035 217.357C376.639 214.754 376.639 210.533 374.035 207.929C372.29 206.184 369.819 205.609 367.595 206.203L348.108 186.716L351.643 183.18C362.643 192.608 374.821 196.144 395.248 200.858L397.605 222.071L378.749 240.928L357.536 238.57C352.822 218.143 349.286 205.965 339.858 194.965L343.394 191.43ZM408.212 230.321L387.056 251.476C386.406 252.127 385.35 252.127 384.699 251.476C384.45 251.226 384.286 250.904 384.231 250.555L383.463 245.641L402.319 226.785L407.269 227.492C408.18 227.623 408.813 228.467 408.683 229.378C408.632 229.735 408.467 230.066 408.212 230.321Z" fill="#FAA7E0"/>
</g>
<g opacity="0.7" clip-path="url(#clip5_165_677)">
<path d="M292.946 238.423L315.484 244.463L275.291 278.555L283.055 249.577L260.517 243.538L300.71 209.446L292.946 238.423Z" fill="#BDB4FE"/>
</g>
<g opacity="0.7" clip-path="url(#clip6_165_677)">
<path d="M174.371 248.544L184.188 246.636L191.82 285.901L182.004 287.809C180.197 288.16 178.447 286.98 178.095 285.173L171.735 252.452C171.384 250.645 172.564 248.895 174.371 248.544ZM190.868 240.947L207.74 215.933C208.204 215.246 209.103 215.004 209.849 215.366L213.045 216.916C214.862 217.797 215.971 219.685 215.855 221.701L214.963 237.258L235.905 233.187C239.519 232.485 243.019 234.845 243.721 238.459L245.06 245.345C245.226 246.2 245.223 247.079 245.051 247.932L239.706 274.49C239.439 275.814 238.4 276.847 237.074 277.105L201.636 283.993C199.829 284.344 198.079 283.164 197.728 281.357L190.359 243.447C190.19 242.579 190.373 241.68 190.868 240.947Z" fill="#67E3F9"/>
</g>
<g opacity="0.7" clip-path="url(#clip7_165_677)">
<path d="M253.566 330.78C254.923 327.875 256.636 325.063 258.71 322.409C269.151 309.045 285.699 303.58 300.044 307.403C307.224 320.397 305.925 337.775 295.483 351.14C293.41 353.794 291.096 356.136 288.606 358.156L290.227 367.019C290.371 367.807 289.934 368.586 289.186 368.874L274.327 374.589C273.468 374.919 272.503 374.49 272.173 373.631C272.124 373.504 272.091 373.371 272.074 373.236L270.779 362.688C270.672 361.811 270.22 361.012 269.523 360.468L255.939 349.855C255.242 349.311 254.358 349.065 253.481 349.173L242.933 350.468C242.019 350.581 241.188 349.931 241.076 349.017C241.059 348.882 241.059 348.745 241.076 348.61L243.026 332.81C243.124 332.014 243.775 331.401 244.574 331.351L253.566 330.78ZM277.096 336.774C279.998 339.041 284.187 338.527 286.454 335.625C288.721 332.724 288.207 328.535 285.305 326.268C282.404 324.001 278.214 324.515 275.947 327.417C273.681 330.318 274.195 334.508 277.096 336.774Z" fill="#FDE272"/>
</g>
<g opacity="0.7" clip-path="url(#clip8_165_677)">
<path d="M344.487 424.978C327.418 431.875 307.99 423.628 301.094 406.559C294.198 389.49 302.444 370.062 319.513 363.166C336.582 356.27 356.01 364.516 362.906 381.585C369.803 398.654 361.556 418.082 344.487 424.978ZM335.091 392.823L328.847 377.37L322.666 379.868L331.407 401.502L349.951 394.01L347.453 387.829L335.091 392.823Z" fill="#F7B27A"/>
</g>
<g opacity="0.7" clip-path="url(#clip9_165_677)">
<path d="M429.554 351.065L449.322 363.902L459.03 409.576C459.41 411.362 458.267 413.118 456.478 413.498L404.267 424.596C402.479 424.976 400.713 423.8 400.341 422.051L387.855 363.308C387.475 361.523 388.618 359.766 390.407 359.386L429.554 351.065ZM441.887 382.522L427.909 373.445L424.278 379.036L432.665 384.482L427.218 392.869L432.809 396.5L441.887 382.522ZM404.998 390.363L418.976 399.44L422.607 393.849L414.22 388.402L419.667 380.016L414.076 376.385L404.998 390.363Z" fill="#BDB4FE"/>
</g>
<g opacity="0.7" clip-path="url(#clip10_165_677)">
<path d="M202.55 320.671L208.959 318.833C210.728 318.325 212.574 319.349 213.082 321.118L224.107 359.569C224.615 361.339 223.591 363.184 221.822 363.692L170.554 378.392C168.785 378.9 166.939 377.877 166.431 376.107L155.406 337.657C154.899 335.887 155.922 334.041 157.691 333.534L164.1 331.696L163.181 328.492C160.136 317.874 166.276 306.798 176.894 303.754C187.511 300.709 198.587 306.849 201.631 317.466L202.55 320.671ZM196.142 322.508L195.223 319.304C193.193 312.225 185.81 308.133 178.731 310.162C171.653 312.192 167.56 319.576 169.589 326.654L170.508 329.858L196.142 322.508ZM170.06 340.39L171.898 346.798L178.306 344.961L176.469 338.552L170.06 340.39ZM172.817 350.002L174.654 356.411L181.063 354.573L179.225 348.165L172.817 350.002ZM175.573 359.615L177.411 366.023L183.819 364.186L181.982 357.777L175.573 359.615Z" fill="#73E2A3"/>
</g>
<g opacity="0.7" clip-path="url(#clip11_165_677)">
<path d="M133.322 204.35C137.166 206.768 140.527 209.973 143.138 213.816C140.877 217.006 140.033 221.156 141.195 225.207C142.357 229.258 145.272 232.331 148.879 233.838C148.701 238.481 147.55 242.979 145.571 247.067C141.681 246.708 137.669 248.053 134.744 251.082C131.817 254.113 130.613 258.172 131.111 262.049C129.121 263.096 126.995 263.956 124.749 264.599C122.503 265.244 120.245 265.641 118.003 265.808C116.371 262.256 113.198 259.451 109.11 258.432C105.025 257.413 100.909 258.399 97.8004 260.765C93.9567 258.347 90.5959 255.142 87.9851 251.299C90.2456 248.109 91.0893 243.959 89.9278 239.908C88.7662 235.857 85.8513 232.784 82.2435 231.277C82.4212 226.634 83.5732 222.136 85.5515 218.047C89.4416 218.407 93.4541 217.062 96.379 214.033C99.3056 211.003 100.51 206.943 100.012 203.066C102.002 202.019 104.127 201.159 106.373 200.515C108.619 199.871 110.878 199.474 113.12 199.307C114.752 202.859 117.925 205.664 122.013 206.683C126.098 207.702 130.214 206.716 133.322 204.35ZM108.615 239.751C112.588 243.587 118.918 243.477 122.755 239.504C126.591 235.531 126.481 229.201 122.508 225.364C118.535 221.528 112.204 221.638 108.368 225.611C104.531 229.584 104.642 235.914 108.615 239.751Z" fill="#F7B27A"/>
</g>
<g opacity="0.7" clip-path="url(#clip12_165_677)">
<path d="M76.9568 280.695C77.8218 279.068 79.8631 278.461 81.4421 279.301L134.467 307.495C136.079 308.352 136.69 310.356 135.82 311.993L113.914 353.192C113.049 354.819 111.008 355.425 109.429 354.585L56.4036 326.392C54.7915 325.534 54.1803 323.531 55.0509 321.894L76.9568 280.695ZM93.4972 334.789C101.624 339.11 111.716 336.025 116.038 327.898C120.359 319.77 117.273 309.679 109.146 305.357C101.019 301.036 90.9273 304.121 86.6059 312.249C82.2846 320.376 85.37 330.468 93.4972 334.789ZM81.2796 286.765L78.1498 292.651L86.9792 297.346L90.109 291.46L81.2796 286.765ZM89.1041 272.049L106.763 281.439L103.633 287.325L85.9743 277.936L89.1041 272.049Z" fill="#BDB4FE"/>
</g>
<g opacity="0.7" clip-path="url(#clip13_165_677)">
<path d="M338.898 283.007L386.854 329.317L366.014 350.898C364.735 352.222 362.625 352.259 361.301 350.98L318.14 309.3C316.816 308.022 316.779 305.911 318.058 304.587L338.898 283.007ZM393.389 298.557L402.98 307.819C404.304 309.098 404.341 311.209 403.062 312.533L391.485 324.522L343.529 278.211L355.106 266.222C356.385 264.898 358.495 264.861 359.82 266.14L369.411 275.402L374.042 270.606L378.838 275.238L374.207 280.033L388.593 293.926L393.224 289.131L398.02 293.762L393.389 298.557Z" fill="#73E2A3"/>
</g>
<g opacity="0.7">
<path d="M216.405 446.538C227.661 457.408 245.425 457.274 256.082 446.238L268.946 432.917C271.078 430.71 270.981 427.158 268.729 424.984C266.478 422.81 262.925 422.837 260.794 425.044L268.512 417.052C270.644 414.845 270.546 411.293 268.295 409.119C266.044 406.945 262.491 406.972 260.36 409.179L262.933 406.515C265.064 404.308 264.967 400.756 262.716 398.582C260.464 396.408 256.911 396.435 254.78 398.642L252.207 401.306C254.339 399.099 254.241 395.547 251.99 393.373C249.739 391.199 246.186 391.226 244.055 393.433L228.618 409.419C230.749 407.211 230.652 403.66 228.401 401.486C226.15 399.312 222.597 399.339 220.465 401.546L215.32 406.874C204.663 417.91 205.149 435.668 216.405 446.538Z" fill="#BDB4FE"/>
<path d="M228.618 409.419L222.186 416.079M228.618 409.419L244.055 393.433C246.186 391.226 249.739 391.199 251.99 393.373C254.241 395.547 254.339 399.099 252.207 401.306M228.618 409.419C230.749 407.211 230.652 403.66 228.401 401.486C226.15 399.312 222.597 399.339 220.465 401.546L215.32 406.874C204.663 417.91 205.149 435.668 216.405 446.538C227.661 457.408 245.425 457.274 256.082 446.238L268.946 432.917C271.078 430.71 270.981 427.158 268.729 424.984C266.478 422.81 262.925 422.837 260.794 425.044M252.207 401.306L238.057 415.959M252.207 401.306L254.78 398.642C256.911 396.435 260.464 396.408 262.716 398.582C264.967 400.756 265.064 404.308 262.933 406.515L260.36 409.179M260.36 409.179L246.209 423.832M260.36 409.179C262.491 406.972 266.044 406.945 268.295 409.119C270.546 411.293 270.644 414.845 268.512 417.052L260.794 425.044M260.794 425.044L254.362 431.705" stroke="#191919" stroke-width="3" stroke-linecap="round" stroke-linejoin="round"/>
</g>
<g opacity="0.7" clip-path="url(#clip14_165_677)">
<path d="M100.804 405.632L124.46 390.545L152.279 386.896C153.829 386.693 155.311 387.593 155.845 389.061L167.231 420.343C169.518 426.626 168.513 433.638 164.553 439.026L149.541 459.455L124.91 453.455C118.413 451.873 113.136 447.148 110.849 440.864L99.4637 409.582C98.9294 408.114 99.4864 406.472 100.804 405.632ZM138.711 429.698L149.678 431.188L144.189 421.577L148.994 411.607L138.158 413.857L130.16 406.206L128.952 417.208L119.204 422.449L129.294 426.998L131.267 437.889L138.711 429.698Z" fill="#67E3F9"/>
</g>
<g opacity="0.7" clip-path="url(#clip15_165_677)">
<path d="M28.0346 405.261C31.1107 398.299 37.1257 391.727 42.4268 386.426C47.7277 381.125 54.3 375.11 61.2616 372.034C64.7962 370.472 68.6179 369.581 72.5352 370.062C76.5075 370.55 80.2666 372.412 83.6747 375.82C87.1397 379.285 89.3515 383.971 89.9512 388.599C90.5487 393.211 89.575 398.204 86.0317 401.747C82.6732 405.105 77.9073 406.144 74.3519 406.919C71.6211 407.515 68.0789 407.915 65.997 409.996C63.915 412.078 63.515 415.621 62.9199 418.351C62.1448 421.907 61.1058 426.673 57.7474 430.031C54.204 433.575 49.2116 434.548 44.5996 433.951C39.9714 433.351 35.2852 431.139 31.8202 427.674C28.4121 424.266 26.5504 420.507 26.0626 416.535C25.5815 412.617 26.4728 408.796 28.0346 405.261Z" fill="#FDE272"/>
</g>
<defs>
<clipPath id="clip0_165_677">
<rect width="80" height="80" fill="white" transform="translate(184.732 69.0933) rotate(-20)"/>
</clipPath>
<clipPath id="clip1_165_677">
<rect width="80" height="80" fill="white" transform="translate(298.01 99.7158) rotate(-15)"/>
</clipPath>
<clipPath id="clip2_165_677">
<rect width="80" height="80" fill="white" transform="translate(264 20.7056) rotate(-15)"/>
</clipPath>
<clipPath id="clip3_165_677">
<rect width="80" height="80" fill="white" transform="translate(117.01 135.716) rotate(-15)"/>
</clipPath>
<clipPath id="clip4_165_677">
<rect width="80" height="80" fill="white" transform="translate(249 123) rotate(30)"/>
</clipPath>
<clipPath id="clip5_165_677">
<rect width="80" height="80" fill="white" transform="translate(259.716 195.01) rotate(15)"/>
</clipPath>
<clipPath id="clip6_165_677">
<rect width="80" height="80" fill="white" transform="translate(162.103 220.367) rotate(-11)"/>
</clipPath>
<clipPath id="clip7_165_677">
<rect width="80" height="80" fill="white" transform="translate(272.253 278) rotate(38)"/>
</clipPath>
<clipPath id="clip8_165_677">
<rect width="80" height="80" fill="white" transform="translate(279.928 371.969) rotate(-22)"/>
</clipPath>
<clipPath id="clip9_165_677">
<rect width="80" height="80" fill="white" transform="translate(376 355.633) rotate(-12)"/>
</clipPath>
<clipPath id="clip10_165_677">
<rect width="80" height="80" fill="white" transform="translate(137.524 311.575) rotate(-16)"/>
</clipPath>
<clipPath id="clip11_165_677">
<rect width="80" height="80" fill="white" transform="translate(114.573 176) rotate(44)"/>
</clipPath>
<clipPath id="clip12_165_677">
<rect width="80" height="80" fill="white" transform="translate(80.4612 259.903) rotate(28)"/>
</clipPath>
<clipPath id="clip13_165_677">
<rect width="80" height="80" fill="white" transform="translate(359.573 252) rotate(44)"/>
</clipPath>
<clipPath id="clip14_165_677">
<rect width="80" height="80" fill="white" transform="translate(85.7319 401.093) rotate(-20)"/>
</clipPath>
<clipPath id="clip15_165_677">
<rect width="80" height="80" fill="white" transform="translate(0.000244141 400.568) rotate(-45)"/>
</clipPath>
</defs>
</svg>
