<svg width="30" height="30" viewBox="0 0 30 30" fill="none" xmlns="http://www.w3.org/2000/svg">
<path d="M15 8.75003C20.5229 8.75003 25 13.2271 25 18.75C25 24.2729 20.5229 28.75 15 28.75C9.47715 28.75 5 24.2729 5 18.75C5 13.2271 9.47715 8.75003 15 8.75003ZM15 13.125L13.3469 16.4746L9.65031 17.0118L12.3251 19.6191L11.6937 23.3008L15 21.5625L18.3063 23.3008L17.6749 19.6191L20.3498 17.0118L16.6531 16.4746L15 13.125ZM16.25 2.49878L22.5 2.50003V6.25003L20.7958 7.67198C19.4131 6.94717 17.8781 6.47359 16.2514 6.31189L16.25 2.49878ZM13.75 2.49878L13.7496 6.31179C12.123 6.47333 10.5881 6.94673 9.20551 7.67133L7.5 6.25003V2.50003L13.75 2.49878Z" fill="#CD8BB8"/>
</svg>
