<svg width="26" height="26" viewBox="0 0 26 26" fill="none" xmlns="http://www.w3.org/2000/svg">
<path d="M13 10.5C15.7614 10.5 18 8.26143 18 5.5C18 2.73857 15.7614 0.5 13 0.5C10.2386 0.5 8 2.73857 8 5.5C8 8.26143 10.2386 10.5 13 10.5ZM4.875 14.25C6.60089 14.25 8 12.8509 8 11.125C8 9.39911 6.60089 8 4.875 8C3.14911 8 1.75 9.39911 1.75 11.125C1.75 12.8509 3.14911 14.25 4.875 14.25ZM24.25 11.125C24.25 12.8509 22.8509 14.25 21.125 14.25C19.3991 14.25 18 12.8509 18 11.125C18 9.39911 19.3991 8 21.125 8C22.8509 8 24.25 9.39911 24.25 11.125ZM13 11.75C16.4517 11.75 19.25 14.5483 19.25 18V25.5H6.75V18C6.75 14.5483 9.54823 11.75 13 11.75ZM4.25 17.9999C4.25 17.1337 4.37584 16.297 4.61022 15.507L4.3983 15.5255C2.20629 15.763 0.5 17.6198 0.5 19.8749V25.4999H4.25V17.9999ZM25.5 25.4999V19.8749C25.5 17.5473 23.6824 15.6441 21.3897 15.507C21.6241 16.297 21.75 17.1337 21.75 17.9999V25.4999H25.5Z" fill="#CD8BB8"/>
</svg>
