<svg width="32" height="32" viewBox="0 0 32 32" fill="none" xmlns="http://www.w3.org/2000/svg">
<path d="M14.6666 24H10.588C10.1919 22.3032 8.40547 20.9142 7.67191 19.9989C6.20858 18.1729 5.33331 15.8553 5.33331 13.3333C5.33331 7.44225 10.1089 2.66663 16 2.66663C21.891 2.66663 26.6666 7.44225 26.6666 13.3333C26.6666 15.8566 25.7904 18.1753 24.3257 20.0018C23.5925 20.916 21.8077 22.3034 21.412 24H17.3333V17.3333H14.6666V24ZM21.3333 26.6666V28C21.3333 29.4728 20.1394 30.6666 18.6666 30.6666H13.3333C11.8606 30.6666 10.6666 29.4728 10.6666 28V26.6666H21.3333Z" fill="#FEEE95"/>
</svg>
