<svg width="16" height="15" viewBox="0 0 16 15" fill="none" xmlns="http://www.w3.org/2000/svg">
<path d="M15.5 11.1833V14.1301C15.5 14.5676 15.1617 14.9306 14.7254 14.9614C14.3609 14.9872 14.0636 15 13.8333 15C6.4695 15 0.5 9.0305 0.5 1.66667C0.5 1.43642 0.512875 1.13906 0.538625 0.774583C0.569475 0.338233 0.93245 0 1.36988 0H4.31675C4.53065 0 4.7098 0.162017 4.73127 0.374833C4.75056 0.565892 4.76848 0.719283 4.78506 0.835017C4.95362 2.01227 5.29794 3.1328 5.79058 4.16919C5.86966 4.33554 5.81809 4.53466 5.66821 4.64172L3.86962 5.9265C4.9646 8.48425 7.01575 10.5354 9.5735 11.6304L10.8559 9.83492C10.9643 9.68325 11.1658 9.63108 11.3342 9.711C12.3705 10.2032 13.4909 10.5472 14.668 10.7153C14.783 10.7318 14.9354 10.7496 15.1252 10.7687C15.338 10.7902 15.5 10.9694 15.5 11.1833Z" fill="white" fill-opacity="0.4"/>
</svg>
